<?xml version="1.0" encoding="UTF-8" standalone="no"?><svg xmlns="http://www.w3.org/2000/svg" xmlns:xlink="http://www.w3.org/1999/xlink" clip-rule="evenodd" stroke-miterlimit="10" viewBox="0 0 1024 768"><desc>SVG generated by Keynote</desc><defs></defs><g transform="matrix(1.00, 0.00, -0.00, -1.00, 0.0, 768.0)"><path d="M 0.0 768.0 L 1024.0 768.0 L 1024.0 0.0 L 0.0 0.0 Z M 0.0 768.0 " fill="#FEFFFF"></path><text xml:space="preserve" font-family="GillSans,Gill Sans" font-size="60.0" fill="#000000" transform="matrix(1.00, 0.00, -0.00, -1.00, 162.1, 630.8)">r</text><text xml:space="preserve" font-family="GillSans,Gill Sans" font-size="60.0" fill="#000000" transform="matrix(1.00, 0.00, -0.00, -1.00, 184.7, 630.8)">e</text><text xml:space="preserve" font-family="GillSans,Gill Sans" font-size="60.0" fill="#000000" transform="matrix(1.00, 0.00, -0.00, -1.00, 213.4, 630.8)">m</text><text xml:space="preserve" font-family="GillSans,Gill Sans" font-size="60.0" fill="#000000" transform="matrix(1.00, 0.00, -0.00, -1.00, 259.7, 630.8)">o</text><text xml:space="preserve" font-family="GillSans,Gill Sans" font-size="60.0" fill="#000000" transform="matrix(1.00, 0.00, -0.00, -1.00, 292.2, 630.8)">v</text><text xml:space="preserve" font-family="GillSans,Gill Sans" font-size="60.0" fill="#000000" transform="matrix(1.00, 0.00, -0.00, -1.00, 317.3, 630.8)">e</text><text xml:space="preserve" font-family="GillSans,Gill Sans" font-size="60.0" fill="#000000" transform="matrix(1.00, 0.00, -0.00, -1.00, 346.0, 630.8)">_</text><text xml:space="preserve" font-family="GillSans,Gill Sans" font-size="60.0" fill="#000000" transform="matrix(1.00, 0.00, -0.00, -1.00, 379.1, 630.8)">[</text><text xml:space="preserve" font-family="GillSans,Gill Sans" font-size="60.0" fill="#000000" transform="matrix(1.00, 0.00, -0.00, -1.00, 399.1, 630.8)">ﬁ</text><text xml:space="preserve" font-family="GillSans,Gill Sans" font-size="60.0" fill="#000000" transform="matrix(1.00, 0.00, -0.00, -1.00, 429.1, 630.8)">e</text><text xml:space="preserve" font-family="GillSans,Gill Sans" font-size="60.0" fill="#000000" transform="matrix(1.00, 0.00, -0.00, -1.00, 457.8, 630.8)">l</text><text xml:space="preserve" font-family="GillSans,Gill Sans" font-size="60.0" fill="#000000" transform="matrix(1.00, 0.00, -0.00, -1.00, 471.0, 630.8)">d</text><text xml:space="preserve" font-family="GillSans,Gill Sans" font-size="60.0" fill="#000000" transform="matrix(1.00, 0.00, -0.00, -1.00, 501.6, 630.8)">]</text><text xml:space="preserve" font-family="GillSans,Gill Sans" font-size="60.0" fill="#000000" transform="matrix(1.00, 0.00, -0.00, -1.00, 521.6, 630.8)">_</text><text xml:space="preserve" font-family="GillSans,Gill Sans" font-size="60.0" fill="#000000" transform="matrix(1.00, 0.00, -0.00, -1.00, 554.6, 630.8)">f</text><text xml:space="preserve" font-family="GillSans,Gill Sans" font-size="60.0" fill="#000000" transform="matrix(1.00, 0.00, -0.00, -1.00, 569.6, 630.8)">r</text><text xml:space="preserve" font-family="GillSans,Gill Sans" font-size="60.0" fill="#000000" transform="matrix(1.00, 0.00, -0.00, -1.00, 591.9, 630.8)">o</text><text xml:space="preserve" font-family="GillSans,Gill Sans" font-size="60.0" fill="#000000" transform="matrix(1.00, 0.00, -0.00, -1.00, 625.0, 630.8)">m</text><text xml:space="preserve" font-family="GillSans,Gill Sans" font-size="60.0" fill="#000000" transform="matrix(1.00, 0.00, -0.00, -1.00, 671.3, 630.8)">_</text><text xml:space="preserve" font-family="GillSans,Gill Sans" font-size="60.0" fill="#000000" transform="matrix(1.00, 0.00, -0.00, -1.00, 704.4, 630.8)">[</text><text xml:space="preserve" font-family="GillSans,Gill Sans" font-size="60.0" fill="#000000" transform="matrix(1.00, 0.00, -0.00, -1.00, 724.3, 630.8)">t</text><text xml:space="preserve" font-family="GillSans,Gill Sans" font-size="60.0" fill="#000000" transform="matrix(1.00, 0.00, -0.00, -1.00, 744.3, 630.8)">a</text><text xml:space="preserve" font-family="GillSans,Gill Sans" font-size="60.0" fill="#000000" transform="matrix(1.00, 0.00, -0.00, -1.00, 769.9, 630.8)">b</text><text xml:space="preserve" font-family="GillSans,Gill Sans" font-size="60.0" fill="#000000" transform="matrix(1.00, 0.00, -0.00, -1.00, 799.9, 630.8)">l</text><text xml:space="preserve" font-family="GillSans,Gill Sans" font-size="60.0" fill="#000000" transform="matrix(1.00, 0.00, -0.00, -1.00, 813.1, 630.8)">e</text><text xml:space="preserve" font-family="GillSans,Gill Sans" font-size="60.0" fill="#000000" transform="matrix(1.00, 0.00, -0.00, -1.00, 841.8, 630.8)">]</text><text xml:space="preserve" font-family="Monaco,Monaco" font-size="16.5" fill="#000000" transform="matrix(1.00, 0.00, -0.00, -1.00, 104.0, 483.5)">$</text><text xml:space="preserve" font-family="Monaco,Monaco" font-size="16.5" fill="#000000" transform="matrix(1.00, 0.00, -0.00, -1.00, 113.9, 483.5)"> </text><text xml:space="preserve" font-family="Monaco,Monaco" font-size="16.5" fill="#000000" transform="matrix(1.00, 0.00, -0.00, -1.00, 123.8, 483.5)">r</text><text xml:space="preserve" font-family="Monaco,Monaco" font-size="16.5" fill="#000000" transform="matrix(1.00, 0.00, -0.00, -1.00, 133.7, 483.5)">a</text><text xml:space="preserve" font-family="Monaco,Monaco" font-size="16.5" fill="#000000" transform="matrix(1.00, 0.00, -0.00, -1.00, 143.6, 483.5)">i</text><text xml:space="preserve" font-family="Monaco,Monaco" font-size="16.5" fill="#000000" transform="matrix(1.00, 0.00, -0.00, -1.00, 153.5, 483.5)">l</text><text xml:space="preserve" font-family="Monaco,Monaco" font-size="16.5" fill="#000000" transform="matrix(1.00, 0.00, -0.00, -1.00, 163.4, 483.5)">s</text><text xml:space="preserve" font-family="Monaco,Monaco" font-size="16.5" fill="#000000" transform="matrix(1.00, 0.00, -0.00, -1.00, 173.3, 483.5)"> </text><text xml:space="preserve" font-family="Monaco,Monaco" font-size="16.5" fill="#000000" transform="matrix(1.00, 0.00, -0.00, -1.00, 183.2, 483.5)">g</text><text xml:space="preserve" font-family="Monaco,Monaco" font-size="16.5" fill="#000000" transform="matrix(1.00, 0.00, -0.00, -1.00, 193.1, 483.5)"> </text><text xml:space="preserve" font-family="Monaco,Monaco" font-size="16.5" fill="#000000" transform="matrix(1.00, 0.00, -0.00, -1.00, 203.0, 483.5)">m</text><text xml:space="preserve" font-family="Monaco,Monaco" font-size="16.5" fill="#000000" transform="matrix(1.00, 0.00, -0.00, -1.00, 212.9, 483.5)">i</text><text xml:space="preserve" font-family="Monaco,Monaco" font-size="16.5" fill="#000000" transform="matrix(1.00, 0.00, -0.00, -1.00, 222.8, 483.5)">g</text><text xml:space="preserve" font-family="Monaco,Monaco" font-size="16.5" fill="#000000" transform="matrix(1.00, 0.00, -0.00, -1.00, 232.7, 483.5)">r</text><text xml:space="preserve" font-family="Monaco,Monaco" font-size="16.5" fill="#000000" transform="matrix(1.00, 0.00, -0.00, -1.00, 242.6, 483.5)">a</text><text xml:space="preserve" font-family="Monaco,Monaco" font-size="16.5" fill="#000000" transform="matrix(1.00, 0.00, -0.00, -1.00, 252.5, 483.5)">t</text><text xml:space="preserve" font-family="Monaco,Monaco" font-size="16.5" fill="#000000" transform="matrix(1.00, 0.00, -0.00, -1.00, 262.5, 483.5)">i</text><text xml:space="preserve" font-family="Monaco,Monaco" font-size="16.5" fill="#000000" transform="matrix(1.00, 0.00, -0.00, -1.00, 272.4, 483.5)">o</text><text xml:space="preserve" font-family="Monaco,Monaco" font-size="16.5" fill="#000000" transform="matrix(1.00, 0.00, -0.00, -1.00, 282.3, 483.5)">n</text><text xml:space="preserve" font-family="Monaco,Monaco" font-size="16.5" fill="#000000" transform="matrix(1.00, 0.00, -0.00, -1.00, 292.2, 483.5)"> </text><text xml:space="preserve" font-family="Monaco,Monaco" font-size="16.5" fill="#000000" transform="matrix(1.00, 0.00, -0.00, -1.00, 302.1, 483.5)">a</text><text xml:space="preserve" font-family="Monaco,Monaco" font-size="16.5" fill="#000000" transform="matrix(1.00, 0.00, -0.00, -1.00, 312.0, 483.5)">d</text><text xml:space="preserve" font-family="Monaco,Monaco" font-size="16.5" fill="#000000" transform="matrix(1.00, 0.00, -0.00, -1.00, 321.9, 483.5)">d</text><text xml:space="preserve" font-family="Monaco,Monaco" font-size="16.5" fill="#000000" transform="matrix(1.00, 0.00, -0.00, -1.00, 331.8, 483.5)">_</text><text xml:space="preserve" font-family="Monaco,Monaco" font-size="16.5" fill="#000000" transform="matrix(1.00, 0.00, -0.00, -1.00, 341.7, 483.5)">e</text><text xml:space="preserve" font-family="Monaco,Monaco" font-size="16.5" fill="#000000" transform="matrix(1.00, 0.00, -0.00, -1.00, 351.6, 483.5)">m</text><text xml:space="preserve" font-family="Monaco,Monaco" font-size="16.5" fill="#000000" transform="matrix(1.00, 0.00, -0.00, -1.00, 361.5, 483.5)">a</text><text xml:space="preserve" font-family="Monaco,Monaco" font-size="16.5" fill="#000000" transform="matrix(1.00, 0.00, -0.00, -1.00, 371.4, 483.5)">i</text><text xml:space="preserve" font-family="Monaco,Monaco" font-size="16.5" fill="#000000" transform="matrix(1.00, 0.00, -0.00, -1.00, 381.3, 483.5)">l</text><text xml:space="preserve" font-family="Monaco,Monaco" font-size="16.5" fill="#000000" transform="matrix(1.00, 0.00, -0.00, -1.00, 391.2, 483.5)">_</text><text xml:space="preserve" font-family="Monaco,Monaco" font-size="16.5" fill="#000000" transform="matrix(1.00, 0.00, -0.00, -1.00, 401.1, 483.5)">t</text><text xml:space="preserve" font-family="Monaco,Monaco" font-size="16.5" fill="#000000" transform="matrix(1.00, 0.00, -0.00, -1.00, 411.0, 483.5)">o</text><text xml:space="preserve" font-family="Monaco,Monaco" font-size="16.5" fill="#000000" transform="matrix(1.00, 0.00, -0.00, -1.00, 420.9, 483.5)">_</text><text xml:space="preserve" font-family="Monaco,Monaco" font-size="16.5" fill="#000000" transform="matrix(1.00, 0.00, -0.00, -1.00, 430.8, 483.5)">c</text><text xml:space="preserve" font-family="Monaco,Monaco" font-size="16.5" fill="#000000" transform="matrix(1.00, 0.00, -0.00, -1.00, 440.7, 483.5)">o</text><text xml:space="preserve" font-family="Monaco,Monaco" font-size="16.5" fill="#000000" transform="matrix(1.00, 0.00, -0.00, -1.00, 450.6, 483.5)">n</text><text xml:space="preserve" font-family="Monaco,Monaco" font-size="16.5" fill="#000000" transform="matrix(1.00, 0.00, -0.00, -1.00, 460.5, 483.5)">t</text><text xml:space="preserve" font-family="Monaco,Monaco" font-size="16.5" fill="#000000" transform="matrix(1.00, 0.00, -0.00, -1.00, 470.4, 483.5)">a</text><text xml:space="preserve" font-family="Monaco,Monaco" font-size="16.5" fill="#000000" transform="matrix(1.00, 0.00, -0.00, -1.00, 480.3, 483.5)">c</text><text xml:space="preserve" font-family="Monaco,Monaco" font-size="16.5" fill="#000000" transform="matrix(1.00, 0.00, -0.00, -1.00, 490.2, 483.5)">t</text><text xml:space="preserve" font-family="Monaco,Monaco" font-size="16.5" fill="#000000" transform="matrix(1.00, 0.00, -0.00, -1.00, 500.1, 483.5)">s</text><text xml:space="preserve" font-family="Monaco,Monaco" font-size="16.5" fill="#000000" transform="matrix(1.00, 0.00, -0.00, -1.00, 510.0, 483.5)"> </text><text xml:space="preserve" font-family="Monaco,Monaco" font-size="16.5" fill="#942E2F" transform="matrix(1.00, 0.00, -0.00, -1.00, 519.9, 483.5)">e</text><text xml:space="preserve" font-family="Monaco,Monaco" font-size="16.5" fill="#942E2F" transform="matrix(1.00, 0.00, -0.00, -1.00, 529.8, 483.5)">m</text><text xml:space="preserve" font-family="Monaco,Monaco" font-size="16.5" fill="#942E2F" transform="matrix(1.00, 0.00, -0.00, -1.00, 539.7, 483.5)">a</text><text xml:space="preserve" font-family="Monaco,Monaco" font-size="16.5" fill="#942E2F" transform="matrix(1.00, 0.00, -0.00, -1.00, 549.6, 483.5)">i</text><text xml:space="preserve" font-family="Monaco,Monaco" font-size="16.5" fill="#942E2F" transform="matrix(1.00, 0.00, -0.00, -1.00, 559.5, 483.5)">l</text><text xml:space="preserve" font-family="Monaco,Monaco" font-size="16.5" fill="#942E2F" transform="matrix(1.00, 0.00, -0.00, -1.00, 569.4, 483.5)">:</text><text xml:space="preserve" font-family="Monaco,Monaco" font-size="16.5" fill="#000000" transform="matrix(1.00, 0.00, -0.00, -1.00, 579.3, 483.5)">s</text><text xml:space="preserve" font-family="Monaco,Monaco" font-size="16.5" fill="#000000" transform="matrix(1.00, 0.00, -0.00, -1.00, 589.2, 483.5)">t</text><text xml:space="preserve" font-family="Monaco,Monaco" font-size="16.5" fill="#000000" transform="matrix(1.00, 0.00, -0.00, -1.00, 599.1, 483.5)">r</text><text xml:space="preserve" font-family="Monaco,Monaco" font-size="16.5" fill="#000000" transform="matrix(1.00, 0.00, -0.00, -1.00, 609.0, 483.5)">i</text><text xml:space="preserve" font-family="Monaco,Monaco" font-size="16.5" fill="#000000" transform="matrix(1.00, 0.00, -0.00, -1.00, 618.9, 483.5)">n</text><text xml:space="preserve" font-family="Monaco,Monaco" font-size="16.5" fill="#000000" transform="matrix(1.00, 0.00, -0.00, -1.00, 628.8, 483.5)">g</text><text xml:space="preserve" font-family="Monaco,Monaco" font-size="16.5" fill="#000000" transform="matrix(1.00, 0.00, -0.00, -1.00, 638.7, 483.5)"> </text><text xml:space="preserve" font-family="Monaco,Monaco" font-size="16.5" fill="#000000" transform="matrix(1.00, 0.00, -0.00, -1.00, 104.0, 461.5)"> </text><text xml:space="preserve" font-family="Monaco,Monaco" font-size="16.5" fill="#000000" transform="matrix(1.00, 0.00, -0.00, -1.00, 104.0, 439.5)"> </text><text xml:space="preserve" font-family="Monaco,Monaco" font-size="16.5" fill="#6D6572" transform="matrix(1.00, 0.00, -0.00, -1.00, 104.0, 395.5)">#</text><text xml:space="preserve" font-family="Monaco,Monaco" font-size="16.5" fill="#6D6572" transform="matrix(1.00, 0.00, -0.00, -1.00, 113.9, 395.5)"> </text><text xml:space="preserve" font-family="Monaco,Monaco" font-size="16.5" fill="#6D6572" transform="matrix(1.00, 0.00, -0.00, -1.00, 123.8, 395.5)">2</text><text xml:space="preserve" font-family="Monaco,Monaco" font-size="16.5" fill="#6D6572" transform="matrix(1.00, 0.00, -0.00, -1.00, 133.7, 395.5)">0</text><text xml:space="preserve" font-family="Monaco,Monaco" font-size="16.5" fill="#6D6572" transform="matrix(1.00, 0.00, -0.00, -1.00, 143.6, 395.5)">1</text><text xml:space="preserve" font-family="Monaco,Monaco" font-size="16.5" fill="#6D6572" transform="matrix(1.00, 0.00, -0.00, -1.00, 153.5, 395.5)">2</text><text xml:space="preserve" font-family="Monaco,Monaco" font-size="16.5" fill="#6D6572" transform="matrix(1.00, 0.00, -0.00, -1.00, 163.4, 395.5)">0</text><text xml:space="preserve" font-family="Monaco,Monaco" font-size="16.5" fill="#6D6572" transform="matrix(1.00, 0.00, -0.00, -1.00, 173.3, 395.5)">4</text><text xml:space="preserve" font-family="Monaco,Monaco" font-size="16.5" fill="#6D6572" transform="matrix(1.00, 0.00, -0.00, -1.00, 183.2, 395.5)">0</text><text xml:space="preserve" font-family="Monaco,Monaco" font-size="16.5" fill="#6D6572" transform="matrix(1.00, 0.00, -0.00, -1.00, 193.1, 395.5)">4</text><text xml:space="preserve" font-family="Monaco,Monaco" font-size="16.5" fill="#6D6572" transform="matrix(1.00, 0.00, -0.00, -1.00, 203.0, 395.5)">2</text><text xml:space="preserve" font-family="Monaco,Monaco" font-size="16.5" fill="#6D6572" transform="matrix(1.00, 0.00, -0.00, -1.00, 212.9, 395.5)">3</text><text xml:space="preserve" font-family="Monaco,Monaco" font-size="16.5" fill="#6D6572" transform="matrix(1.00, 0.00, -0.00, -1.00, 222.8, 395.5)">3</text><text xml:space="preserve" font-family="Monaco,Monaco" font-size="16.5" fill="#6D6572" transform="matrix(1.00, 0.00, -0.00, -1.00, 232.7, 395.5)">6</text><text xml:space="preserve" font-family="Monaco,Monaco" font-size="16.5" fill="#6D6572" transform="matrix(1.00, 0.00, -0.00, -1.00, 242.6, 395.5)">4</text><text xml:space="preserve" font-family="Monaco,Monaco" font-size="16.5" fill="#6D6572" transform="matrix(1.00, 0.00, -0.00, -1.00, 252.5, 395.5)">1</text><text xml:space="preserve" font-family="Monaco,Monaco" font-size="16.5" fill="#6D6572" transform="matrix(1.00, 0.00, -0.00, -1.00, 262.5, 395.5)">_</text><text xml:space="preserve" font-family="Monaco,Monaco" font-size="16.5" fill="#6D6572" transform="matrix(1.00, 0.00, -0.00, -1.00, 272.4, 395.5)">r</text><text xml:space="preserve" font-family="Monaco,Monaco" font-size="16.5" fill="#6D6572" transform="matrix(1.00, 0.00, -0.00, -1.00, 282.3, 395.5)">e</text><text xml:space="preserve" font-family="Monaco,Monaco" font-size="16.5" fill="#6D6572" transform="matrix(1.00, 0.00, -0.00, -1.00, 292.2, 395.5)">m</text><text xml:space="preserve" font-family="Monaco,Monaco" font-size="16.5" fill="#6D6572" transform="matrix(1.00, 0.00, -0.00, -1.00, 302.1, 395.5)">o</text><text xml:space="preserve" font-family="Monaco,Monaco" font-size="16.5" fill="#6D6572" transform="matrix(1.00, 0.00, -0.00, -1.00, 312.0, 395.5)">v</text><text xml:space="preserve" font-family="Monaco,Monaco" font-size="16.5" fill="#6D6572" transform="matrix(1.00, 0.00, -0.00, -1.00, 321.9, 395.5)">e</text><text xml:space="preserve" font-family="Monaco,Monaco" font-size="16.5" fill="#6D6572" transform="matrix(1.00, 0.00, -0.00, -1.00, 331.8, 395.5)">_</text><text xml:space="preserve" font-family="Monaco,Monaco" font-size="16.5" fill="#6D6572" transform="matrix(1.00, 0.00, -0.00, -1.00, 341.7, 395.5)">e</text><text xml:space="preserve" font-family="Monaco,Monaco" font-size="16.5" fill="#6D6572" transform="matrix(1.00, 0.00, -0.00, -1.00, 351.6, 395.5)">m</text><text xml:space="preserve" font-family="Monaco,Monaco" font-size="16.5" fill="#6D6572" transform="matrix(1.00, 0.00, -0.00, -1.00, 361.5, 395.5)">a</text><text xml:space="preserve" font-family="Monaco,Monaco" font-size="16.5" fill="#6D6572" transform="matrix(1.00, 0.00, -0.00, -1.00, 371.4, 395.5)">i</text><text xml:space="preserve" font-family="Monaco,Monaco" font-size="16.5" fill="#6D6572" transform="matrix(1.00, 0.00, -0.00, -1.00, 381.3, 395.5)">l</text><text xml:space="preserve" font-family="Monaco,Monaco" font-size="16.5" fill="#6D6572" transform="matrix(1.00, 0.00, -0.00, -1.00, 391.2, 395.5)">_</text><text xml:space="preserve" font-family="Monaco,Monaco" font-size="16.5" fill="#6D6572" transform="matrix(1.00, 0.00, -0.00, -1.00, 401.1, 395.5)">f</text><text xml:space="preserve" font-family="Monaco,Monaco" font-size="16.5" fill="#6D6572" transform="matrix(1.00, 0.00, -0.00, -1.00, 411.0, 395.5)">r</text><text xml:space="preserve" font-family="Monaco,Monaco" font-size="16.5" fill="#6D6572" transform="matrix(1.00, 0.00, -0.00, -1.00, 420.9, 395.5)">o</text><text xml:space="preserve" font-family="Monaco,Monaco" font-size="16.5" fill="#6D6572" transform="matrix(1.00, 0.00, -0.00, -1.00, 430.8, 395.5)">m</text><text xml:space="preserve" font-family="Monaco,Monaco" font-size="16.5" fill="#6D6572" transform="matrix(1.00, 0.00, -0.00, -1.00, 440.7, 395.5)">_</text><text xml:space="preserve" font-family="Monaco,Monaco" font-size="16.5" fill="#6D6572" transform="matrix(1.00, 0.00, -0.00, -1.00, 450.6, 395.5)">c</text><text xml:space="preserve" font-family="Monaco,Monaco" font-size="16.5" fill="#6D6572" transform="matrix(1.00, 0.00, -0.00, -1.00, 460.5, 395.5)">o</text><text xml:space="preserve" font-family="Monaco,Monaco" font-size="16.5" fill="#6D6572" transform="matrix(1.00, 0.00, -0.00, -1.00, 470.4, 395.5)">n</text><text xml:space="preserve" font-family="Monaco,Monaco" font-size="16.5" fill="#6D6572" transform="matrix(1.00, 0.00, -0.00, -1.00, 480.3, 395.5)">t</text><text xml:space="preserve" font-family="Monaco,Monaco" font-size="16.5" fill="#6D6572" transform="matrix(1.00, 0.00, -0.00, -1.00, 490.2, 395.5)">a</text><text xml:space="preserve" font-family="Monaco,Monaco" font-size="16.5" fill="#6D6572" transform="matrix(1.00, 0.00, -0.00, -1.00, 500.1, 395.5)">c</text><text xml:space="preserve" font-family="Monaco,Monaco" font-size="16.5" fill="#6D6572" transform="matrix(1.00, 0.00, -0.00, -1.00, 510.0, 395.5)">t</text><text xml:space="preserve" font-family="Monaco,Monaco" font-size="16.5" fill="#6D6572" transform="matrix(1.00, 0.00, -0.00, -1.00, 519.9, 395.5)">s</text><text xml:space="preserve" font-family="Monaco,Monaco" font-size="16.5" fill="#6D6572" transform="matrix(1.00, 0.00, -0.00, -1.00, 529.8, 395.5)">.</text><text xml:space="preserve" font-family="Monaco,Monaco" font-size="16.5" fill="#6D6572" transform="matrix(1.00, 0.00, -0.00, -1.00, 539.7, 395.5)">r</text><text xml:space="preserve" font-family="Monaco,Monaco" font-size="16.5" fill="#6D6572" transform="matrix(1.00, 0.00, -0.00, -1.00, 549.6, 395.5)">b</text><text xml:space="preserve" font-family="Monaco,Monaco" font-size="16.5" fill="#6D6572" transform="matrix(1.00, 0.00, -0.00, -1.00, 559.6, 395.5)"> </text><text xml:space="preserve" font-family="Monaco,Monaco" font-size="16.5" fill="#000000" transform="matrix(1.00, 0.00, -0.00, -1.00, 104.0, 373.5)"> </text><text xml:space="preserve" font-family="Monaco,Monaco" font-size="16.5" fill="#8C5B48" transform="matrix(1.00, 0.00, -0.00, -1.00, 104.0, 351.5)">c</text><text xml:space="preserve" font-family="Monaco,Monaco" font-size="16.5" fill="#8C5B48" transform="matrix(1.00, 0.00, -0.00, -1.00, 113.9, 351.5)">l</text><text xml:space="preserve" font-family="Monaco,Monaco" font-size="16.5" fill="#8C5B48" transform="matrix(1.00, 0.00, -0.00, -1.00, 123.8, 351.5)">a</text><text xml:space="preserve" font-family="Monaco,Monaco" font-size="16.5" fill="#8C5B48" transform="matrix(1.00, 0.00, -0.00, -1.00, 133.7, 351.5)">s</text><text xml:space="preserve" font-family="Monaco,Monaco" font-size="16.5" fill="#8C5B48" transform="matrix(1.00, 0.00, -0.00, -1.00, 143.6, 351.5)">s</text><text xml:space="preserve" font-family="Monaco,Monaco" font-size="16.5" fill="#000000" transform="matrix(1.00, 0.00, -0.00, -1.00, 153.5, 351.5)"> </text><text xml:space="preserve" font-family="Monaco,Monaco" font-size="16.5" fill="#CC642E" transform="matrix(1.00, 0.00, -0.00, -1.00, 163.4, 351.5)">R</text><text xml:space="preserve" font-family="Monaco,Monaco" font-size="16.5" fill="#CC642E" transform="matrix(1.00, 0.00, -0.00, -1.00, 173.3, 351.5)">e</text><text xml:space="preserve" font-family="Monaco,Monaco" font-size="16.5" fill="#CC642E" transform="matrix(1.00, 0.00, -0.00, -1.00, 183.2, 351.5)">m</text><text xml:space="preserve" font-family="Monaco,Monaco" font-size="16.5" fill="#CC642E" transform="matrix(1.00, 0.00, -0.00, -1.00, 193.1, 351.5)">o</text><text xml:space="preserve" font-family="Monaco,Monaco" font-size="16.5" fill="#CC642E" transform="matrix(1.00, 0.00, -0.00, -1.00, 203.0, 351.5)">v</text><text xml:space="preserve" font-family="Monaco,Monaco" font-size="16.5" fill="#CC642E" transform="matrix(1.00, 0.00, -0.00, -1.00, 212.9, 351.5)">e</text><text xml:space="preserve" font-family="Monaco,Monaco" font-size="16.5" fill="#CC642E" transform="matrix(1.00, 0.00, -0.00, -1.00, 222.8, 351.5)">E</text><text xml:space="preserve" font-family="Monaco,Monaco" font-size="16.5" fill="#CC642E" transform="matrix(1.00, 0.00, -0.00, -1.00, 232.7, 351.5)">m</text><text xml:space="preserve" font-family="Monaco,Monaco" font-size="16.5" fill="#CC642E" transform="matrix(1.00, 0.00, -0.00, -1.00, 242.6, 351.5)">a</text><text xml:space="preserve" font-family="Monaco,Monaco" font-size="16.5" fill="#CC642E" transform="matrix(1.00, 0.00, -0.00, -1.00, 252.5, 351.5)">i</text><text xml:space="preserve" font-family="Monaco,Monaco" font-size="16.5" fill="#CC642E" transform="matrix(1.00, 0.00, -0.00, -1.00, 262.4, 351.5)">l</text><text xml:space="preserve" font-family="Monaco,Monaco" font-size="16.5" fill="#CC642E" transform="matrix(1.00, 0.00, -0.00, -1.00, 272.3, 351.5)">F</text><text xml:space="preserve" font-family="Monaco,Monaco" font-size="16.5" fill="#CC642E" transform="matrix(1.00, 0.00, -0.00, -1.00, 282.2, 351.5)">r</text><text xml:space="preserve" font-family="Monaco,Monaco" font-size="16.5" fill="#CC642E" transform="matrix(1.00, 0.00, -0.00, -1.00, 292.2, 351.5)">o</text><text xml:space="preserve" font-family="Monaco,Monaco" font-size="16.5" fill="#CC642E" transform="matrix(1.00, 0.00, -0.00, -1.00, 302.1, 351.5)">m</text><text xml:space="preserve" font-family="Monaco,Monaco" font-size="16.5" fill="#CC642E" transform="matrix(1.00, 0.00, -0.00, -1.00, 312.0, 351.5)">C</text><text xml:space="preserve" font-family="Monaco,Monaco" font-size="16.5" fill="#CC642E" transform="matrix(1.00, 0.00, -0.00, -1.00, 321.9, 351.5)">o</text><text xml:space="preserve" font-family="Monaco,Monaco" font-size="16.5" fill="#CC642E" transform="matrix(1.00, 0.00, -0.00, -1.00, 331.8, 351.5)">n</text><text xml:space="preserve" font-family="Monaco,Monaco" font-size="16.5" fill="#CC642E" transform="matrix(1.00, 0.00, -0.00, -1.00, 341.7, 351.5)">t</text><text xml:space="preserve" font-family="Monaco,Monaco" font-size="16.5" fill="#CC642E" transform="matrix(1.00, 0.00, -0.00, -1.00, 351.6, 351.5)">a</text><text xml:space="preserve" font-family="Monaco,Monaco" font-size="16.5" fill="#CC642E" transform="matrix(1.00, 0.00, -0.00, -1.00, 361.5, 351.5)">c</text><text xml:space="preserve" font-family="Monaco,Monaco" font-size="16.5" fill="#CC642E" transform="matrix(1.00, 0.00, -0.00, -1.00, 371.4, 351.5)">t</text><text xml:space="preserve" font-family="Monaco,Monaco" font-size="16.5" fill="#CC642E" transform="matrix(1.00, 0.00, -0.00, -1.00, 381.3, 351.5)">s</text><text xml:space="preserve" font-family="Monaco,Monaco" font-size="16.5" fill="#000000" transform="matrix(1.00, 0.00, -0.00, -1.00, 391.1, 351.5)"> </text><text xml:space="preserve" font-family="Monaco,Monaco" font-size="16.5" fill="#8C5B48" transform="matrix(1.00, 0.00, -0.00, -1.00, 401.0, 351.5)">&lt;</text><text xml:space="preserve" font-family="Monaco,Monaco" font-size="16.5" fill="#CC642E" transform="matrix(1.00, 0.00, -0.00, -1.00, 410.9, 351.5)"> </text><text xml:space="preserve" font-family="Monaco,Monaco" font-size="16.5" fill="#CC642E" transform="matrix(1.00, 0.00, -0.00, -1.00, 420.9, 351.5)">A</text><text xml:space="preserve" font-family="Monaco,Monaco" font-size="16.5" fill="#CC642E" transform="matrix(1.00, 0.00, -0.00, -1.00, 430.8, 351.5)">c</text><text xml:space="preserve" font-family="Monaco,Monaco" font-size="16.5" fill="#CC642E" transform="matrix(1.00, 0.00, -0.00, -1.00, 440.7, 351.5)">t</text><text xml:space="preserve" font-family="Monaco,Monaco" font-size="16.5" fill="#CC642E" transform="matrix(1.00, 0.00, -0.00, -1.00, 450.6, 351.5)">i</text><text xml:space="preserve" font-family="Monaco,Monaco" font-size="16.5" fill="#CC642E" transform="matrix(1.00, 0.00, -0.00, -1.00, 460.5, 351.5)">v</text><text xml:space="preserve" font-family="Monaco,Monaco" font-size="16.5" fill="#CC642E" transform="matrix(1.00, 0.00, -0.00, -1.00, 470.4, 351.5)">e</text><text xml:space="preserve" font-family="Monaco,Monaco" font-size="16.5" fill="#CC642E" transform="matrix(1.00, 0.00, -0.00, -1.00, 480.3, 351.5)">R</text><text xml:space="preserve" font-family="Monaco,Monaco" font-size="16.5" fill="#CC642E" transform="matrix(1.00, 0.00, -0.00, -1.00, 490.2, 351.5)">e</text><text xml:space="preserve" font-family="Monaco,Monaco" font-size="16.5" fill="#CC642E" transform="matrix(1.00, 0.00, -0.00, -1.00, 500.1, 351.5)">c</text><text xml:space="preserve" font-family="Monaco,Monaco" font-size="16.5" fill="#CC642E" transform="matrix(1.00, 0.00, -0.00, -1.00, 510.0, 351.5)">o</text><text xml:space="preserve" font-family="Monaco,Monaco" font-size="16.5" fill="#CC642E" transform="matrix(1.00, 0.00, -0.00, -1.00, 519.9, 351.5)">r</text><text xml:space="preserve" font-family="Monaco,Monaco" font-size="16.5" fill="#CC642E" transform="matrix(1.00, 0.00, -0.00, -1.00, 529.8, 351.5)">d</text><text xml:space="preserve" font-family="Monaco,Monaco" font-size="16.5" fill="#CC642E" transform="matrix(1.00, 0.00, -0.00, -1.00, 539.7, 351.5)">:</text><text xml:space="preserve" font-family="Monaco,Monaco" font-size="16.5" fill="#CC642E" transform="matrix(1.00, 0.00, -0.00, -1.00, 549.6, 351.5)">:</text><text xml:space="preserve" font-family="Monaco,Monaco" font-size="16.5" fill="#CC642E" transform="matrix(1.00, 0.00, -0.00, -1.00, 559.5, 351.5)">M</text><text xml:space="preserve" font-family="Monaco,Monaco" font-size="16.5" fill="#CC642E" transform="matrix(1.00, 0.00, -0.00, -1.00, 569.4, 351.5)">i</text><text xml:space="preserve" font-family="Monaco,Monaco" font-size="16.5" fill="#CC642E" transform="matrix(1.00, 0.00, -0.00, -1.00, 579.3, 351.5)">g</text><text xml:space="preserve" font-family="Monaco,Monaco" font-size="16.5" fill="#CC642E" transform="matrix(1.00, 0.00, -0.00, -1.00, 589.2, 351.5)">r</text><text xml:space="preserve" font-family="Monaco,Monaco" font-size="16.5" fill="#CC642E" transform="matrix(1.00, 0.00, -0.00, -1.00, 599.1, 351.5)">a</text><text xml:space="preserve" font-family="Monaco,Monaco" font-size="16.5" fill="#CC642E" transform="matrix(1.00, 0.00, -0.00, -1.00, 609.0, 351.5)">t</text><text xml:space="preserve" font-family="Monaco,Monaco" font-size="16.5" fill="#CC642E" transform="matrix(1.00, 0.00, -0.00, -1.00, 618.9, 351.5)">i</text><text xml:space="preserve" font-family="Monaco,Monaco" font-size="16.5" fill="#CC642E" transform="matrix(1.00, 0.00, -0.00, -1.00, 628.8, 351.5)">o</text><text xml:space="preserve" font-family="Monaco,Monaco" font-size="16.5" fill="#CC642E" transform="matrix(1.00, 0.00, -0.00, -1.00, 638.7, 351.5)">n</text><text xml:space="preserve" font-family="Monaco,Monaco" font-size="16.5" fill="#000000" transform="matrix(1.00, 0.00, -0.00, -1.00, 648.6, 351.5)"> </text><text xml:space="preserve" font-family="Monaco,Monaco" font-size="16.5" fill="#000000" transform="matrix(1.00, 0.00, -0.00, -1.00, 104.0, 329.5)"> </text><text xml:space="preserve" font-family="Monaco,Monaco" font-size="16.5" fill="#000000" transform="matrix(1.00, 0.00, -0.00, -1.00, 113.9, 329.5)"> </text><text xml:space="preserve" font-family="Monaco,Monaco" font-size="16.5" fill="#8C5B48" transform="matrix(1.00, 0.00, -0.00, -1.00, 123.8, 329.5)">d</text><text xml:space="preserve" font-family="Monaco,Monaco" font-size="16.5" fill="#8C5B48" transform="matrix(1.00, 0.00, -0.00, -1.00, 133.7, 329.5)">e</text><text xml:space="preserve" font-family="Monaco,Monaco" font-size="16.5" fill="#8C5B48" transform="matrix(1.00, 0.00, -0.00, -1.00, 143.6, 329.5)">f</text><text xml:space="preserve" font-family="Monaco,Monaco" font-size="16.5" fill="#000000" transform="matrix(1.00, 0.00, -0.00, -1.00, 153.5, 329.5)"> </text><text xml:space="preserve" font-family="Monaco,Monaco" font-size="16.5" fill="#CC642E" transform="matrix(1.00, 0.00, -0.00, -1.00, 163.4, 329.5)">s</text><text xml:space="preserve" font-family="Monaco,Monaco" font-size="16.5" fill="#CC642E" transform="matrix(1.00, 0.00, -0.00, -1.00, 173.3, 329.5)">e</text><text xml:space="preserve" font-family="Monaco,Monaco" font-size="16.5" fill="#CC642E" transform="matrix(1.00, 0.00, -0.00, -1.00, 183.2, 329.5)">l</text><text xml:space="preserve" font-family="Monaco,Monaco" font-size="16.5" fill="#CC642E" transform="matrix(1.00, 0.00, -0.00, -1.00, 193.1, 329.5)">f</text><text xml:space="preserve" font-family="Monaco,Monaco" font-size="16.5" fill="#CC642E" transform="matrix(1.00, 0.00, -0.00, -1.00, 203.0, 329.5)">.</text><text xml:space="preserve" font-family="Monaco,Monaco" font-size="16.5" fill="#CC642E" transform="matrix(1.00, 0.00, -0.00, -1.00, 212.9, 329.5)">u</text><text xml:space="preserve" font-family="Monaco,Monaco" font-size="16.5" fill="#CC642E" transform="matrix(1.00, 0.00, -0.00, -1.00, 222.8, 329.5)">p</text><text xml:space="preserve" font-family="Monaco,Monaco" font-size="16.5" fill="#000000" transform="matrix(1.00, 0.00, -0.00, -1.00, 232.7, 329.5)"> </text><text xml:space="preserve" font-family="Monaco,Monaco" font-size="16.5" fill="#000000" transform="matrix(1.00, 0.00, -0.00, -1.00, 104.0, 307.5)"> </text><text xml:space="preserve" font-family="Monaco,Monaco" font-size="16.5" fill="#000000" transform="matrix(1.00, 0.00, -0.00, -1.00, 113.9, 307.5)"> </text><text xml:space="preserve" font-family="Monaco,Monaco" font-size="16.5" fill="#000000" transform="matrix(1.00, 0.00, -0.00, -1.00, 123.8, 307.5)"> </text><text xml:space="preserve" font-family="Monaco,Monaco" font-size="16.5" fill="#000000" transform="matrix(1.00, 0.00, -0.00, -1.00, 133.7, 307.5)"> </text><text xml:space="preserve" font-family="Monaco,Monaco" font-size="16.5" fill="#000000" transform="matrix(1.00, 0.00, -0.00, -1.00, 143.6, 307.5)">r</text><text xml:space="preserve" font-family="Monaco,Monaco" font-size="16.5" fill="#000000" transform="matrix(1.00, 0.00, -0.00, -1.00, 153.5, 307.5)">e</text><text xml:space="preserve" font-family="Monaco,Monaco" font-size="16.5" fill="#000000" transform="matrix(1.00, 0.00, -0.00, -1.00, 163.4, 307.5)">m</text><text xml:space="preserve" font-family="Monaco,Monaco" font-size="16.5" fill="#000000" transform="matrix(1.00, 0.00, -0.00, -1.00, 173.3, 307.5)">o</text><text xml:space="preserve" font-family="Monaco,Monaco" font-size="16.5" fill="#000000" transform="matrix(1.00, 0.00, -0.00, -1.00, 183.2, 307.5)">v</text><text xml:space="preserve" font-family="Monaco,Monaco" font-size="16.5" fill="#000000" transform="matrix(1.00, 0.00, -0.00, -1.00, 193.1, 307.5)">e</text><text xml:space="preserve" font-family="Monaco,Monaco" font-size="16.5" fill="#000000" transform="matrix(1.00, 0.00, -0.00, -1.00, 203.0, 307.5)">_</text><text xml:space="preserve" font-family="Monaco,Monaco" font-size="16.5" fill="#000000" transform="matrix(1.00, 0.00, -0.00, -1.00, 212.9, 307.5)">c</text><text xml:space="preserve" font-family="Monaco,Monaco" font-size="16.5" fill="#000000" transform="matrix(1.00, 0.00, -0.00, -1.00, 222.8, 307.5)">o</text><text xml:space="preserve" font-family="Monaco,Monaco" font-size="16.5" fill="#000000" transform="matrix(1.00, 0.00, -0.00, -1.00, 232.7, 307.5)">l</text><text xml:space="preserve" font-family="Monaco,Monaco" font-size="16.5" fill="#000000" transform="matrix(1.00, 0.00, -0.00, -1.00, 242.6, 307.5)">u</text><text xml:space="preserve" font-family="Monaco,Monaco" font-size="16.5" fill="#000000" transform="matrix(1.00, 0.00, -0.00, -1.00, 252.5, 307.5)">m</text><text xml:space="preserve" font-family="Monaco,Monaco" font-size="16.5" fill="#000000" transform="matrix(1.00, 0.00, -0.00, -1.00, 262.5, 307.5)">n</text><text xml:space="preserve" font-family="Monaco,Monaco" font-size="16.5" fill="#000000" transform="matrix(1.00, 0.00, -0.00, -1.00, 272.4, 307.5)"> </text><text xml:space="preserve" font-family="Monaco,Monaco" font-size="16.5" fill="#942E2F" transform="matrix(1.00, 0.00, -0.00, -1.00, 282.2, 307.5)">:</text><text xml:space="preserve" font-family="Monaco,Monaco" font-size="16.5" fill="#942E2F" transform="matrix(1.00, 0.00, -0.00, -1.00, 292.1, 307.5)">c</text><text xml:space="preserve" font-family="Monaco,Monaco" font-size="16.5" fill="#942E2F" transform="matrix(1.00, 0.00, -0.00, -1.00, 302.0, 307.5)">o</text><text xml:space="preserve" font-family="Monaco,Monaco" font-size="16.5" fill="#942E2F" transform="matrix(1.00, 0.00, -0.00, -1.00, 311.9, 307.5)">n</text><text xml:space="preserve" font-family="Monaco,Monaco" font-size="16.5" fill="#942E2F" transform="matrix(1.00, 0.00, -0.00, -1.00, 321.8, 307.5)">t</text><text xml:space="preserve" font-family="Monaco,Monaco" font-size="16.5" fill="#942E2F" transform="matrix(1.00, 0.00, -0.00, -1.00, 331.7, 307.5)">a</text><text xml:space="preserve" font-family="Monaco,Monaco" font-size="16.5" fill="#942E2F" transform="matrix(1.00, 0.00, -0.00, -1.00, 341.6, 307.5)">c</text><text xml:space="preserve" font-family="Monaco,Monaco" font-size="16.5" fill="#942E2F" transform="matrix(1.00, 0.00, -0.00, -1.00, 351.6, 307.5)">t</text><text xml:space="preserve" font-family="Monaco,Monaco" font-size="16.5" fill="#942E2F" transform="matrix(1.00, 0.00, -0.00, -1.00, 361.5, 307.5)">s</text><text xml:space="preserve" font-family="Monaco,Monaco" font-size="16.5" fill="#8C5B48" transform="matrix(1.00, 0.00, -0.00, -1.00, 371.3, 307.5)">,</text><text xml:space="preserve" font-family="Monaco,Monaco" font-size="16.5" fill="#000000" transform="matrix(1.00, 0.00, -0.00, -1.00, 381.2, 307.5)"> </text><text xml:space="preserve" font-family="Monaco,Monaco" font-size="16.5" fill="#942E2F" transform="matrix(1.00, 0.00, -0.00, -1.00, 391.1, 307.5)">:</text><text xml:space="preserve" font-family="Monaco,Monaco" font-size="16.5" fill="#942E2F" transform="matrix(1.00, 0.00, -0.00, -1.00, 401.0, 307.5)">e</text><text xml:space="preserve" font-family="Monaco,Monaco" font-size="16.5" fill="#942E2F" transform="matrix(1.00, 0.00, -0.00, -1.00, 411.0, 307.5)">m</text><text xml:space="preserve" font-family="Monaco,Monaco" font-size="16.5" fill="#942E2F" transform="matrix(1.00, 0.00, -0.00, -1.00, 420.9, 307.5)">a</text><text xml:space="preserve" font-family="Monaco,Monaco" font-size="16.5" fill="#942E2F" transform="matrix(1.00, 0.00, -0.00, -1.00, 430.8, 307.5)">i</text><text xml:space="preserve" font-family="Monaco,Monaco" font-size="16.5" fill="#942E2F" transform="matrix(1.00, 0.00, -0.00, -1.00, 440.7, 307.5)">l</text><text xml:space="preserve" font-family="Monaco,Monaco" font-size="16.5" fill="#000000" transform="matrix(1.00, 0.00, -0.00, -1.00, 450.6, 307.5)"> </text><text xml:space="preserve" font-family="Monaco,Monaco" font-size="16.5" fill="#000000" transform="matrix(1.00, 0.00, -0.00, -1.00, 104.0, 285.5)"> </text><text xml:space="preserve" font-family="Monaco,Monaco" font-size="16.5" fill="#000000" transform="matrix(1.00, 0.00, -0.00, -1.00, 113.9, 285.5)"> </text><text xml:space="preserve" font-family="Monaco,Monaco" font-size="16.5" fill="#8C5B48" transform="matrix(1.00, 0.00, -0.00, -1.00, 123.8, 285.5)">e</text><text xml:space="preserve" font-family="Monaco,Monaco" font-size="16.5" fill="#8C5B48" transform="matrix(1.00, 0.00, -0.00, -1.00, 133.7, 285.5)">n</text><text xml:space="preserve" font-family="Monaco,Monaco" font-size="16.5" fill="#8C5B48" transform="matrix(1.00, 0.00, -0.00, -1.00, 143.6, 285.5)">d</text><text xml:space="preserve" font-family="Monaco,Monaco" font-size="16.5" fill="#000000" transform="matrix(1.00, 0.00, -0.00, -1.00, 153.5, 285.5)"> </text><text xml:space="preserve" font-family="Monaco,Monaco" font-size="16.5" fill="#000000" transform="matrix(1.00, 0.00, -0.00, -1.00, 104.0, 263.5)"> </text><text xml:space="preserve" font-family="Monaco,Monaco" font-size="16.5" fill="#000000" transform="matrix(1.00, 0.00, -0.00, -1.00, 104.0, 241.5)"> </text><text xml:space="preserve" font-family="Monaco,Monaco" font-size="16.5" fill="#000000" transform="matrix(1.00, 0.00, -0.00, -1.00, 113.9, 241.5)"> </text><text xml:space="preserve" font-family="Monaco,Monaco" font-size="16.5" fill="#8C5B48" transform="matrix(1.00, 0.00, -0.00, -1.00, 123.8, 241.5)">d</text><text xml:space="preserve" font-family="Monaco,Monaco" font-size="16.5" fill="#8C5B48" transform="matrix(1.00, 0.00, -0.00, -1.00, 133.7, 241.5)">e</text><text xml:space="preserve" font-family="Monaco,Monaco" font-size="16.5" fill="#8C5B48" transform="matrix(1.00, 0.00, -0.00, -1.00, 143.6, 241.5)">f</text><text xml:space="preserve" font-family="Monaco,Monaco" font-size="16.5" fill="#000000" transform="matrix(1.00, 0.00, -0.00, -1.00, 153.5, 241.5)"> </text><text xml:space="preserve" font-family="Monaco,Monaco" font-size="16.5" fill="#CC642E" transform="matrix(1.00, 0.00, -0.00, -1.00, 163.4, 241.5)">s</text><text xml:space="preserve" font-family="Monaco,Monaco" font-size="16.5" fill="#CC642E" transform="matrix(1.00, 0.00, -0.00, -1.00, 173.3, 241.5)">e</text><text xml:space="preserve" font-family="Monaco,Monaco" font-size="16.5" fill="#CC642E" transform="matrix(1.00, 0.00, -0.00, -1.00, 183.2, 241.5)">l</text><text xml:space="preserve" font-family="Monaco,Monaco" font-size="16.5" fill="#CC642E" transform="matrix(1.00, 0.00, -0.00, -1.00, 193.1, 241.5)">f</text><text xml:space="preserve" font-family="Monaco,Monaco" font-size="16.5" fill="#CC642E" transform="matrix(1.00, 0.00, -0.00, -1.00, 203.0, 241.5)">.</text><text xml:space="preserve" font-family="Monaco,Monaco" font-size="16.5" fill="#CC642E" transform="matrix(1.00, 0.00, -0.00, -1.00, 212.9, 241.5)">d</text><text xml:space="preserve" font-family="Monaco,Monaco" font-size="16.5" fill="#CC642E" transform="matrix(1.00, 0.00, -0.00, -1.00, 222.8, 241.5)">o</text><text xml:space="preserve" font-family="Monaco,Monaco" font-size="16.5" fill="#CC642E" transform="matrix(1.00, 0.00, -0.00, -1.00, 232.7, 241.5)">w</text><text xml:space="preserve" font-family="Monaco,Monaco" font-size="16.5" fill="#CC642E" transform="matrix(1.00, 0.00, -0.00, -1.00, 242.6, 241.5)">n</text><text xml:space="preserve" font-family="Monaco,Monaco" font-size="16.5" fill="#000000" transform="matrix(1.00, 0.00, -0.00, -1.00, 252.5, 241.5)"> </text><text xml:space="preserve" font-family="Monaco,Monaco" font-size="16.5" fill="#000000" transform="matrix(1.00, 0.00, -0.00, -1.00, 104.0, 219.5)"> </text><text xml:space="preserve" font-family="Monaco,Monaco" font-size="16.5" fill="#000000" transform="matrix(1.00, 0.00, -0.00, -1.00, 113.9, 219.5)"> </text><text xml:space="preserve" font-family="Monaco,Monaco" font-size="16.5" fill="#000000" transform="matrix(1.00, 0.00, -0.00, -1.00, 123.8, 219.5)"> </text><text xml:space="preserve" font-family="Monaco,Monaco" font-size="16.5" fill="#000000" transform="matrix(1.00, 0.00, -0.00, -1.00, 133.7, 219.5)"> </text><text xml:space="preserve" font-family="Monaco,Monaco" font-size="16.5" fill="#000000" transform="matrix(1.00, 0.00, -0.00, -1.00, 143.6, 219.5)">a</text><text xml:space="preserve" font-family="Monaco,Monaco" font-size="16.5" fill="#000000" transform="matrix(1.00, 0.00, -0.00, -1.00, 153.5, 219.5)">d</text><text xml:space="preserve" font-family="Monaco,Monaco" font-size="16.5" fill="#000000" transform="matrix(1.00, 0.00, -0.00, -1.00, 163.4, 219.5)">d</text><text xml:space="preserve" font-family="Monaco,Monaco" font-size="16.5" fill="#000000" transform="matrix(1.00, 0.00, -0.00, -1.00, 173.3, 219.5)">_</text><text xml:space="preserve" font-family="Monaco,Monaco" font-size="16.5" fill="#000000" transform="matrix(1.00, 0.00, -0.00, -1.00, 183.2, 219.5)">c</text><text xml:space="preserve" font-family="Monaco,Monaco" font-size="16.5" fill="#000000" transform="matrix(1.00, 0.00, -0.00, -1.00, 193.1, 219.5)">o</text><text xml:space="preserve" font-family="Monaco,Monaco" font-size="16.5" fill="#000000" transform="matrix(1.00, 0.00, -0.00, -1.00, 203.0, 219.5)">l</text><text xml:space="preserve" font-family="Monaco,Monaco" font-size="16.5" fill="#000000" transform="matrix(1.00, 0.00, -0.00, -1.00, 212.9, 219.5)">u</text><text xml:space="preserve" font-family="Monaco,Monaco" font-size="16.5" fill="#000000" transform="matrix(1.00, 0.00, -0.00, -1.00, 222.8, 219.5)">m</text><text xml:space="preserve" font-family="Monaco,Monaco" font-size="16.5" fill="#000000" transform="matrix(1.00, 0.00, -0.00, -1.00, 232.7, 219.5)">n</text><text xml:space="preserve" font-family="Monaco,Monaco" font-size="16.5" fill="#000000" transform="matrix(1.00, 0.00, -0.00, -1.00, 242.6, 219.5)"> </text><text xml:space="preserve" font-family="Monaco,Monaco" font-size="16.5" fill="#942E2F" transform="matrix(1.00, 0.00, -0.00, -1.00, 252.5, 219.5)">:</text><text xml:space="preserve" font-family="Monaco,Monaco" font-size="16.5" fill="#942E2F" transform="matrix(1.00, 0.00, -0.00, -1.00, 262.4, 219.5)">c</text><text xml:space="preserve" font-family="Monaco,Monaco" font-size="16.5" fill="#942E2F" transform="matrix(1.00, 0.00, -0.00, -1.00, 272.3, 219.5)">o</text><text xml:space="preserve" font-family="Monaco,Monaco" font-size="16.5" fill="#942E2F" transform="matrix(1.00, 0.00, -0.00, -1.00, 282.2, 219.5)">n</text><text xml:space="preserve" font-family="Monaco,Monaco" font-size="16.5" fill="#942E2F" transform="matrix(1.00, 0.00, -0.00, -1.00, 292.1, 219.5)">t</text><text xml:space="preserve" font-family="Monaco,Monaco" font-size="16.5" fill="#942E2F" transform="matrix(1.00, 0.00, -0.00, -1.00, 302.0, 219.5)">a</text><text xml:space="preserve" font-family="Monaco,Monaco" font-size="16.5" fill="#942E2F" transform="matrix(1.00, 0.00, -0.00, -1.00, 311.9, 219.5)">c</text><text xml:space="preserve" font-family="Monaco,Monaco" font-size="16.5" fill="#942E2F" transform="matrix(1.00, 0.00, -0.00, -1.00, 321.8, 219.5)">t</text><text xml:space="preserve" font-family="Monaco,Monaco" font-size="16.5" fill="#942E2F" transform="matrix(1.00, 0.00, -0.00, -1.00, 331.8, 219.5)">s</text><text xml:space="preserve" font-family="Monaco,Monaco" font-size="16.5" fill="#8C5B48" transform="matrix(1.00, 0.00, -0.00, -1.00, 341.6, 219.5)">,</text><text xml:space="preserve" font-family="Monaco,Monaco" font-size="16.5" fill="#000000" transform="matrix(1.00, 0.00, -0.00, -1.00, 351.5, 219.5)"> </text><text xml:space="preserve" font-family="Monaco,Monaco" font-size="16.5" fill="#942E2F" transform="matrix(1.00, 0.00, -0.00, -1.00, 361.4, 219.5)">:</text><text xml:space="preserve" font-family="Monaco,Monaco" font-size="16.5" fill="#942E2F" transform="matrix(1.00, 0.00, -0.00, -1.00, 371.3, 219.5)">e</text><text xml:space="preserve" font-family="Monaco,Monaco" font-size="16.5" fill="#942E2F" transform="matrix(1.00, 0.00, -0.00, -1.00, 381.2, 219.5)">m</text><text xml:space="preserve" font-family="Monaco,Monaco" font-size="16.5" fill="#942E2F" transform="matrix(1.00, 0.00, -0.00, -1.00, 391.2, 219.5)">a</text><text xml:space="preserve" font-family="Monaco,Monaco" font-size="16.5" fill="#942E2F" transform="matrix(1.00, 0.00, -0.00, -1.00, 401.1, 219.5)">i</text><text xml:space="preserve" font-family="Monaco,Monaco" font-size="16.5" fill="#942E2F" transform="matrix(1.00, 0.00, -0.00, -1.00, 411.0, 219.5)">l</text><text xml:space="preserve" font-family="Monaco,Monaco" font-size="16.5" fill="#8C5B48" transform="matrix(1.00, 0.00, -0.00, -1.00, 420.9, 219.5)">,</text><text xml:space="preserve" font-family="Monaco,Monaco" font-size="16.5" fill="#000000" transform="matrix(1.00, 0.00, -0.00, -1.00, 430.8, 219.5)"> </text><text xml:space="preserve" font-family="Monaco,Monaco" font-size="16.5" fill="#942E2F" transform="matrix(1.00, 0.00, -0.00, -1.00, 440.7, 219.5)">:</text><text xml:space="preserve" font-family="Monaco,Monaco" font-size="16.5" fill="#942E2F" transform="matrix(1.00, 0.00, -0.00, -1.00, 450.6, 219.5)">s</text><text xml:space="preserve" font-family="Monaco,Monaco" font-size="16.5" fill="#942E2F" transform="matrix(1.00, 0.00, -0.00, -1.00, 460.5, 219.5)">t</text><text xml:space="preserve" font-family="Monaco,Monaco" font-size="16.5" fill="#942E2F" transform="matrix(1.00, 0.00, -0.00, -1.00, 470.4, 219.5)">r</text><text xml:space="preserve" font-family="Monaco,Monaco" font-size="16.5" fill="#942E2F" transform="matrix(1.00, 0.00, -0.00, -1.00, 480.3, 219.5)">i</text><text xml:space="preserve" font-family="Monaco,Monaco" font-size="16.5" fill="#942E2F" transform="matrix(1.00, 0.00, -0.00, -1.00, 490.2, 219.5)">n</text><text xml:space="preserve" font-family="Monaco,Monaco" font-size="16.5" fill="#942E2F" transform="matrix(1.00, 0.00, -0.00, -1.00, 500.1, 219.5)">g</text><text xml:space="preserve" font-family="Monaco,Monaco" font-size="16.5" fill="#000000" transform="matrix(1.00, 0.00, -0.00, -1.00, 510.0, 219.5)"> </text><text xml:space="preserve" font-family="Monaco,Monaco" font-size="16.5" fill="#000000" transform="matrix(1.00, 0.00, -0.00, -1.00, 104.0, 197.5)"> </text><text xml:space="preserve" font-family="Monaco,Monaco" font-size="16.5" fill="#000000" transform="matrix(1.00, 0.00, -0.00, -1.00, 113.9, 197.5)"> </text><text xml:space="preserve" font-family="Monaco,Monaco" font-size="16.5" fill="#8C5B48" transform="matrix(1.00, 0.00, -0.00, -1.00, 123.8, 197.5)">e</text><text xml:space="preserve" font-family="Monaco,Monaco" font-size="16.5" fill="#8C5B48" transform="matrix(1.00, 0.00, -0.00, -1.00, 133.7, 197.5)">n</text><text xml:space="preserve" font-family="Monaco,Monaco" font-size="16.5" fill="#8C5B48" transform="matrix(1.00, 0.00, -0.00, -1.00, 143.6, 197.5)">d</text><text xml:space="preserve" font-family="Monaco,Monaco" font-size="16.5" fill="#000000" transform="matrix(1.00, 0.00, -0.00, -1.00, 153.5, 197.5)"> </text><text xml:space="preserve" font-family="Monaco,Monaco" font-size="16.5" fill="#8C5B48" transform="matrix(1.00, 0.00, -0.00, -1.00, 104.0, 175.5)">e</text><text xml:space="preserve" font-family="Monaco,Monaco" font-size="16.5" fill="#8C5B48" transform="matrix(1.00, 0.00, -0.00, -1.00, 113.9, 175.5)">n</text><text xml:space="preserve" font-family="Monaco,Monaco" font-size="16.5" fill="#8C5B48" transform="matrix(1.00, 0.00, -0.00, -1.00, 123.8, 175.5)">d</text><text xml:space="preserve" font-family="Monaco,Monaco" font-size="16.5" fill="#000000" transform="matrix(1.00, 0.00, -0.00, -1.00, 133.7, 175.5)"> </text></g></svg>