<?xml version="1.0" encoding="UTF-8" standalone="no"?><svg xmlns="http://www.w3.org/2000/svg" xmlns:xlink="http://www.w3.org/1999/xlink" clip-rule="evenodd" stroke-miterlimit="10" viewBox="0 0 1024 768"><desc>SVG generated by Keynote</desc><defs></defs><g transform="matrix(1.00, 0.00, -0.00, -1.00, 0.0, 768.0)"><path d="M 0.0 768.0 L 1024.0 768.0 L 1024.0 0.0 L 0.0 0.0 Z M 0.0 768.0 " fill="#FEFFFF"></path><text xml:space="preserve" font-family="GillSans,Gill Sans" font-size="84.0" fill="#000000" transform="matrix(1.00, 0.00, -0.00, -1.00, 338.1, 402.4)">S</text><text xml:space="preserve" font-family="GillSans,Gill Sans" font-size="84.0" fill="#000000" transform="matrix(1.00, 0.00, -0.00, -1.00, 376.6, 402.4)">e</text><text xml:space="preserve" font-family="GillSans,Gill Sans" font-size="84.0" fill="#000000" transform="matrix(1.00, 0.00, -0.00, -1.00, 416.8, 402.4)">e</text><text xml:space="preserve" font-family="GillSans,Gill Sans" font-size="84.0" fill="#000000" transform="matrix(1.00, 0.00, -0.00, -1.00, 457.1, 402.4)">d</text><text xml:space="preserve" font-family="GillSans,Gill Sans" font-size="84.0" fill="#000000" transform="matrix(1.00, 0.00, -0.00, -1.00, 499.9, 402.4)"> </text><text xml:space="preserve" font-family="GillSans,Gill Sans" font-size="84.0" fill="#000000" transform="matrix(1.00, 0.00, -0.00, -1.00, 523.2, 402.4)">D</text><text xml:space="preserve" font-family="GillSans,Gill Sans" font-size="84.0" fill="#000000" transform="matrix(1.00, 0.00, -0.00, -1.00, 586.2, 402.4)">a</text><text xml:space="preserve" font-family="GillSans,Gill Sans" font-size="84.0" fill="#000000" transform="matrix(1.00, 0.00, -0.00, -1.00, 622.0, 402.4)">t</text><text xml:space="preserve" font-family="GillSans,Gill Sans" font-size="84.0" fill="#000000" transform="matrix(1.00, 0.00, -0.00, -1.00, 650.0, 402.4)">a</text><text xml:space="preserve" font-family="GillSans,Gill Sans" font-size="36.0" fill="#000000" transform="matrix(1.00, 0.00, -0.00, -1.00, 369.3, 335.3)">I</text><text xml:space="preserve" font-family="GillSans,Gill Sans" font-size="36.0" fill="#000000" transform="matrix(1.00, 0.00, -0.00, -1.00, 378.3, 335.3)">f</text><text xml:space="preserve" font-family="GillSans,Gill Sans" font-size="36.0" fill="#000000" transform="matrix(1.00, 0.00, -0.00, -1.00, 387.3, 335.3)"> </text><text xml:space="preserve" font-family="GillSans,Gill Sans" font-size="36.0" fill="#000000" transform="matrix(1.00, 0.00, -0.00, -1.00, 397.3, 335.3)">y</text><text xml:space="preserve" font-family="GillSans,Gill Sans" font-size="36.0" fill="#000000" transform="matrix(1.00, 0.00, -0.00, -1.00, 412.3, 335.3)">o</text><text xml:space="preserve" font-family="GillSans,Gill Sans" font-size="36.0" fill="#000000" transform="matrix(1.00, 0.00, -0.00, -1.00, 432.2, 335.3)">u</text><text xml:space="preserve" font-family="GillSans,Gill Sans" font-size="36.0" fill="#000000" transform="matrix(1.00, 0.00, -0.00, -1.00, 450.2, 335.3)">’</text><text xml:space="preserve" font-family="GillSans,Gill Sans" font-size="36.0" fill="#000000" transform="matrix(1.00, 0.00, -0.00, -1.00, 455.2, 335.3)">r</text><text xml:space="preserve" font-family="GillSans,Gill Sans" font-size="36.0" fill="#000000" transform="matrix(1.00, 0.00, -0.00, -1.00, 468.7, 335.3)">e</text><text xml:space="preserve" font-family="GillSans,Gill Sans" font-size="36.0" fill="#000000" transform="matrix(1.00, 0.00, -0.00, -1.00, 486.0, 335.3)"> </text><text xml:space="preserve" font-family="GillSans,Gill Sans" font-size="36.0" fill="#000000" transform="matrix(1.00, 0.00, -0.00, -1.00, 496.0, 335.3)">i</text><text xml:space="preserve" font-family="GillSans,Gill Sans" font-size="36.0" fill="#000000" transform="matrix(1.00, 0.00, -0.00, -1.00, 503.9, 335.3)">n</text><text xml:space="preserve" font-family="GillSans,Gill Sans" font-size="36.0" fill="#000000" transform="matrix(1.00, 0.00, -0.00, -1.00, 521.9, 335.3)"> </text><text xml:space="preserve" font-family="GillSans,Gill Sans" font-size="36.0" fill="#000000" transform="matrix(1.00, 0.00, -0.00, -1.00, 531.9, 335.3)">t</text><text xml:space="preserve" font-family="GillSans,Gill Sans" font-size="36.0" fill="#000000" transform="matrix(1.00, 0.00, -0.00, -1.00, 543.8, 335.3)">o</text><text xml:space="preserve" font-family="GillSans,Gill Sans" font-size="36.0" fill="#000000" transform="matrix(1.00, 0.00, -0.00, -1.00, 563.7, 335.3)"> </text><text xml:space="preserve" font-family="GillSans,Gill Sans" font-size="36.0" fill="#000000" transform="matrix(1.00, 0.00, -0.00, -1.00, 573.7, 335.3)">t</text><text xml:space="preserve" font-family="GillSans,Gill Sans" font-size="36.0" fill="#000000" transform="matrix(1.00, 0.00, -0.00, -1.00, 585.7, 335.3)">h</text><text xml:space="preserve" font-family="GillSans,Gill Sans" font-size="36.0" fill="#000000" transform="matrix(1.00, 0.00, -0.00, -1.00, 603.7, 335.3)">a</text><text xml:space="preserve" font-family="GillSans,Gill Sans" font-size="36.0" fill="#000000" transform="matrix(1.00, 0.00, -0.00, -1.00, 619.0, 335.3)">t</text><text xml:space="preserve" font-family="GillSans,Gill Sans" font-size="36.0" fill="#000000" transform="matrix(1.00, 0.00, -0.00, -1.00, 631.0, 335.3)">.</text><text xml:space="preserve" font-family="GillSans,Gill Sans" font-size="36.0" fill="#000000" transform="matrix(1.00, 0.00, -0.00, -1.00, 638.9, 335.3)">.</text><text xml:space="preserve" font-family="GillSans,Gill Sans" font-size="36.0" fill="#000000" transform="matrix(1.00, 0.00, -0.00, -1.00, 646.8, 335.3)">.</text></g></svg>