<?xml version="1.0" encoding="UTF-8" standalone="no"?><svg xmlns="http://www.w3.org/2000/svg" xmlns:xlink="http://www.w3.org/1999/xlink" clip-rule="evenodd" stroke-miterlimit="10" viewBox="0 0 1024 768"><desc>SVG generated by Keynote</desc><defs></defs><g transform="matrix(1.00, 0.00, -0.00, -1.00, 0.0, 768.0)"><path d="M 0.0 768.0 L 1024.0 768.0 L 1024.0 0.0 L 0.0 0.0 Z M 0.0 768.0 " fill="#FEFFFF"></path><text xml:space="preserve" font-family="GillSans,Gill Sans" font-size="84.0" fill="#000000" transform="matrix(1.00, 0.00, -0.00, -1.00, 175.0, 623.4)">C</text><text xml:space="preserve" font-family="GillSans,Gill Sans" font-size="84.0" fill="#000000" transform="matrix(1.00, 0.00, -0.00, -1.00, 234.5, 623.4)">r</text><text xml:space="preserve" font-family="GillSans,Gill Sans" font-size="84.0" fill="#000000" transform="matrix(1.00, 0.00, -0.00, -1.00, 266.1, 623.4)">e</text><text xml:space="preserve" font-family="GillSans,Gill Sans" font-size="84.0" fill="#000000" transform="matrix(1.00, 0.00, -0.00, -1.00, 306.3, 623.4)">a</text><text xml:space="preserve" font-family="GillSans,Gill Sans" font-size="84.0" fill="#000000" transform="matrix(1.00, 0.00, -0.00, -1.00, 342.1, 623.4)">t</text><text xml:space="preserve" font-family="GillSans,Gill Sans" font-size="84.0" fill="#000000" transform="matrix(1.00, 0.00, -0.00, -1.00, 370.1, 623.4)">e</text><text xml:space="preserve" font-family="GillSans,Gill Sans" font-size="84.0" fill="#000000" transform="matrix(1.00, 0.00, -0.00, -1.00, 410.3, 623.4)"> </text><text xml:space="preserve" font-family="GillSans,Gill Sans" font-size="84.0" fill="#000000" transform="matrix(1.00, 0.00, -0.00, -1.00, 433.6, 623.4)">L</text><text xml:space="preserve" font-family="GillSans,Gill Sans" font-size="84.0" fill="#000000" transform="matrix(1.00, 0.00, -0.00, -1.00, 474.8, 623.4)">o</text><text xml:space="preserve" font-family="GillSans,Gill Sans" font-size="84.0" fill="#000000" transform="matrix(1.00, 0.00, -0.00, -1.00, 521.2, 623.4)">c</text><text xml:space="preserve" font-family="GillSans,Gill Sans" font-size="84.0" fill="#000000" transform="matrix(1.00, 0.00, -0.00, -1.00, 558.0, 623.4)">a</text><text xml:space="preserve" font-family="GillSans,Gill Sans" font-size="84.0" fill="#000000" transform="matrix(1.00, 0.00, -0.00, -1.00, 593.8, 623.4)">l</text><text xml:space="preserve" font-family="GillSans,Gill Sans" font-size="84.0" fill="#000000" transform="matrix(1.00, 0.00, -0.00, -1.00, 612.2, 623.4)"> </text><text xml:space="preserve" font-family="GillSans,Gill Sans" font-size="84.0" fill="#000000" transform="matrix(1.00, 0.00, -0.00, -1.00, 635.6, 623.4)">M</text><text xml:space="preserve" font-family="GillSans,Gill Sans" font-size="84.0" fill="#000000" transform="matrix(1.00, 0.00, -0.00, -1.00, 701.1, 623.4)">o</text><text xml:space="preserve" font-family="GillSans,Gill Sans" font-size="84.0" fill="#000000" transform="matrix(1.00, 0.00, -0.00, -1.00, 747.4, 623.4)">d</text><text xml:space="preserve" font-family="GillSans,Gill Sans" font-size="84.0" fill="#000000" transform="matrix(1.00, 0.00, -0.00, -1.00, 790.3, 623.4)">e</text><text xml:space="preserve" font-family="GillSans,Gill Sans" font-size="84.0" fill="#000000" transform="matrix(1.00, 0.00, -0.00, -1.00, 830.5, 623.4)">l</text><text xml:space="preserve" font-family="GillSans,Gill Sans" font-size="42.0" fill="#000000" transform="matrix(1.00, 0.00, -0.00, -1.00, 149.0, 346.7)">+</text><text xml:space="preserve" font-family="GillSans,Gill Sans" font-size="42.0" fill="#000000" transform="matrix(1.00, 0.00, -0.00, -1.00, 173.5, 346.7)"> </text><text xml:space="preserve" font-family="GillSans,Gill Sans" font-size="42.0" fill="#000000" transform="matrix(1.00, 0.00, -0.00, -1.00, 185.2, 346.7)">N</text><text xml:space="preserve" font-family="GillSans,Gill Sans" font-size="42.0" fill="#000000" transform="matrix(1.00, 0.00, -0.00, -1.00, 218.0, 346.7)">o</text><text xml:space="preserve" font-family="GillSans,Gill Sans" font-size="42.0" fill="#000000" transform="matrix(1.00, 0.00, -0.00, -1.00, 241.1, 346.7)"> </text><text xml:space="preserve" font-family="GillSans,Gill Sans" font-size="42.0" fill="#000000" transform="matrix(1.00, 0.00, -0.00, -1.00, 252.8, 346.7)">S</text><text xml:space="preserve" font-family="GillSans,Gill Sans" font-size="42.0" fill="#000000" transform="matrix(1.00, 0.00, -0.00, -1.00, 272.0, 346.7)">Q</text><text xml:space="preserve" font-family="GillSans,Gill Sans" font-size="42.0" fill="#000000" transform="matrix(1.00, 0.00, -0.00, -1.00, 306.6, 346.7)">L</text><text xml:space="preserve" font-family="GillSans,Gill Sans" font-size="42.0" fill="#000000" transform="matrix(1.00, 0.00, -0.00, -1.00, 149.0, 273.7)">-</text><text xml:space="preserve" font-family="GillSans,Gill Sans" font-size="42.0" fill="#000000" transform="matrix(1.00, 0.00, -0.00, -1.00, 162.6, 273.7)"> </text><text xml:space="preserve" font-family="GillSans,Gill Sans" font-size="42.0" fill="#000000" transform="matrix(1.00, 0.00, -0.00, -1.00, 174.3, 273.7)">?</text></g></svg>