<?xml version="1.0" encoding="UTF-8" standalone="no"?><svg xmlns="http://www.w3.org/2000/svg" xmlns:xlink="http://www.w3.org/1999/xlink" clip-rule="evenodd" stroke-miterlimit="10" viewBox="0 0 1024 768"><desc>SVG generated by Keynote</desc><defs></defs><g transform="matrix(1.00, 0.00, -0.00, -1.00, 0.0, 768.0)"><path d="M 0.0 768.0 L 1024.0 768.0 L 1024.0 0.0 L 0.0 0.0 Z M 0.0 768.0 " fill="#FEFFFF"></path><text xml:space="preserve" font-family="Monaco,Monaco" font-size="16.5" fill="#8C5B48" transform="matrix(1.00, 0.00, -0.00, -1.00, 136.0, 490.5)">c</text><text xml:space="preserve" font-family="Monaco,Monaco" font-size="16.5" fill="#8C5B48" transform="matrix(1.00, 0.00, -0.00, -1.00, 145.9, 490.5)">l</text><text xml:space="preserve" font-family="Monaco,Monaco" font-size="16.5" fill="#8C5B48" transform="matrix(1.00, 0.00, -0.00, -1.00, 155.8, 490.5)">a</text><text xml:space="preserve" font-family="Monaco,Monaco" font-size="16.5" fill="#8C5B48" transform="matrix(1.00, 0.00, -0.00, -1.00, 165.7, 490.5)">s</text><text xml:space="preserve" font-family="Monaco,Monaco" font-size="16.5" fill="#8C5B48" transform="matrix(1.00, 0.00, -0.00, -1.00, 175.6, 490.5)">s</text><text xml:space="preserve" font-family="Monaco,Monaco" font-size="16.5" fill="#000000" transform="matrix(1.00, 0.00, -0.00, -1.00, 185.5, 490.5)"> </text><text xml:space="preserve" font-family="Monaco,Monaco" font-size="16.5" fill="#CC642E" transform="matrix(1.00, 0.00, -0.00, -1.00, 195.4, 490.5)">C</text><text xml:space="preserve" font-family="Monaco,Monaco" font-size="16.5" fill="#CC642E" transform="matrix(1.00, 0.00, -0.00, -1.00, 205.3, 490.5)">o</text><text xml:space="preserve" font-family="Monaco,Monaco" font-size="16.5" fill="#CC642E" transform="matrix(1.00, 0.00, -0.00, -1.00, 215.2, 490.5)">m</text><text xml:space="preserve" font-family="Monaco,Monaco" font-size="16.5" fill="#CC642E" transform="matrix(1.00, 0.00, -0.00, -1.00, 225.1, 490.5)">b</text><text xml:space="preserve" font-family="Monaco,Monaco" font-size="16.5" fill="#CC642E" transform="matrix(1.00, 0.00, -0.00, -1.00, 235.0, 490.5)">i</text><text xml:space="preserve" font-family="Monaco,Monaco" font-size="16.5" fill="#CC642E" transform="matrix(1.00, 0.00, -0.00, -1.00, 244.9, 490.5)">n</text><text xml:space="preserve" font-family="Monaco,Monaco" font-size="16.5" fill="#CC642E" transform="matrix(1.00, 0.00, -0.00, -1.00, 254.8, 490.5)">e</text><text xml:space="preserve" font-family="Monaco,Monaco" font-size="16.5" fill="#CC642E" transform="matrix(1.00, 0.00, -0.00, -1.00, 264.7, 490.5)">N</text><text xml:space="preserve" font-family="Monaco,Monaco" font-size="16.5" fill="#CC642E" transform="matrix(1.00, 0.00, -0.00, -1.00, 274.6, 490.5)">u</text><text xml:space="preserve" font-family="Monaco,Monaco" font-size="16.5" fill="#CC642E" transform="matrix(1.00, 0.00, -0.00, -1.00, 284.5, 490.5)">m</text><text xml:space="preserve" font-family="Monaco,Monaco" font-size="16.5" fill="#CC642E" transform="matrix(1.00, 0.00, -0.00, -1.00, 294.4, 490.5)">b</text><text xml:space="preserve" font-family="Monaco,Monaco" font-size="16.5" fill="#CC642E" transform="matrix(1.00, 0.00, -0.00, -1.00, 304.3, 490.5)">e</text><text xml:space="preserve" font-family="Monaco,Monaco" font-size="16.5" fill="#CC642E" transform="matrix(1.00, 0.00, -0.00, -1.00, 314.2, 490.5)">r</text><text xml:space="preserve" font-family="Monaco,Monaco" font-size="16.5" fill="#CC642E" transform="matrix(1.00, 0.00, -0.00, -1.00, 324.2, 490.5)">I</text><text xml:space="preserve" font-family="Monaco,Monaco" font-size="16.5" fill="#CC642E" transform="matrix(1.00, 0.00, -0.00, -1.00, 334.1, 490.5)">n</text><text xml:space="preserve" font-family="Monaco,Monaco" font-size="16.5" fill="#CC642E" transform="matrix(1.00, 0.00, -0.00, -1.00, 344.0, 490.5)">P</text><text xml:space="preserve" font-family="Monaco,Monaco" font-size="16.5" fill="#CC642E" transform="matrix(1.00, 0.00, -0.00, -1.00, 353.9, 490.5)">h</text><text xml:space="preserve" font-family="Monaco,Monaco" font-size="16.5" fill="#CC642E" transform="matrix(1.00, 0.00, -0.00, -1.00, 363.8, 490.5)">o</text><text xml:space="preserve" font-family="Monaco,Monaco" font-size="16.5" fill="#CC642E" transform="matrix(1.00, 0.00, -0.00, -1.00, 373.7, 490.5)">n</text><text xml:space="preserve" font-family="Monaco,Monaco" font-size="16.5" fill="#CC642E" transform="matrix(1.00, 0.00, -0.00, -1.00, 383.6, 490.5)">e</text><text xml:space="preserve" font-family="Monaco,Monaco" font-size="16.5" fill="#CC642E" transform="matrix(1.00, 0.00, -0.00, -1.00, 393.5, 490.5)">s</text><text xml:space="preserve" font-family="Monaco,Monaco" font-size="16.5" fill="#000000" transform="matrix(1.00, 0.00, -0.00, -1.00, 403.3, 490.5)"> </text><text xml:space="preserve" font-family="Monaco,Monaco" font-size="16.5" fill="#8C5B48" transform="matrix(1.00, 0.00, -0.00, -1.00, 413.2, 490.5)">&lt;</text><text xml:space="preserve" font-family="Monaco,Monaco" font-size="16.5" fill="#CC642E" transform="matrix(1.00, 0.00, -0.00, -1.00, 423.1, 490.5)"> </text><text xml:space="preserve" font-family="Monaco,Monaco" font-size="16.5" fill="#CC642E" transform="matrix(1.00, 0.00, -0.00, -1.00, 433.0, 490.5)">A</text><text xml:space="preserve" font-family="Monaco,Monaco" font-size="16.5" fill="#CC642E" transform="matrix(1.00, 0.00, -0.00, -1.00, 443.0, 490.5)">c</text><text xml:space="preserve" font-family="Monaco,Monaco" font-size="16.5" fill="#CC642E" transform="matrix(1.00, 0.00, -0.00, -1.00, 452.9, 490.5)">t</text><text xml:space="preserve" font-family="Monaco,Monaco" font-size="16.5" fill="#CC642E" transform="matrix(1.00, 0.00, -0.00, -1.00, 462.8, 490.5)">i</text><text xml:space="preserve" font-family="Monaco,Monaco" font-size="16.5" fill="#CC642E" transform="matrix(1.00, 0.00, -0.00, -1.00, 472.7, 490.5)">v</text><text xml:space="preserve" font-family="Monaco,Monaco" font-size="16.5" fill="#CC642E" transform="matrix(1.00, 0.00, -0.00, -1.00, 482.6, 490.5)">e</text><text xml:space="preserve" font-family="Monaco,Monaco" font-size="16.5" fill="#CC642E" transform="matrix(1.00, 0.00, -0.00, -1.00, 492.5, 490.5)">R</text><text xml:space="preserve" font-family="Monaco,Monaco" font-size="16.5" fill="#CC642E" transform="matrix(1.00, 0.00, -0.00, -1.00, 502.4, 490.5)">e</text><text xml:space="preserve" font-family="Monaco,Monaco" font-size="16.5" fill="#CC642E" transform="matrix(1.00, 0.00, -0.00, -1.00, 512.3, 490.5)">c</text><text xml:space="preserve" font-family="Monaco,Monaco" font-size="16.5" fill="#CC642E" transform="matrix(1.00, 0.00, -0.00, -1.00, 522.2, 490.5)">o</text><text xml:space="preserve" font-family="Monaco,Monaco" font-size="16.5" fill="#CC642E" transform="matrix(1.00, 0.00, -0.00, -1.00, 532.1, 490.5)">r</text><text xml:space="preserve" font-family="Monaco,Monaco" font-size="16.5" fill="#CC642E" transform="matrix(1.00, 0.00, -0.00, -1.00, 542.0, 490.5)">d</text><text xml:space="preserve" font-family="Monaco,Monaco" font-size="16.5" fill="#CC642E" transform="matrix(1.00, 0.00, -0.00, -1.00, 551.9, 490.5)">:</text><text xml:space="preserve" font-family="Monaco,Monaco" font-size="16.5" fill="#CC642E" transform="matrix(1.00, 0.00, -0.00, -1.00, 561.8, 490.5)">:</text><text xml:space="preserve" font-family="Monaco,Monaco" font-size="16.5" fill="#CC642E" transform="matrix(1.00, 0.00, -0.00, -1.00, 571.7, 490.5)">M</text><text xml:space="preserve" font-family="Monaco,Monaco" font-size="16.5" fill="#CC642E" transform="matrix(1.00, 0.00, -0.00, -1.00, 581.6, 490.5)">i</text><text xml:space="preserve" font-family="Monaco,Monaco" font-size="16.5" fill="#CC642E" transform="matrix(1.00, 0.00, -0.00, -1.00, 591.5, 490.5)">g</text><text xml:space="preserve" font-family="Monaco,Monaco" font-size="16.5" fill="#CC642E" transform="matrix(1.00, 0.00, -0.00, -1.00, 601.4, 490.5)">r</text><text xml:space="preserve" font-family="Monaco,Monaco" font-size="16.5" fill="#CC642E" transform="matrix(1.00, 0.00, -0.00, -1.00, 611.3, 490.5)">a</text><text xml:space="preserve" font-family="Monaco,Monaco" font-size="16.5" fill="#CC642E" transform="matrix(1.00, 0.00, -0.00, -1.00, 621.2, 490.5)">t</text><text xml:space="preserve" font-family="Monaco,Monaco" font-size="16.5" fill="#CC642E" transform="matrix(1.00, 0.00, -0.00, -1.00, 631.1, 490.5)">i</text><text xml:space="preserve" font-family="Monaco,Monaco" font-size="16.5" fill="#CC642E" transform="matrix(1.00, 0.00, -0.00, -1.00, 641.0, 490.5)">o</text><text xml:space="preserve" font-family="Monaco,Monaco" font-size="16.5" fill="#CC642E" transform="matrix(1.00, 0.00, -0.00, -1.00, 650.9, 490.5)">n</text><text xml:space="preserve" font-family="Monaco,Monaco" font-size="16.5" fill="#000000" transform="matrix(1.00, 0.00, -0.00, -1.00, 660.8, 490.5)"> </text><text xml:space="preserve" font-family="Monaco,Monaco" font-size="16.5" fill="#000000" transform="matrix(1.00, 0.00, -0.00, -1.00, 670.7, 490.5)"> </text><text xml:space="preserve" font-family="Monaco,Monaco" font-size="16.5" fill="#000000" transform="matrix(1.00, 0.00, -0.00, -1.00, 136.0, 468.5)"> </text><text xml:space="preserve" font-family="Monaco,Monaco" font-size="16.5" fill="#000000" transform="matrix(1.00, 0.00, -0.00, -1.00, 145.9, 468.5)"> </text><text xml:space="preserve" font-family="Monaco,Monaco" font-size="16.5" fill="#8C5B48" transform="matrix(1.00, 0.00, -0.00, -1.00, 155.8, 468.5)">d</text><text xml:space="preserve" font-family="Monaco,Monaco" font-size="16.5" fill="#8C5B48" transform="matrix(1.00, 0.00, -0.00, -1.00, 165.7, 468.5)">e</text><text xml:space="preserve" font-family="Monaco,Monaco" font-size="16.5" fill="#8C5B48" transform="matrix(1.00, 0.00, -0.00, -1.00, 175.6, 468.5)">f</text><text xml:space="preserve" font-family="Monaco,Monaco" font-size="16.5" fill="#000000" transform="matrix(1.00, 0.00, -0.00, -1.00, 185.5, 468.5)"> </text><text xml:space="preserve" font-family="Monaco,Monaco" font-size="16.5" fill="#CC642E" transform="matrix(1.00, 0.00, -0.00, -1.00, 195.4, 468.5)">s</text><text xml:space="preserve" font-family="Monaco,Monaco" font-size="16.5" fill="#CC642E" transform="matrix(1.00, 0.00, -0.00, -1.00, 205.3, 468.5)">e</text><text xml:space="preserve" font-family="Monaco,Monaco" font-size="16.5" fill="#CC642E" transform="matrix(1.00, 0.00, -0.00, -1.00, 215.2, 468.5)">l</text><text xml:space="preserve" font-family="Monaco,Monaco" font-size="16.5" fill="#CC642E" transform="matrix(1.00, 0.00, -0.00, -1.00, 225.1, 468.5)">f</text><text xml:space="preserve" font-family="Monaco,Monaco" font-size="16.5" fill="#CC642E" transform="matrix(1.00, 0.00, -0.00, -1.00, 235.0, 468.5)">.</text><text xml:space="preserve" font-family="Monaco,Monaco" font-size="16.5" fill="#CC642E" transform="matrix(1.00, 0.00, -0.00, -1.00, 244.9, 468.5)">u</text><text xml:space="preserve" font-family="Monaco,Monaco" font-size="16.5" fill="#CC642E" transform="matrix(1.00, 0.00, -0.00, -1.00, 254.8, 468.5)">p</text><text xml:space="preserve" font-family="Monaco,Monaco" font-size="16.5" fill="#CC642E" transform="matrix(1.00, 0.00, -0.00, -1.00, 264.7, 468.5)"> </text><text xml:space="preserve" font-family="Monaco,Monaco" font-size="16.5" fill="#000000" transform="matrix(1.00, 0.00, -0.00, -1.00, 136.0, 446.5)"> </text><text xml:space="preserve" font-family="Monaco,Monaco" font-size="16.5" fill="#000000" transform="matrix(1.00, 0.00, -0.00, -1.00, 145.9, 446.5)"> </text><text xml:space="preserve" font-family="Monaco,Monaco" font-size="16.5" fill="#000000" transform="matrix(1.00, 0.00, -0.00, -1.00, 155.8, 446.5)"> </text><text xml:space="preserve" font-family="Monaco,Monaco" font-size="16.5" fill="#000000" transform="matrix(1.00, 0.00, -0.00, -1.00, 165.7, 446.5)"> </text><text xml:space="preserve" font-family="Monaco,Monaco" font-size="16.5" fill="#000000" transform="matrix(1.00, 0.00, -0.00, -1.00, 175.6, 446.5)">a</text><text xml:space="preserve" font-family="Monaco,Monaco" font-size="16.5" fill="#000000" transform="matrix(1.00, 0.00, -0.00, -1.00, 185.5, 446.5)">d</text><text xml:space="preserve" font-family="Monaco,Monaco" font-size="16.5" fill="#000000" transform="matrix(1.00, 0.00, -0.00, -1.00, 195.4, 446.5)">d</text><text xml:space="preserve" font-family="Monaco,Monaco" font-size="16.5" fill="#000000" transform="matrix(1.00, 0.00, -0.00, -1.00, 205.3, 446.5)">_</text><text xml:space="preserve" font-family="Monaco,Monaco" font-size="16.5" fill="#000000" transform="matrix(1.00, 0.00, -0.00, -1.00, 215.2, 446.5)">c</text><text xml:space="preserve" font-family="Monaco,Monaco" font-size="16.5" fill="#000000" transform="matrix(1.00, 0.00, -0.00, -1.00, 225.1, 446.5)">o</text><text xml:space="preserve" font-family="Monaco,Monaco" font-size="16.5" fill="#000000" transform="matrix(1.00, 0.00, -0.00, -1.00, 235.0, 446.5)">l</text><text xml:space="preserve" font-family="Monaco,Monaco" font-size="16.5" fill="#000000" transform="matrix(1.00, 0.00, -0.00, -1.00, 244.9, 446.5)">u</text><text xml:space="preserve" font-family="Monaco,Monaco" font-size="16.5" fill="#000000" transform="matrix(1.00, 0.00, -0.00, -1.00, 254.8, 446.5)">m</text><text xml:space="preserve" font-family="Monaco,Monaco" font-size="16.5" fill="#000000" transform="matrix(1.00, 0.00, -0.00, -1.00, 264.7, 446.5)">n</text><text xml:space="preserve" font-family="Monaco,Monaco" font-size="16.5" fill="#000000" transform="matrix(1.00, 0.00, -0.00, -1.00, 274.6, 446.5)"> </text><text xml:space="preserve" font-family="Monaco,Monaco" font-size="16.5" fill="#942E2F" transform="matrix(1.00, 0.00, -0.00, -1.00, 284.5, 446.5)">:</text><text xml:space="preserve" font-family="Monaco,Monaco" font-size="16.5" fill="#942E2F" transform="matrix(1.00, 0.00, -0.00, -1.00, 294.4, 446.5)">p</text><text xml:space="preserve" font-family="Monaco,Monaco" font-size="16.5" fill="#942E2F" transform="matrix(1.00, 0.00, -0.00, -1.00, 304.3, 446.5)">h</text><text xml:space="preserve" font-family="Monaco,Monaco" font-size="16.5" fill="#942E2F" transform="matrix(1.00, 0.00, -0.00, -1.00, 314.2, 446.5)">o</text><text xml:space="preserve" font-family="Monaco,Monaco" font-size="16.5" fill="#942E2F" transform="matrix(1.00, 0.00, -0.00, -1.00, 324.1, 446.5)">n</text><text xml:space="preserve" font-family="Monaco,Monaco" font-size="16.5" fill="#942E2F" transform="matrix(1.00, 0.00, -0.00, -1.00, 334.0, 446.5)">e</text><text xml:space="preserve" font-family="Monaco,Monaco" font-size="16.5" fill="#942E2F" transform="matrix(1.00, 0.00, -0.00, -1.00, 343.9, 446.5)">s</text><text xml:space="preserve" font-family="Monaco,Monaco" font-size="16.5" fill="#8C5B48" transform="matrix(1.00, 0.00, -0.00, -1.00, 353.8, 446.5)">,</text><text xml:space="preserve" font-family="Monaco,Monaco" font-size="16.5" fill="#000000" transform="matrix(1.00, 0.00, -0.00, -1.00, 363.7, 446.5)"> </text><text xml:space="preserve" font-family="Monaco,Monaco" font-size="16.5" fill="#942E2F" transform="matrix(1.00, 0.00, -0.00, -1.00, 373.6, 446.5)">:</text><text xml:space="preserve" font-family="Monaco,Monaco" font-size="16.5" fill="#942E2F" transform="matrix(1.00, 0.00, -0.00, -1.00, 383.5, 446.5)">n</text><text xml:space="preserve" font-family="Monaco,Monaco" font-size="16.5" fill="#942E2F" transform="matrix(1.00, 0.00, -0.00, -1.00, 393.4, 446.5)">u</text><text xml:space="preserve" font-family="Monaco,Monaco" font-size="16.5" fill="#942E2F" transform="matrix(1.00, 0.00, -0.00, -1.00, 403.3, 446.5)">m</text><text xml:space="preserve" font-family="Monaco,Monaco" font-size="16.5" fill="#942E2F" transform="matrix(1.00, 0.00, -0.00, -1.00, 413.3, 446.5)">b</text><text xml:space="preserve" font-family="Monaco,Monaco" font-size="16.5" fill="#942E2F" transform="matrix(1.00, 0.00, -0.00, -1.00, 423.2, 446.5)">e</text><text xml:space="preserve" font-family="Monaco,Monaco" font-size="16.5" fill="#942E2F" transform="matrix(1.00, 0.00, -0.00, -1.00, 433.1, 446.5)">r</text><text xml:space="preserve" font-family="Monaco,Monaco" font-size="16.5" fill="#8C5B48" transform="matrix(1.00, 0.00, -0.00, -1.00, 442.9, 446.5)">,</text><text xml:space="preserve" font-family="Monaco,Monaco" font-size="16.5" fill="#000000" transform="matrix(1.00, 0.00, -0.00, -1.00, 452.9, 446.5)"> </text><text xml:space="preserve" font-family="Monaco,Monaco" font-size="16.5" fill="#942E2F" transform="matrix(1.00, 0.00, -0.00, -1.00, 462.8, 446.5)">:</text><text xml:space="preserve" font-family="Monaco,Monaco" font-size="16.5" fill="#942E2F" transform="matrix(1.00, 0.00, -0.00, -1.00, 472.7, 446.5)">s</text><text xml:space="preserve" font-family="Monaco,Monaco" font-size="16.5" fill="#942E2F" transform="matrix(1.00, 0.00, -0.00, -1.00, 482.6, 446.5)">t</text><text xml:space="preserve" font-family="Monaco,Monaco" font-size="16.5" fill="#942E2F" transform="matrix(1.00, 0.00, -0.00, -1.00, 492.5, 446.5)">r</text><text xml:space="preserve" font-family="Monaco,Monaco" font-size="16.5" fill="#942E2F" transform="matrix(1.00, 0.00, -0.00, -1.00, 502.4, 446.5)">i</text><text xml:space="preserve" font-family="Monaco,Monaco" font-size="16.5" fill="#942E2F" transform="matrix(1.00, 0.00, -0.00, -1.00, 512.3, 446.5)">n</text><text xml:space="preserve" font-family="Monaco,Monaco" font-size="16.5" fill="#942E2F" transform="matrix(1.00, 0.00, -0.00, -1.00, 522.2, 446.5)">g</text><text xml:space="preserve" font-family="Monaco,Monaco" font-size="16.5" fill="#942E2F" transform="matrix(1.00, 0.00, -0.00, -1.00, 532.1, 446.5)"> </text><text xml:space="preserve" font-family="Monaco,Monaco" font-size="16.5" fill="#000000" transform="matrix(1.00, 0.00, -0.00, -1.00, 136.0, 424.5)"> </text><text xml:space="preserve" font-family="Monaco,Monaco" font-size="16.5" fill="#000000" transform="matrix(1.00, 0.00, -0.00, -1.00, 145.9, 424.5)"> </text><text xml:space="preserve" font-family="Monaco,Monaco" font-size="16.5" fill="#000000" transform="matrix(1.00, 0.00, -0.00, -1.00, 155.8, 424.5)"> </text><text xml:space="preserve" font-family="Monaco,Monaco" font-size="16.5" fill="#000000" transform="matrix(1.00, 0.00, -0.00, -1.00, 165.7, 424.5)"> </text><text xml:space="preserve" font-family="Monaco,Monaco" font-size="16.5" fill="#000000" transform="matrix(1.00, 0.00, -0.00, -1.00, 175.6, 424.5)">e</text><text xml:space="preserve" font-family="Monaco,Monaco" font-size="16.5" fill="#000000" transform="matrix(1.00, 0.00, -0.00, -1.00, 185.5, 424.5)">x</text><text xml:space="preserve" font-family="Monaco,Monaco" font-size="16.5" fill="#000000" transform="matrix(1.00, 0.00, -0.00, -1.00, 195.4, 424.5)">e</text><text xml:space="preserve" font-family="Monaco,Monaco" font-size="16.5" fill="#000000" transform="matrix(1.00, 0.00, -0.00, -1.00, 205.3, 424.5)">c</text><text xml:space="preserve" font-family="Monaco,Monaco" font-size="16.5" fill="#000000" transform="matrix(1.00, 0.00, -0.00, -1.00, 215.2, 424.5)">u</text><text xml:space="preserve" font-family="Monaco,Monaco" font-size="16.5" fill="#000000" transform="matrix(1.00, 0.00, -0.00, -1.00, 225.1, 424.5)">t</text><text xml:space="preserve" font-family="Monaco,Monaco" font-size="16.5" fill="#000000" transform="matrix(1.00, 0.00, -0.00, -1.00, 235.0, 424.5)">e</text><text xml:space="preserve" font-family="Monaco,Monaco" font-size="16.5" fill="#000000" transform="matrix(1.00, 0.00, -0.00, -1.00, 244.9, 424.5)">(</text><text xml:space="preserve" font-family="Monaco,Monaco" font-size="16.5" fill="#000000" transform="matrix(1.00, 0.00, -0.00, -1.00, 254.8, 424.5)">"</text><text xml:space="preserve" font-family="Monaco,Monaco" font-size="16.5" fill="#000000" transform="matrix(1.00, 0.00, -0.00, -1.00, 264.7, 424.5)">U</text><text xml:space="preserve" font-family="Monaco,Monaco" font-size="16.5" fill="#000000" transform="matrix(1.00, 0.00, -0.00, -1.00, 274.6, 424.5)">P</text><text xml:space="preserve" font-family="Monaco,Monaco" font-size="16.5" fill="#000000" transform="matrix(1.00, 0.00, -0.00, -1.00, 284.5, 424.5)">D</text><text xml:space="preserve" font-family="Monaco,Monaco" font-size="16.5" fill="#000000" transform="matrix(1.00, 0.00, -0.00, -1.00, 294.5, 424.5)">A</text><text xml:space="preserve" font-family="Monaco,Monaco" font-size="16.5" fill="#000000" transform="matrix(1.00, 0.00, -0.00, -1.00, 304.4, 424.5)">T</text><text xml:space="preserve" font-family="Monaco,Monaco" font-size="16.5" fill="#000000" transform="matrix(1.00, 0.00, -0.00, -1.00, 314.3, 424.5)">E</text><text xml:space="preserve" font-family="Monaco,Monaco" font-size="16.5" fill="#000000" transform="matrix(1.00, 0.00, -0.00, -1.00, 324.2, 424.5)"> </text><text xml:space="preserve" font-family="Monaco,Monaco" font-size="16.5" fill="#000000" transform="matrix(1.00, 0.00, -0.00, -1.00, 334.1, 424.5)">p</text><text xml:space="preserve" font-family="Monaco,Monaco" font-size="16.5" fill="#000000" transform="matrix(1.00, 0.00, -0.00, -1.00, 344.0, 424.5)">h</text><text xml:space="preserve" font-family="Monaco,Monaco" font-size="16.5" fill="#000000" transform="matrix(1.00, 0.00, -0.00, -1.00, 353.9, 424.5)">o</text><text xml:space="preserve" font-family="Monaco,Monaco" font-size="16.5" fill="#000000" transform="matrix(1.00, 0.00, -0.00, -1.00, 363.8, 424.5)">n</text><text xml:space="preserve" font-family="Monaco,Monaco" font-size="16.5" fill="#000000" transform="matrix(1.00, 0.00, -0.00, -1.00, 373.7, 424.5)">e</text><text xml:space="preserve" font-family="Monaco,Monaco" font-size="16.5" fill="#000000" transform="matrix(1.00, 0.00, -0.00, -1.00, 383.6, 424.5)">s</text><text xml:space="preserve" font-family="Monaco,Monaco" font-size="16.5" fill="#000000" transform="matrix(1.00, 0.00, -0.00, -1.00, 393.5, 424.5)"> </text><text xml:space="preserve" font-family="Monaco,Monaco" font-size="16.5" fill="#000000" transform="matrix(1.00, 0.00, -0.00, -1.00, 403.4, 424.5)">S</text><text xml:space="preserve" font-family="Monaco,Monaco" font-size="16.5" fill="#000000" transform="matrix(1.00, 0.00, -0.00, -1.00, 413.3, 424.5)">E</text><text xml:space="preserve" font-family="Monaco,Monaco" font-size="16.5" fill="#000000" transform="matrix(1.00, 0.00, -0.00, -1.00, 423.2, 424.5)">T</text><text xml:space="preserve" font-family="Monaco,Monaco" font-size="16.5" fill="#000000" transform="matrix(1.00, 0.00, -0.00, -1.00, 433.1, 424.5)"> </text><text xml:space="preserve" font-family="Monaco,Monaco" font-size="16.5" fill="#000000" transform="matrix(1.00, 0.00, -0.00, -1.00, 443.0, 424.5)">n</text><text xml:space="preserve" font-family="Monaco,Monaco" font-size="16.5" fill="#000000" transform="matrix(1.00, 0.00, -0.00, -1.00, 452.9, 424.5)">u</text><text xml:space="preserve" font-family="Monaco,Monaco" font-size="16.5" fill="#000000" transform="matrix(1.00, 0.00, -0.00, -1.00, 462.8, 424.5)">m</text><text xml:space="preserve" font-family="Monaco,Monaco" font-size="16.5" fill="#000000" transform="matrix(1.00, 0.00, -0.00, -1.00, 472.7, 424.5)">b</text><text xml:space="preserve" font-family="Monaco,Monaco" font-size="16.5" fill="#000000" transform="matrix(1.00, 0.00, -0.00, -1.00, 482.6, 424.5)">e</text><text xml:space="preserve" font-family="Monaco,Monaco" font-size="16.5" fill="#000000" transform="matrix(1.00, 0.00, -0.00, -1.00, 492.5, 424.5)">r</text><text xml:space="preserve" font-family="Monaco,Monaco" font-size="16.5" fill="#000000" transform="matrix(1.00, 0.00, -0.00, -1.00, 502.4, 424.5)"> </text><text xml:space="preserve" font-family="Monaco,Monaco" font-size="16.5" fill="#000000" transform="matrix(1.00, 0.00, -0.00, -1.00, 512.3, 424.5)">=</text><text xml:space="preserve" font-family="Monaco,Monaco" font-size="16.5" fill="#000000" transform="matrix(1.00, 0.00, -0.00, -1.00, 522.2, 424.5)"> </text><text xml:space="preserve" font-family="Monaco,Monaco" font-size="16.5" fill="#000000" transform="matrix(1.00, 0.00, -0.00, -1.00, 532.1, 424.5)">C</text><text xml:space="preserve" font-family="Monaco,Monaco" font-size="16.5" fill="#000000" transform="matrix(1.00, 0.00, -0.00, -1.00, 542.0, 424.5)">O</text><text xml:space="preserve" font-family="Monaco,Monaco" font-size="16.5" fill="#000000" transform="matrix(1.00, 0.00, -0.00, -1.00, 551.9, 424.5)">N</text><text xml:space="preserve" font-family="Monaco,Monaco" font-size="16.5" fill="#000000" transform="matrix(1.00, 0.00, -0.00, -1.00, 561.8, 424.5)">C</text><text xml:space="preserve" font-family="Monaco,Monaco" font-size="16.5" fill="#000000" transform="matrix(1.00, 0.00, -0.00, -1.00, 571.7, 424.5)">A</text><text xml:space="preserve" font-family="Monaco,Monaco" font-size="16.5" fill="#000000" transform="matrix(1.00, 0.00, -0.00, -1.00, 581.6, 424.5)">T</text><text xml:space="preserve" font-family="Monaco,Monaco" font-size="16.5" fill="#000000" transform="matrix(1.00, 0.00, -0.00, -1.00, 591.6, 424.5)">(</text><text xml:space="preserve" font-family="Monaco,Monaco" font-size="16.5" fill="#000000" transform="matrix(1.00, 0.00, -0.00, -1.00, 601.5, 424.5)">a</text><text xml:space="preserve" font-family="Monaco,Monaco" font-size="16.5" fill="#000000" transform="matrix(1.00, 0.00, -0.00, -1.00, 611.4, 424.5)">r</text><text xml:space="preserve" font-family="Monaco,Monaco" font-size="16.5" fill="#000000" transform="matrix(1.00, 0.00, -0.00, -1.00, 621.3, 424.5)">e</text><text xml:space="preserve" font-family="Monaco,Monaco" font-size="16.5" fill="#000000" transform="matrix(1.00, 0.00, -0.00, -1.00, 631.2, 424.5)">a</text><text xml:space="preserve" font-family="Monaco,Monaco" font-size="16.5" fill="#000000" transform="matrix(1.00, 0.00, -0.00, -1.00, 641.1, 424.5)">_</text><text xml:space="preserve" font-family="Monaco,Monaco" font-size="16.5" fill="#000000" transform="matrix(1.00, 0.00, -0.00, -1.00, 651.0, 424.5)">c</text><text xml:space="preserve" font-family="Monaco,Monaco" font-size="16.5" fill="#000000" transform="matrix(1.00, 0.00, -0.00, -1.00, 660.9, 424.5)">o</text><text xml:space="preserve" font-family="Monaco,Monaco" font-size="16.5" fill="#000000" transform="matrix(1.00, 0.00, -0.00, -1.00, 670.8, 424.5)">d</text><text xml:space="preserve" font-family="Monaco,Monaco" font-size="16.5" fill="#000000" transform="matrix(1.00, 0.00, -0.00, -1.00, 680.7, 424.5)">e</text><text xml:space="preserve" font-family="Monaco,Monaco" font-size="16.5" fill="#000000" transform="matrix(1.00, 0.00, -0.00, -1.00, 690.6, 424.5)">,</text><text xml:space="preserve" font-family="Monaco,Monaco" font-size="16.5" fill="#000000" transform="matrix(1.00, 0.00, -0.00, -1.00, 700.5, 424.5)"> </text><text xml:space="preserve" font-family="Monaco,Monaco" font-size="16.5" fill="#000000" transform="matrix(1.00, 0.00, -0.00, -1.00, 710.4, 424.5)">p</text><text xml:space="preserve" font-family="Monaco,Monaco" font-size="16.5" fill="#000000" transform="matrix(1.00, 0.00, -0.00, -1.00, 720.3, 424.5)">r</text><text xml:space="preserve" font-family="Monaco,Monaco" font-size="16.5" fill="#000000" transform="matrix(1.00, 0.00, -0.00, -1.00, 730.2, 424.5)">e</text><text xml:space="preserve" font-family="Monaco,Monaco" font-size="16.5" fill="#000000" transform="matrix(1.00, 0.00, -0.00, -1.00, 740.1, 424.5)">f</text><text xml:space="preserve" font-family="Monaco,Monaco" font-size="16.5" fill="#000000" transform="matrix(1.00, 0.00, -0.00, -1.00, 750.0, 424.5)">i</text><text xml:space="preserve" font-family="Monaco,Monaco" font-size="16.5" fill="#000000" transform="matrix(1.00, 0.00, -0.00, -1.00, 759.9, 424.5)">x</text><text xml:space="preserve" font-family="Monaco,Monaco" font-size="16.5" fill="#000000" transform="matrix(1.00, 0.00, -0.00, -1.00, 769.8, 424.5)">,</text><text xml:space="preserve" font-family="Monaco,Monaco" font-size="16.5" fill="#000000" transform="matrix(1.00, 0.00, -0.00, -1.00, 779.7, 424.5)"> </text><text xml:space="preserve" font-family="Monaco,Monaco" font-size="16.5" fill="#000000" transform="matrix(1.00, 0.00, -0.00, -1.00, 789.6, 424.5)">s</text><text xml:space="preserve" font-family="Monaco,Monaco" font-size="16.5" fill="#000000" transform="matrix(1.00, 0.00, -0.00, -1.00, 799.5, 424.5)">u</text><text xml:space="preserve" font-family="Monaco,Monaco" font-size="16.5" fill="#000000" transform="matrix(1.00, 0.00, -0.00, -1.00, 809.4, 424.5)">f</text><text xml:space="preserve" font-family="Monaco,Monaco" font-size="16.5" fill="#000000" transform="matrix(1.00, 0.00, -0.00, -1.00, 819.3, 424.5)">f</text><text xml:space="preserve" font-family="Monaco,Monaco" font-size="16.5" fill="#000000" transform="matrix(1.00, 0.00, -0.00, -1.00, 829.2, 424.5)">i</text><text xml:space="preserve" font-family="Monaco,Monaco" font-size="16.5" fill="#000000" transform="matrix(1.00, 0.00, -0.00, -1.00, 839.1, 424.5)">x</text><text xml:space="preserve" font-family="Monaco,Monaco" font-size="16.5" fill="#000000" transform="matrix(1.00, 0.00, -0.00, -1.00, 849.0, 424.5)">)</text><text xml:space="preserve" font-family="Monaco,Monaco" font-size="16.5" fill="#000000" transform="matrix(1.00, 0.00, -0.00, -1.00, 858.9, 424.5)">"</text><text xml:space="preserve" font-family="Monaco,Monaco" font-size="16.5" fill="#000000" transform="matrix(1.00, 0.00, -0.00, -1.00, 868.8, 424.5)">)</text><text xml:space="preserve" font-family="Monaco,Monaco" font-size="16.5" fill="#000000" transform="matrix(1.00, 0.00, -0.00, -1.00, 878.7, 424.5)"> </text><text xml:space="preserve" font-family="Monaco,Monaco" font-size="16.5" fill="#000000" transform="matrix(1.00, 0.00, -0.00, -1.00, 136.0, 402.5)"> </text><text xml:space="preserve" font-family="Monaco,Monaco" font-size="16.5" fill="#000000" transform="matrix(1.00, 0.00, -0.00, -1.00, 145.9, 402.5)"> </text><text xml:space="preserve" font-family="Monaco,Monaco" font-size="16.5" fill="#000000" transform="matrix(1.00, 0.00, -0.00, -1.00, 155.8, 402.5)"> </text><text xml:space="preserve" font-family="Monaco,Monaco" font-size="16.5" fill="#000000" transform="matrix(1.00, 0.00, -0.00, -1.00, 165.7, 402.5)"> </text><text xml:space="preserve" font-family="Monaco,Monaco" font-size="16.5" fill="#000000" transform="matrix(1.00, 0.00, -0.00, -1.00, 175.6, 402.5)">r</text><text xml:space="preserve" font-family="Monaco,Monaco" font-size="16.5" fill="#000000" transform="matrix(1.00, 0.00, -0.00, -1.00, 185.5, 402.5)">e</text><text xml:space="preserve" font-family="Monaco,Monaco" font-size="16.5" fill="#000000" transform="matrix(1.00, 0.00, -0.00, -1.00, 195.4, 402.5)">m</text><text xml:space="preserve" font-family="Monaco,Monaco" font-size="16.5" fill="#000000" transform="matrix(1.00, 0.00, -0.00, -1.00, 205.3, 402.5)">o</text><text xml:space="preserve" font-family="Monaco,Monaco" font-size="16.5" fill="#000000" transform="matrix(1.00, 0.00, -0.00, -1.00, 215.2, 402.5)">v</text><text xml:space="preserve" font-family="Monaco,Monaco" font-size="16.5" fill="#000000" transform="matrix(1.00, 0.00, -0.00, -1.00, 225.1, 402.5)">e</text><text xml:space="preserve" font-family="Monaco,Monaco" font-size="16.5" fill="#000000" transform="matrix(1.00, 0.00, -0.00, -1.00, 235.0, 402.5)">_</text><text xml:space="preserve" font-family="Monaco,Monaco" font-size="16.5" fill="#000000" transform="matrix(1.00, 0.00, -0.00, -1.00, 244.9, 402.5)">c</text><text xml:space="preserve" font-family="Monaco,Monaco" font-size="16.5" fill="#000000" transform="matrix(1.00, 0.00, -0.00, -1.00, 254.8, 402.5)">o</text><text xml:space="preserve" font-family="Monaco,Monaco" font-size="16.5" fill="#000000" transform="matrix(1.00, 0.00, -0.00, -1.00, 264.7, 402.5)">l</text><text xml:space="preserve" font-family="Monaco,Monaco" font-size="16.5" fill="#000000" transform="matrix(1.00, 0.00, -0.00, -1.00, 274.6, 402.5)">u</text><text xml:space="preserve" font-family="Monaco,Monaco" font-size="16.5" fill="#000000" transform="matrix(1.00, 0.00, -0.00, -1.00, 284.5, 402.5)">m</text><text xml:space="preserve" font-family="Monaco,Monaco" font-size="16.5" fill="#000000" transform="matrix(1.00, 0.00, -0.00, -1.00, 294.5, 402.5)">n</text><text xml:space="preserve" font-family="Monaco,Monaco" font-size="16.5" fill="#000000" transform="matrix(1.00, 0.00, -0.00, -1.00, 304.4, 402.5)"> </text><text xml:space="preserve" font-family="Monaco,Monaco" font-size="16.5" fill="#942E2F" transform="matrix(1.00, 0.00, -0.00, -1.00, 314.2, 402.5)">:</text><text xml:space="preserve" font-family="Monaco,Monaco" font-size="16.5" fill="#942E2F" transform="matrix(1.00, 0.00, -0.00, -1.00, 324.1, 402.5)">p</text><text xml:space="preserve" font-family="Monaco,Monaco" font-size="16.5" fill="#942E2F" transform="matrix(1.00, 0.00, -0.00, -1.00, 334.0, 402.5)">h</text><text xml:space="preserve" font-family="Monaco,Monaco" font-size="16.5" fill="#942E2F" transform="matrix(1.00, 0.00, -0.00, -1.00, 343.9, 402.5)">o</text><text xml:space="preserve" font-family="Monaco,Monaco" font-size="16.5" fill="#942E2F" transform="matrix(1.00, 0.00, -0.00, -1.00, 353.8, 402.5)">n</text><text xml:space="preserve" font-family="Monaco,Monaco" font-size="16.5" fill="#942E2F" transform="matrix(1.00, 0.00, -0.00, -1.00, 363.7, 402.5)">e</text><text xml:space="preserve" font-family="Monaco,Monaco" font-size="16.5" fill="#942E2F" transform="matrix(1.00, 0.00, -0.00, -1.00, 373.6, 402.5)">s</text><text xml:space="preserve" font-family="Monaco,Monaco" font-size="16.5" fill="#8C5B48" transform="matrix(1.00, 0.00, -0.00, -1.00, 383.5, 402.5)">,</text><text xml:space="preserve" font-family="Monaco,Monaco" font-size="16.5" fill="#000000" transform="matrix(1.00, 0.00, -0.00, -1.00, 393.4, 402.5)"> </text><text xml:space="preserve" font-family="Monaco,Monaco" font-size="16.5" fill="#942E2F" transform="matrix(1.00, 0.00, -0.00, -1.00, 403.3, 402.5)">:</text><text xml:space="preserve" font-family="Monaco,Monaco" font-size="16.5" fill="#942E2F" transform="matrix(1.00, 0.00, -0.00, -1.00, 413.2, 402.5)">a</text><text xml:space="preserve" font-family="Monaco,Monaco" font-size="16.5" fill="#942E2F" transform="matrix(1.00, 0.00, -0.00, -1.00, 423.2, 402.5)">r</text><text xml:space="preserve" font-family="Monaco,Monaco" font-size="16.5" fill="#942E2F" transform="matrix(1.00, 0.00, -0.00, -1.00, 433.1, 402.5)">e</text><text xml:space="preserve" font-family="Monaco,Monaco" font-size="16.5" fill="#942E2F" transform="matrix(1.00, 0.00, -0.00, -1.00, 443.0, 402.5)">a</text><text xml:space="preserve" font-family="Monaco,Monaco" font-size="16.5" fill="#942E2F" transform="matrix(1.00, 0.00, -0.00, -1.00, 452.9, 402.5)">_</text><text xml:space="preserve" font-family="Monaco,Monaco" font-size="16.5" fill="#942E2F" transform="matrix(1.00, 0.00, -0.00, -1.00, 462.8, 402.5)">c</text><text xml:space="preserve" font-family="Monaco,Monaco" font-size="16.5" fill="#942E2F" transform="matrix(1.00, 0.00, -0.00, -1.00, 472.7, 402.5)">o</text><text xml:space="preserve" font-family="Monaco,Monaco" font-size="16.5" fill="#942E2F" transform="matrix(1.00, 0.00, -0.00, -1.00, 482.6, 402.5)">d</text><text xml:space="preserve" font-family="Monaco,Monaco" font-size="16.5" fill="#942E2F" transform="matrix(1.00, 0.00, -0.00, -1.00, 492.5, 402.5)">e</text><text xml:space="preserve" font-family="Monaco,Monaco" font-size="16.5" fill="#942E2F" transform="matrix(1.00, 0.00, -0.00, -1.00, 502.4, 402.5)"> </text><text xml:space="preserve" font-family="Monaco,Monaco" font-size="16.5" fill="#000000" transform="matrix(1.00, 0.00, -0.00, -1.00, 136.0, 380.5)"> </text><text xml:space="preserve" font-family="Monaco,Monaco" font-size="16.5" fill="#000000" transform="matrix(1.00, 0.00, -0.00, -1.00, 145.9, 380.5)"> </text><text xml:space="preserve" font-family="Monaco,Monaco" font-size="16.5" fill="#000000" transform="matrix(1.00, 0.00, -0.00, -1.00, 155.8, 380.5)"> </text><text xml:space="preserve" font-family="Monaco,Monaco" font-size="16.5" fill="#000000" transform="matrix(1.00, 0.00, -0.00, -1.00, 165.7, 380.5)"> </text><text xml:space="preserve" font-family="Monaco,Monaco" font-size="16.5" fill="#000000" transform="matrix(1.00, 0.00, -0.00, -1.00, 175.6, 380.5)">r</text><text xml:space="preserve" font-family="Monaco,Monaco" font-size="16.5" fill="#000000" transform="matrix(1.00, 0.00, -0.00, -1.00, 185.5, 380.5)">e</text><text xml:space="preserve" font-family="Monaco,Monaco" font-size="16.5" fill="#000000" transform="matrix(1.00, 0.00, -0.00, -1.00, 195.4, 380.5)">m</text><text xml:space="preserve" font-family="Monaco,Monaco" font-size="16.5" fill="#000000" transform="matrix(1.00, 0.00, -0.00, -1.00, 205.3, 380.5)">o</text><text xml:space="preserve" font-family="Monaco,Monaco" font-size="16.5" fill="#000000" transform="matrix(1.00, 0.00, -0.00, -1.00, 215.2, 380.5)">v</text><text xml:space="preserve" font-family="Monaco,Monaco" font-size="16.5" fill="#000000" transform="matrix(1.00, 0.00, -0.00, -1.00, 225.1, 380.5)">e</text><text xml:space="preserve" font-family="Monaco,Monaco" font-size="16.5" fill="#000000" transform="matrix(1.00, 0.00, -0.00, -1.00, 235.0, 380.5)">_</text><text xml:space="preserve" font-family="Monaco,Monaco" font-size="16.5" fill="#000000" transform="matrix(1.00, 0.00, -0.00, -1.00, 244.9, 380.5)">c</text><text xml:space="preserve" font-family="Monaco,Monaco" font-size="16.5" fill="#000000" transform="matrix(1.00, 0.00, -0.00, -1.00, 254.8, 380.5)">o</text><text xml:space="preserve" font-family="Monaco,Monaco" font-size="16.5" fill="#000000" transform="matrix(1.00, 0.00, -0.00, -1.00, 264.7, 380.5)">l</text><text xml:space="preserve" font-family="Monaco,Monaco" font-size="16.5" fill="#000000" transform="matrix(1.00, 0.00, -0.00, -1.00, 274.6, 380.5)">u</text><text xml:space="preserve" font-family="Monaco,Monaco" font-size="16.5" fill="#000000" transform="matrix(1.00, 0.00, -0.00, -1.00, 284.5, 380.5)">m</text><text xml:space="preserve" font-family="Monaco,Monaco" font-size="16.5" fill="#000000" transform="matrix(1.00, 0.00, -0.00, -1.00, 294.5, 380.5)">n</text><text xml:space="preserve" font-family="Monaco,Monaco" font-size="16.5" fill="#000000" transform="matrix(1.00, 0.00, -0.00, -1.00, 304.4, 380.5)"> </text><text xml:space="preserve" font-family="Monaco,Monaco" font-size="16.5" fill="#942E2F" transform="matrix(1.00, 0.00, -0.00, -1.00, 314.2, 380.5)">:</text><text xml:space="preserve" font-family="Monaco,Monaco" font-size="16.5" fill="#942E2F" transform="matrix(1.00, 0.00, -0.00, -1.00, 324.1, 380.5)">p</text><text xml:space="preserve" font-family="Monaco,Monaco" font-size="16.5" fill="#942E2F" transform="matrix(1.00, 0.00, -0.00, -1.00, 334.0, 380.5)">h</text><text xml:space="preserve" font-family="Monaco,Monaco" font-size="16.5" fill="#942E2F" transform="matrix(1.00, 0.00, -0.00, -1.00, 343.9, 380.5)">o</text><text xml:space="preserve" font-family="Monaco,Monaco" font-size="16.5" fill="#942E2F" transform="matrix(1.00, 0.00, -0.00, -1.00, 353.8, 380.5)">n</text><text xml:space="preserve" font-family="Monaco,Monaco" font-size="16.5" fill="#942E2F" transform="matrix(1.00, 0.00, -0.00, -1.00, 363.7, 380.5)">e</text><text xml:space="preserve" font-family="Monaco,Monaco" font-size="16.5" fill="#942E2F" transform="matrix(1.00, 0.00, -0.00, -1.00, 373.6, 380.5)">s</text><text xml:space="preserve" font-family="Monaco,Monaco" font-size="16.5" fill="#8C5B48" transform="matrix(1.00, 0.00, -0.00, -1.00, 383.5, 380.5)">,</text><text xml:space="preserve" font-family="Monaco,Monaco" font-size="16.5" fill="#000000" transform="matrix(1.00, 0.00, -0.00, -1.00, 393.4, 380.5)"> </text><text xml:space="preserve" font-family="Monaco,Monaco" font-size="16.5" fill="#942E2F" transform="matrix(1.00, 0.00, -0.00, -1.00, 403.3, 380.5)">:</text><text xml:space="preserve" font-family="Monaco,Monaco" font-size="16.5" fill="#942E2F" transform="matrix(1.00, 0.00, -0.00, -1.00, 413.2, 380.5)">p</text><text xml:space="preserve" font-family="Monaco,Monaco" font-size="16.5" fill="#942E2F" transform="matrix(1.00, 0.00, -0.00, -1.00, 423.2, 380.5)">r</text><text xml:space="preserve" font-family="Monaco,Monaco" font-size="16.5" fill="#942E2F" transform="matrix(1.00, 0.00, -0.00, -1.00, 433.1, 380.5)">e</text><text xml:space="preserve" font-family="Monaco,Monaco" font-size="16.5" fill="#942E2F" transform="matrix(1.00, 0.00, -0.00, -1.00, 443.0, 380.5)">f</text><text xml:space="preserve" font-family="Monaco,Monaco" font-size="16.5" fill="#942E2F" transform="matrix(1.00, 0.00, -0.00, -1.00, 452.9, 380.5)">i</text><text xml:space="preserve" font-family="Monaco,Monaco" font-size="16.5" fill="#942E2F" transform="matrix(1.00, 0.00, -0.00, -1.00, 462.8, 380.5)">x</text><text xml:space="preserve" font-family="Monaco,Monaco" font-size="16.5" fill="#942E2F" transform="matrix(1.00, 0.00, -0.00, -1.00, 472.7, 380.5)"> </text><text xml:space="preserve" font-family="Monaco,Monaco" font-size="16.5" fill="#000000" transform="matrix(1.00, 0.00, -0.00, -1.00, 136.0, 358.5)"> </text><text xml:space="preserve" font-family="Monaco,Monaco" font-size="16.5" fill="#000000" transform="matrix(1.00, 0.00, -0.00, -1.00, 145.9, 358.5)"> </text><text xml:space="preserve" font-family="Monaco,Monaco" font-size="16.5" fill="#000000" transform="matrix(1.00, 0.00, -0.00, -1.00, 155.8, 358.5)"> </text><text xml:space="preserve" font-family="Monaco,Monaco" font-size="16.5" fill="#000000" transform="matrix(1.00, 0.00, -0.00, -1.00, 165.7, 358.5)"> </text><text xml:space="preserve" font-family="Monaco,Monaco" font-size="16.5" fill="#000000" transform="matrix(1.00, 0.00, -0.00, -1.00, 175.6, 358.5)">r</text><text xml:space="preserve" font-family="Monaco,Monaco" font-size="16.5" fill="#000000" transform="matrix(1.00, 0.00, -0.00, -1.00, 185.5, 358.5)">e</text><text xml:space="preserve" font-family="Monaco,Monaco" font-size="16.5" fill="#000000" transform="matrix(1.00, 0.00, -0.00, -1.00, 195.4, 358.5)">m</text><text xml:space="preserve" font-family="Monaco,Monaco" font-size="16.5" fill="#000000" transform="matrix(1.00, 0.00, -0.00, -1.00, 205.3, 358.5)">o</text><text xml:space="preserve" font-family="Monaco,Monaco" font-size="16.5" fill="#000000" transform="matrix(1.00, 0.00, -0.00, -1.00, 215.2, 358.5)">v</text><text xml:space="preserve" font-family="Monaco,Monaco" font-size="16.5" fill="#000000" transform="matrix(1.00, 0.00, -0.00, -1.00, 225.1, 358.5)">e</text><text xml:space="preserve" font-family="Monaco,Monaco" font-size="16.5" fill="#000000" transform="matrix(1.00, 0.00, -0.00, -1.00, 235.0, 358.5)">_</text><text xml:space="preserve" font-family="Monaco,Monaco" font-size="16.5" fill="#000000" transform="matrix(1.00, 0.00, -0.00, -1.00, 244.9, 358.5)">c</text><text xml:space="preserve" font-family="Monaco,Monaco" font-size="16.5" fill="#000000" transform="matrix(1.00, 0.00, -0.00, -1.00, 254.8, 358.5)">o</text><text xml:space="preserve" font-family="Monaco,Monaco" font-size="16.5" fill="#000000" transform="matrix(1.00, 0.00, -0.00, -1.00, 264.7, 358.5)">l</text><text xml:space="preserve" font-family="Monaco,Monaco" font-size="16.5" fill="#000000" transform="matrix(1.00, 0.00, -0.00, -1.00, 274.6, 358.5)">u</text><text xml:space="preserve" font-family="Monaco,Monaco" font-size="16.5" fill="#000000" transform="matrix(1.00, 0.00, -0.00, -1.00, 284.5, 358.5)">m</text><text xml:space="preserve" font-family="Monaco,Monaco" font-size="16.5" fill="#000000" transform="matrix(1.00, 0.00, -0.00, -1.00, 294.5, 358.5)">n</text><text xml:space="preserve" font-family="Monaco,Monaco" font-size="16.5" fill="#000000" transform="matrix(1.00, 0.00, -0.00, -1.00, 304.4, 358.5)"> </text><text xml:space="preserve" font-family="Monaco,Monaco" font-size="16.5" fill="#942E2F" transform="matrix(1.00, 0.00, -0.00, -1.00, 314.2, 358.5)">:</text><text xml:space="preserve" font-family="Monaco,Monaco" font-size="16.5" fill="#942E2F" transform="matrix(1.00, 0.00, -0.00, -1.00, 324.1, 358.5)">p</text><text xml:space="preserve" font-family="Monaco,Monaco" font-size="16.5" fill="#942E2F" transform="matrix(1.00, 0.00, -0.00, -1.00, 334.0, 358.5)">h</text><text xml:space="preserve" font-family="Monaco,Monaco" font-size="16.5" fill="#942E2F" transform="matrix(1.00, 0.00, -0.00, -1.00, 343.9, 358.5)">o</text><text xml:space="preserve" font-family="Monaco,Monaco" font-size="16.5" fill="#942E2F" transform="matrix(1.00, 0.00, -0.00, -1.00, 353.8, 358.5)">n</text><text xml:space="preserve" font-family="Monaco,Monaco" font-size="16.5" fill="#942E2F" transform="matrix(1.00, 0.00, -0.00, -1.00, 363.7, 358.5)">e</text><text xml:space="preserve" font-family="Monaco,Monaco" font-size="16.5" fill="#942E2F" transform="matrix(1.00, 0.00, -0.00, -1.00, 373.6, 358.5)">s</text><text xml:space="preserve" font-family="Monaco,Monaco" font-size="16.5" fill="#8C5B48" transform="matrix(1.00, 0.00, -0.00, -1.00, 383.5, 358.5)">,</text><text xml:space="preserve" font-family="Monaco,Monaco" font-size="16.5" fill="#000000" transform="matrix(1.00, 0.00, -0.00, -1.00, 393.4, 358.5)"> </text><text xml:space="preserve" font-family="Monaco,Monaco" font-size="16.5" fill="#942E2F" transform="matrix(1.00, 0.00, -0.00, -1.00, 403.3, 358.5)">:</text><text xml:space="preserve" font-family="Monaco,Monaco" font-size="16.5" fill="#942E2F" transform="matrix(1.00, 0.00, -0.00, -1.00, 413.2, 358.5)">s</text><text xml:space="preserve" font-family="Monaco,Monaco" font-size="16.5" fill="#942E2F" transform="matrix(1.00, 0.00, -0.00, -1.00, 423.2, 358.5)">u</text><text xml:space="preserve" font-family="Monaco,Monaco" font-size="16.5" fill="#942E2F" transform="matrix(1.00, 0.00, -0.00, -1.00, 433.1, 358.5)">f</text><text xml:space="preserve" font-family="Monaco,Monaco" font-size="16.5" fill="#942E2F" transform="matrix(1.00, 0.00, -0.00, -1.00, 443.0, 358.5)">f</text><text xml:space="preserve" font-family="Monaco,Monaco" font-size="16.5" fill="#942E2F" transform="matrix(1.00, 0.00, -0.00, -1.00, 452.9, 358.5)">i</text><text xml:space="preserve" font-family="Monaco,Monaco" font-size="16.5" fill="#942E2F" transform="matrix(1.00, 0.00, -0.00, -1.00, 462.8, 358.5)">x</text><text xml:space="preserve" font-family="Monaco,Monaco" font-size="16.5" fill="#942E2F" transform="matrix(1.00, 0.00, -0.00, -1.00, 472.7, 358.5)"> </text><text xml:space="preserve" font-family="Monaco,Monaco" font-size="16.5" fill="#000000" transform="matrix(1.00, 0.00, -0.00, -1.00, 136.0, 336.5)"> </text><text xml:space="preserve" font-family="Monaco,Monaco" font-size="16.5" fill="#000000" transform="matrix(1.00, 0.00, -0.00, -1.00, 145.9, 336.5)"> </text><text xml:space="preserve" font-family="Monaco,Monaco" font-size="16.5" fill="#8C5B48" transform="matrix(1.00, 0.00, -0.00, -1.00, 155.8, 336.5)">e</text><text xml:space="preserve" font-family="Monaco,Monaco" font-size="16.5" fill="#8C5B48" transform="matrix(1.00, 0.00, -0.00, -1.00, 165.7, 336.5)">n</text><text xml:space="preserve" font-family="Monaco,Monaco" font-size="16.5" fill="#8C5B48" transform="matrix(1.00, 0.00, -0.00, -1.00, 175.6, 336.5)">d</text><text xml:space="preserve" font-family="Monaco,Monaco" font-size="16.5" fill="#8C5B48" transform="matrix(1.00, 0.00, -0.00, -1.00, 185.5, 336.5)"> </text><text xml:space="preserve" font-family="Monaco,Monaco" font-size="16.5" fill="#8C5B48" transform="matrix(1.00, 0.00, -0.00, -1.00, 136.0, 314.5)">e</text><text xml:space="preserve" font-family="Monaco,Monaco" font-size="16.5" fill="#8C5B48" transform="matrix(1.00, 0.00, -0.00, -1.00, 145.9, 314.5)">n</text><text xml:space="preserve" font-family="Monaco,Monaco" font-size="16.5" fill="#8C5B48" transform="matrix(1.00, 0.00, -0.00, -1.00, 155.8, 314.5)">d</text></g></svg>