<?xml version="1.0" encoding="UTF-8" standalone="no"?><svg xmlns="http://www.w3.org/2000/svg" xmlns:xlink="http://www.w3.org/1999/xlink" clip-rule="evenodd" stroke-miterlimit="10" viewBox="0 0 1024 768"><desc>SVG generated by Keynote</desc><defs></defs><g transform="matrix(1.00, 0.00, -0.00, -1.00, 0.0, 768.0)"><path d="M 0.0 768.0 L 1024.0 768.0 L 1024.0 0.0 L 0.0 0.0 Z M 0.0 768.0 " fill="#FEFFFF"></path><text xml:space="preserve" font-family="GillSans,Gill Sans" font-size="84.0" fill="#000000" transform="matrix(1.00, 0.00, -0.00, -1.00, 185.8, 623.4)">R</text><text xml:space="preserve" font-family="GillSans,Gill Sans" font-size="84.0" fill="#000000" transform="matrix(1.00, 0.00, -0.00, -1.00, 236.6, 623.4)">u</text><text xml:space="preserve" font-family="GillSans,Gill Sans" font-size="84.0" fill="#000000" transform="matrix(1.00, 0.00, -0.00, -1.00, 278.6, 623.4)">n</text><text xml:space="preserve" font-family="GillSans,Gill Sans" font-size="84.0" fill="#000000" transform="matrix(1.00, 0.00, -0.00, -1.00, 320.6, 623.4)">n</text><text xml:space="preserve" font-family="GillSans,Gill Sans" font-size="84.0" fill="#000000" transform="matrix(1.00, 0.00, -0.00, -1.00, 362.6, 623.4)">i</text><text xml:space="preserve" font-family="GillSans,Gill Sans" font-size="84.0" fill="#000000" transform="matrix(1.00, 0.00, -0.00, -1.00, 381.0, 623.4)">n</text><text xml:space="preserve" font-family="GillSans,Gill Sans" font-size="84.0" fill="#000000" transform="matrix(1.00, 0.00, -0.00, -1.00, 423.0, 623.4)">g</text><text xml:space="preserve" font-family="GillSans,Gill Sans" font-size="84.0" fill="#000000" transform="matrix(1.00, 0.00, -0.00, -1.00, 458.8, 623.4)"> </text><text xml:space="preserve" font-family="GillSans,Gill Sans" font-size="84.0" fill="#000000" transform="matrix(1.00, 0.00, -0.00, -1.00, 482.1, 623.4)">M</text><text xml:space="preserve" font-family="GillSans,Gill Sans" font-size="84.0" fill="#000000" transform="matrix(1.00, 0.00, -0.00, -1.00, 547.7, 623.4)">i</text><text xml:space="preserve" font-family="GillSans,Gill Sans" font-size="84.0" fill="#000000" transform="matrix(1.00, 0.00, -0.00, -1.00, 566.1, 623.4)">g</text><text xml:space="preserve" font-family="GillSans,Gill Sans" font-size="84.0" fill="#000000" transform="matrix(1.00, 0.00, -0.00, -1.00, 602.0, 623.4)">r</text><text xml:space="preserve" font-family="GillSans,Gill Sans" font-size="84.0" fill="#000000" transform="matrix(1.00, 0.00, -0.00, -1.00, 635.2, 623.4)">a</text><text xml:space="preserve" font-family="GillSans,Gill Sans" font-size="84.0" fill="#000000" transform="matrix(1.00, 0.00, -0.00, -1.00, 671.1, 623.4)">t</text><text xml:space="preserve" font-family="GillSans,Gill Sans" font-size="84.0" fill="#000000" transform="matrix(1.00, 0.00, -0.00, -1.00, 699.0, 623.4)">i</text><text xml:space="preserve" font-family="GillSans,Gill Sans" font-size="84.0" fill="#000000" transform="matrix(1.00, 0.00, -0.00, -1.00, 717.5, 623.4)">o</text><text xml:space="preserve" font-family="GillSans,Gill Sans" font-size="84.0" fill="#000000" transform="matrix(1.00, 0.00, -0.00, -1.00, 763.8, 623.4)">n</text><text xml:space="preserve" font-family="GillSans,Gill Sans" font-size="84.0" fill="#000000" transform="matrix(1.00, 0.00, -0.00, -1.00, 805.8, 623.4)">s</text><text xml:space="preserve" font-family="Monaco,Monaco" font-size="16.5" fill="#000000" transform="matrix(1.00, 0.00, -0.00, -1.00, 104.0, 483.5)">#</text><text xml:space="preserve" font-family="Monaco,Monaco" font-size="16.5" fill="#000000" transform="matrix(1.00, 0.00, -0.00, -1.00, 113.9, 483.5)"> </text><text xml:space="preserve" font-family="Monaco,Monaco" font-size="16.5" fill="#000000" transform="matrix(1.00, 0.00, -0.00, -1.00, 123.8, 483.5)">r</text><text xml:space="preserve" font-family="Monaco,Monaco" font-size="16.5" fill="#000000" transform="matrix(1.00, 0.00, -0.00, -1.00, 133.7, 483.5)">u</text><text xml:space="preserve" font-family="Monaco,Monaco" font-size="16.5" fill="#000000" transform="matrix(1.00, 0.00, -0.00, -1.00, 143.6, 483.5)">n</text><text xml:space="preserve" font-family="Monaco,Monaco" font-size="16.5" fill="#000000" transform="matrix(1.00, 0.00, -0.00, -1.00, 153.5, 483.5)"> </text><text xml:space="preserve" font-family="Monaco,Monaco" font-size="16.5" fill="#000000" transform="matrix(1.00, 0.00, -0.00, -1.00, 163.4, 483.5)">a</text><text xml:space="preserve" font-family="Monaco,Monaco" font-size="16.5" fill="#000000" transform="matrix(1.00, 0.00, -0.00, -1.00, 173.3, 483.5)">l</text><text xml:space="preserve" font-family="Monaco,Monaco" font-size="16.5" fill="#000000" transform="matrix(1.00, 0.00, -0.00, -1.00, 183.2, 483.5)">l</text><text xml:space="preserve" font-family="Monaco,Monaco" font-size="16.5" fill="#000000" transform="matrix(1.00, 0.00, -0.00, -1.00, 193.1, 483.5)"> </text><text xml:space="preserve" font-family="Monaco,Monaco" font-size="16.5" fill="#000000" transform="matrix(1.00, 0.00, -0.00, -1.00, 203.0, 483.5)">p</text><text xml:space="preserve" font-family="Monaco,Monaco" font-size="16.5" fill="#000000" transform="matrix(1.00, 0.00, -0.00, -1.00, 212.9, 483.5)">e</text><text xml:space="preserve" font-family="Monaco,Monaco" font-size="16.5" fill="#000000" transform="matrix(1.00, 0.00, -0.00, -1.00, 222.8, 483.5)">n</text><text xml:space="preserve" font-family="Monaco,Monaco" font-size="16.5" fill="#000000" transform="matrix(1.00, 0.00, -0.00, -1.00, 232.7, 483.5)">d</text><text xml:space="preserve" font-family="Monaco,Monaco" font-size="16.5" fill="#000000" transform="matrix(1.00, 0.00, -0.00, -1.00, 242.6, 483.5)">i</text><text xml:space="preserve" font-family="Monaco,Monaco" font-size="16.5" fill="#000000" transform="matrix(1.00, 0.00, -0.00, -1.00, 252.5, 483.5)">n</text><text xml:space="preserve" font-family="Monaco,Monaco" font-size="16.5" fill="#000000" transform="matrix(1.00, 0.00, -0.00, -1.00, 262.5, 483.5)">g</text><text xml:space="preserve" font-family="Monaco,Monaco" font-size="16.5" fill="#000000" transform="matrix(1.00, 0.00, -0.00, -1.00, 272.4, 483.5)"> </text><text xml:space="preserve" font-family="Monaco,Monaco" font-size="16.5" fill="#000000" transform="matrix(1.00, 0.00, -0.00, -1.00, 282.3, 483.5)">m</text><text xml:space="preserve" font-family="Monaco,Monaco" font-size="16.5" fill="#000000" transform="matrix(1.00, 0.00, -0.00, -1.00, 292.2, 483.5)">i</text><text xml:space="preserve" font-family="Monaco,Monaco" font-size="16.5" fill="#000000" transform="matrix(1.00, 0.00, -0.00, -1.00, 302.1, 483.5)">g</text><text xml:space="preserve" font-family="Monaco,Monaco" font-size="16.5" fill="#000000" transform="matrix(1.00, 0.00, -0.00, -1.00, 312.0, 483.5)">r</text><text xml:space="preserve" font-family="Monaco,Monaco" font-size="16.5" fill="#000000" transform="matrix(1.00, 0.00, -0.00, -1.00, 321.9, 483.5)">a</text><text xml:space="preserve" font-family="Monaco,Monaco" font-size="16.5" fill="#000000" transform="matrix(1.00, 0.00, -0.00, -1.00, 331.8, 483.5)">t</text><text xml:space="preserve" font-family="Monaco,Monaco" font-size="16.5" fill="#000000" transform="matrix(1.00, 0.00, -0.00, -1.00, 341.7, 483.5)">i</text><text xml:space="preserve" font-family="Monaco,Monaco" font-size="16.5" fill="#000000" transform="matrix(1.00, 0.00, -0.00, -1.00, 351.6, 483.5)">o</text><text xml:space="preserve" font-family="Monaco,Monaco" font-size="16.5" fill="#000000" transform="matrix(1.00, 0.00, -0.00, -1.00, 361.5, 483.5)">n</text><text xml:space="preserve" font-family="Monaco,Monaco" font-size="16.5" fill="#000000" transform="matrix(1.00, 0.00, -0.00, -1.00, 371.4, 483.5)">s</text><text xml:space="preserve" font-family="Monaco,Monaco" font-size="16.5" fill="#000000" transform="matrix(1.00, 0.00, -0.00, -1.00, 381.3, 483.5)"> </text><text xml:space="preserve" font-family="Monaco,Monaco" font-size="16.5" fill="#000000" transform="matrix(1.00, 0.00, -0.00, -1.00, 104.0, 461.5)">$</text><text xml:space="preserve" font-family="Monaco,Monaco" font-size="16.5" fill="#000000" transform="matrix(1.00, 0.00, -0.00, -1.00, 113.9, 461.5)"> </text><text xml:space="preserve" font-family="Monaco,Monaco" font-size="16.5" fill="#000000" transform="matrix(1.00, 0.00, -0.00, -1.00, 123.8, 461.5)">r</text><text xml:space="preserve" font-family="Monaco,Monaco" font-size="16.5" fill="#000000" transform="matrix(1.00, 0.00, -0.00, -1.00, 133.7, 461.5)">a</text><text xml:space="preserve" font-family="Monaco,Monaco" font-size="16.5" fill="#000000" transform="matrix(1.00, 0.00, -0.00, -1.00, 143.6, 461.5)">k</text><text xml:space="preserve" font-family="Monaco,Monaco" font-size="16.5" fill="#000000" transform="matrix(1.00, 0.00, -0.00, -1.00, 153.5, 461.5)">e</text><text xml:space="preserve" font-family="Monaco,Monaco" font-size="16.5" fill="#000000" transform="matrix(1.00, 0.00, -0.00, -1.00, 163.4, 461.5)"> </text><text xml:space="preserve" font-family="Monaco,Monaco" font-size="16.5" fill="#000000" transform="matrix(1.00, 0.00, -0.00, -1.00, 173.3, 461.5)">d</text><text xml:space="preserve" font-family="Monaco,Monaco" font-size="16.5" fill="#000000" transform="matrix(1.00, 0.00, -0.00, -1.00, 183.2, 461.5)">b</text><text xml:space="preserve" font-family="Monaco,Monaco" font-size="16.5" fill="#000000" transform="matrix(1.00, 0.00, -0.00, -1.00, 193.1, 461.5)">:</text><text xml:space="preserve" font-family="Monaco,Monaco" font-size="16.5" fill="#000000" transform="matrix(1.00, 0.00, -0.00, -1.00, 203.0, 461.5)">m</text><text xml:space="preserve" font-family="Monaco,Monaco" font-size="16.5" fill="#000000" transform="matrix(1.00, 0.00, -0.00, -1.00, 212.9, 461.5)">i</text><text xml:space="preserve" font-family="Monaco,Monaco" font-size="16.5" fill="#000000" transform="matrix(1.00, 0.00, -0.00, -1.00, 222.8, 461.5)">g</text><text xml:space="preserve" font-family="Monaco,Monaco" font-size="16.5" fill="#000000" transform="matrix(1.00, 0.00, -0.00, -1.00, 232.7, 461.5)">r</text><text xml:space="preserve" font-family="Monaco,Monaco" font-size="16.5" fill="#000000" transform="matrix(1.00, 0.00, -0.00, -1.00, 242.6, 461.5)">a</text><text xml:space="preserve" font-family="Monaco,Monaco" font-size="16.5" fill="#000000" transform="matrix(1.00, 0.00, -0.00, -1.00, 252.5, 461.5)">t</text><text xml:space="preserve" font-family="Monaco,Monaco" font-size="16.5" fill="#000000" transform="matrix(1.00, 0.00, -0.00, -1.00, 262.5, 461.5)">e</text><text xml:space="preserve" font-family="Monaco,Monaco" font-size="16.5" fill="#000000" transform="matrix(1.00, 0.00, -0.00, -1.00, 272.4, 461.5)"> </text><text xml:space="preserve" font-family="Monaco,Monaco" font-size="16.5" fill="#000000" transform="matrix(1.00, 0.00, -0.00, -1.00, 104.0, 439.5)"> </text><text xml:space="preserve" font-family="Monaco,Monaco" font-size="16.5" fill="#000000" transform="matrix(1.00, 0.00, -0.00, -1.00, 104.0, 417.5)">#</text><text xml:space="preserve" font-family="Monaco,Monaco" font-size="16.5" fill="#000000" transform="matrix(1.00, 0.00, -0.00, -1.00, 113.9, 417.5)"> </text><text xml:space="preserve" font-family="Monaco,Monaco" font-size="16.5" fill="#000000" transform="matrix(1.00, 0.00, -0.00, -1.00, 123.8, 417.5)">r</text><text xml:space="preserve" font-family="Monaco,Monaco" font-size="16.5" fill="#000000" transform="matrix(1.00, 0.00, -0.00, -1.00, 133.7, 417.5)">u</text><text xml:space="preserve" font-family="Monaco,Monaco" font-size="16.5" fill="#000000" transform="matrix(1.00, 0.00, -0.00, -1.00, 143.6, 417.5)">n</text><text xml:space="preserve" font-family="Monaco,Monaco" font-size="16.5" fill="#000000" transform="matrix(1.00, 0.00, -0.00, -1.00, 153.5, 417.5)"> </text><text xml:space="preserve" font-family="Monaco,Monaco" font-size="16.5" fill="#000000" transform="matrix(1.00, 0.00, -0.00, -1.00, 163.4, 417.5)">o</text><text xml:space="preserve" font-family="Monaco,Monaco" font-size="16.5" fill="#000000" transform="matrix(1.00, 0.00, -0.00, -1.00, 173.3, 417.5)">n</text><text xml:space="preserve" font-family="Monaco,Monaco" font-size="16.5" fill="#000000" transform="matrix(1.00, 0.00, -0.00, -1.00, 183.2, 417.5)">l</text><text xml:space="preserve" font-family="Monaco,Monaco" font-size="16.5" fill="#000000" transform="matrix(1.00, 0.00, -0.00, -1.00, 193.1, 417.5)">y</text><text xml:space="preserve" font-family="Monaco,Monaco" font-size="16.5" fill="#000000" transform="matrix(1.00, 0.00, -0.00, -1.00, 203.0, 417.5)"> </text><text xml:space="preserve" font-family="Monaco,Monaco" font-size="16.5" fill="#000000" transform="matrix(1.00, 0.00, -0.00, -1.00, 212.9, 417.5)">X</text><text xml:space="preserve" font-family="Monaco,Monaco" font-size="16.5" fill="#000000" transform="matrix(1.00, 0.00, -0.00, -1.00, 222.8, 417.5)"> </text><text xml:space="preserve" font-family="Monaco,Monaco" font-size="16.5" fill="#000000" transform="matrix(1.00, 0.00, -0.00, -1.00, 232.7, 417.5)">m</text><text xml:space="preserve" font-family="Monaco,Monaco" font-size="16.5" fill="#000000" transform="matrix(1.00, 0.00, -0.00, -1.00, 242.6, 417.5)">i</text><text xml:space="preserve" font-family="Monaco,Monaco" font-size="16.5" fill="#000000" transform="matrix(1.00, 0.00, -0.00, -1.00, 252.5, 417.5)">g</text><text xml:space="preserve" font-family="Monaco,Monaco" font-size="16.5" fill="#000000" transform="matrix(1.00, 0.00, -0.00, -1.00, 262.5, 417.5)">r</text><text xml:space="preserve" font-family="Monaco,Monaco" font-size="16.5" fill="#000000" transform="matrix(1.00, 0.00, -0.00, -1.00, 272.4, 417.5)">a</text><text xml:space="preserve" font-family="Monaco,Monaco" font-size="16.5" fill="#000000" transform="matrix(1.00, 0.00, -0.00, -1.00, 282.3, 417.5)">t</text><text xml:space="preserve" font-family="Monaco,Monaco" font-size="16.5" fill="#000000" transform="matrix(1.00, 0.00, -0.00, -1.00, 292.2, 417.5)">i</text><text xml:space="preserve" font-family="Monaco,Monaco" font-size="16.5" fill="#000000" transform="matrix(1.00, 0.00, -0.00, -1.00, 302.1, 417.5)">o</text><text xml:space="preserve" font-family="Monaco,Monaco" font-size="16.5" fill="#000000" transform="matrix(1.00, 0.00, -0.00, -1.00, 312.0, 417.5)">n</text><text xml:space="preserve" font-family="Monaco,Monaco" font-size="16.5" fill="#000000" transform="matrix(1.00, 0.00, -0.00, -1.00, 321.9, 417.5)">s</text><text xml:space="preserve" font-family="Monaco,Monaco" font-size="16.5" fill="#000000" transform="matrix(1.00, 0.00, -0.00, -1.00, 331.8, 417.5)"> </text><text xml:space="preserve" font-family="Monaco,Monaco" font-size="16.5" fill="#000000" transform="matrix(1.00, 0.00, -0.00, -1.00, 341.7, 417.5)">f</text><text xml:space="preserve" font-family="Monaco,Monaco" font-size="16.5" fill="#000000" transform="matrix(1.00, 0.00, -0.00, -1.00, 351.6, 417.5)">o</text><text xml:space="preserve" font-family="Monaco,Monaco" font-size="16.5" fill="#000000" transform="matrix(1.00, 0.00, -0.00, -1.00, 361.5, 417.5)">r</text><text xml:space="preserve" font-family="Monaco,Monaco" font-size="16.5" fill="#000000" transform="matrix(1.00, 0.00, -0.00, -1.00, 371.4, 417.5)">w</text><text xml:space="preserve" font-family="Monaco,Monaco" font-size="16.5" fill="#000000" transform="matrix(1.00, 0.00, -0.00, -1.00, 381.3, 417.5)">a</text><text xml:space="preserve" font-family="Monaco,Monaco" font-size="16.5" fill="#000000" transform="matrix(1.00, 0.00, -0.00, -1.00, 391.2, 417.5)">r</text><text xml:space="preserve" font-family="Monaco,Monaco" font-size="16.5" fill="#000000" transform="matrix(1.00, 0.00, -0.00, -1.00, 401.1, 417.5)">d</text><text xml:space="preserve" font-family="Monaco,Monaco" font-size="16.5" fill="#000000" transform="matrix(1.00, 0.00, -0.00, -1.00, 411.0, 417.5)"> </text><text xml:space="preserve" font-family="Monaco,Monaco" font-size="16.5" fill="#000000" transform="matrix(1.00, 0.00, -0.00, -1.00, 104.0, 395.5)">$</text><text xml:space="preserve" font-family="Monaco,Monaco" font-size="16.5" fill="#000000" transform="matrix(1.00, 0.00, -0.00, -1.00, 113.9, 395.5)"> </text><text xml:space="preserve" font-family="Monaco,Monaco" font-size="16.5" fill="#000000" transform="matrix(1.00, 0.00, -0.00, -1.00, 123.8, 395.5)">r</text><text xml:space="preserve" font-family="Monaco,Monaco" font-size="16.5" fill="#000000" transform="matrix(1.00, 0.00, -0.00, -1.00, 133.7, 395.5)">a</text><text xml:space="preserve" font-family="Monaco,Monaco" font-size="16.5" fill="#000000" transform="matrix(1.00, 0.00, -0.00, -1.00, 143.6, 395.5)">k</text><text xml:space="preserve" font-family="Monaco,Monaco" font-size="16.5" fill="#000000" transform="matrix(1.00, 0.00, -0.00, -1.00, 153.5, 395.5)">e</text><text xml:space="preserve" font-family="Monaco,Monaco" font-size="16.5" fill="#000000" transform="matrix(1.00, 0.00, -0.00, -1.00, 163.4, 395.5)"> </text><text xml:space="preserve" font-family="Monaco,Monaco" font-size="16.5" fill="#000000" transform="matrix(1.00, 0.00, -0.00, -1.00, 173.3, 395.5)">d</text><text xml:space="preserve" font-family="Monaco,Monaco" font-size="16.5" fill="#000000" transform="matrix(1.00, 0.00, -0.00, -1.00, 183.2, 395.5)">b</text><text xml:space="preserve" font-family="Monaco,Monaco" font-size="16.5" fill="#000000" transform="matrix(1.00, 0.00, -0.00, -1.00, 193.1, 395.5)">:</text><text xml:space="preserve" font-family="Monaco,Monaco" font-size="16.5" fill="#000000" transform="matrix(1.00, 0.00, -0.00, -1.00, 203.0, 395.5)">m</text><text xml:space="preserve" font-family="Monaco,Monaco" font-size="16.5" fill="#000000" transform="matrix(1.00, 0.00, -0.00, -1.00, 212.9, 395.5)">i</text><text xml:space="preserve" font-family="Monaco,Monaco" font-size="16.5" fill="#000000" transform="matrix(1.00, 0.00, -0.00, -1.00, 222.8, 395.5)">g</text><text xml:space="preserve" font-family="Monaco,Monaco" font-size="16.5" fill="#000000" transform="matrix(1.00, 0.00, -0.00, -1.00, 232.7, 395.5)">r</text><text xml:space="preserve" font-family="Monaco,Monaco" font-size="16.5" fill="#000000" transform="matrix(1.00, 0.00, -0.00, -1.00, 242.6, 395.5)">a</text><text xml:space="preserve" font-family="Monaco,Monaco" font-size="16.5" fill="#000000" transform="matrix(1.00, 0.00, -0.00, -1.00, 252.5, 395.5)">t</text><text xml:space="preserve" font-family="Monaco,Monaco" font-size="16.5" fill="#000000" transform="matrix(1.00, 0.00, -0.00, -1.00, 262.5, 395.5)">e</text><text xml:space="preserve" font-family="Monaco,Monaco" font-size="16.5" fill="#000000" transform="matrix(1.00, 0.00, -0.00, -1.00, 272.4, 395.5)"> </text><text xml:space="preserve" font-family="Monaco,Monaco" font-size="16.5" fill="#000000" transform="matrix(1.00, 0.00, -0.00, -1.00, 282.3, 395.5)">S</text><text xml:space="preserve" font-family="Monaco,Monaco" font-size="16.5" fill="#000000" transform="matrix(1.00, 0.00, -0.00, -1.00, 292.2, 395.5)">T</text><text xml:space="preserve" font-family="Monaco,Monaco" font-size="16.5" fill="#000000" transform="matrix(1.00, 0.00, -0.00, -1.00, 302.1, 395.5)">E</text><text xml:space="preserve" font-family="Monaco,Monaco" font-size="16.5" fill="#000000" transform="matrix(1.00, 0.00, -0.00, -1.00, 312.0, 395.5)">P</text><text xml:space="preserve" font-family="Monaco,Monaco" font-size="16.5" fill="#000000" transform="matrix(1.00, 0.00, -0.00, -1.00, 321.9, 395.5)">=</text><text xml:space="preserve" font-family="Monaco,Monaco" font-size="16.5" fill="#000000" transform="matrix(1.00, 0.00, -0.00, -1.00, 331.8, 395.5)">X</text><text xml:space="preserve" font-family="Monaco,Monaco" font-size="16.5" fill="#000000" transform="matrix(1.00, 0.00, -0.00, -1.00, 341.7, 395.5)"> </text><text xml:space="preserve" font-family="Monaco,Monaco" font-size="16.5" fill="#000000" transform="matrix(1.00, 0.00, -0.00, -1.00, 104.0, 373.5)"> </text><text xml:space="preserve" font-family="Monaco,Monaco" font-size="16.5" fill="#000000" transform="matrix(1.00, 0.00, -0.00, -1.00, 104.0, 351.5)">#</text><text xml:space="preserve" font-family="Monaco,Monaco" font-size="16.5" fill="#000000" transform="matrix(1.00, 0.00, -0.00, -1.00, 113.9, 351.5)"> </text><text xml:space="preserve" font-family="Monaco,Monaco" font-size="16.5" fill="#000000" transform="matrix(1.00, 0.00, -0.00, -1.00, 123.8, 351.5)">s</text><text xml:space="preserve" font-family="Monaco,Monaco" font-size="16.5" fill="#000000" transform="matrix(1.00, 0.00, -0.00, -1.00, 133.7, 351.5)">e</text><text xml:space="preserve" font-family="Monaco,Monaco" font-size="16.5" fill="#000000" transform="matrix(1.00, 0.00, -0.00, -1.00, 143.6, 351.5)">t</text><text xml:space="preserve" font-family="Monaco,Monaco" font-size="16.5" fill="#000000" transform="matrix(1.00, 0.00, -0.00, -1.00, 153.5, 351.5)"> </text><text xml:space="preserve" font-family="Monaco,Monaco" font-size="16.5" fill="#000000" transform="matrix(1.00, 0.00, -0.00, -1.00, 163.4, 351.5)">s</text><text xml:space="preserve" font-family="Monaco,Monaco" font-size="16.5" fill="#000000" transform="matrix(1.00, 0.00, -0.00, -1.00, 173.3, 351.5)">c</text><text xml:space="preserve" font-family="Monaco,Monaco" font-size="16.5" fill="#000000" transform="matrix(1.00, 0.00, -0.00, -1.00, 183.2, 351.5)">h</text><text xml:space="preserve" font-family="Monaco,Monaco" font-size="16.5" fill="#000000" transform="matrix(1.00, 0.00, -0.00, -1.00, 193.1, 351.5)">e</text><text xml:space="preserve" font-family="Monaco,Monaco" font-size="16.5" fill="#000000" transform="matrix(1.00, 0.00, -0.00, -1.00, 203.0, 351.5)">m</text><text xml:space="preserve" font-family="Monaco,Monaco" font-size="16.5" fill="#000000" transform="matrix(1.00, 0.00, -0.00, -1.00, 212.9, 351.5)">a</text><text xml:space="preserve" font-family="Monaco,Monaco" font-size="16.5" fill="#000000" transform="matrix(1.00, 0.00, -0.00, -1.00, 222.8, 351.5)"> </text><text xml:space="preserve" font-family="Monaco,Monaco" font-size="16.5" fill="#000000" transform="matrix(1.00, 0.00, -0.00, -1.00, 232.7, 351.5)">t</text><text xml:space="preserve" font-family="Monaco,Monaco" font-size="16.5" fill="#000000" transform="matrix(1.00, 0.00, -0.00, -1.00, 242.6, 351.5)">o</text><text xml:space="preserve" font-family="Monaco,Monaco" font-size="16.5" fill="#000000" transform="matrix(1.00, 0.00, -0.00, -1.00, 252.5, 351.5)"> </text><text xml:space="preserve" font-family="Monaco,Monaco" font-size="16.5" fill="#000000" transform="matrix(1.00, 0.00, -0.00, -1.00, 262.5, 351.5)">s</text><text xml:space="preserve" font-family="Monaco,Monaco" font-size="16.5" fill="#000000" transform="matrix(1.00, 0.00, -0.00, -1.00, 272.4, 351.5)">p</text><text xml:space="preserve" font-family="Monaco,Monaco" font-size="16.5" fill="#000000" transform="matrix(1.00, 0.00, -0.00, -1.00, 282.3, 351.5)">e</text><text xml:space="preserve" font-family="Monaco,Monaco" font-size="16.5" fill="#000000" transform="matrix(1.00, 0.00, -0.00, -1.00, 292.2, 351.5)">c</text><text xml:space="preserve" font-family="Monaco,Monaco" font-size="16.5" fill="#000000" transform="matrix(1.00, 0.00, -0.00, -1.00, 302.1, 351.5)">i</text><text xml:space="preserve" font-family="Monaco,Monaco" font-size="16.5" fill="#000000" transform="matrix(1.00, 0.00, -0.00, -1.00, 312.0, 351.5)">f</text><text xml:space="preserve" font-family="Monaco,Monaco" font-size="16.5" fill="#000000" transform="matrix(1.00, 0.00, -0.00, -1.00, 321.9, 351.5)">i</text><text xml:space="preserve" font-family="Monaco,Monaco" font-size="16.5" fill="#000000" transform="matrix(1.00, 0.00, -0.00, -1.00, 331.8, 351.5)">c</text><text xml:space="preserve" font-family="Monaco,Monaco" font-size="16.5" fill="#000000" transform="matrix(1.00, 0.00, -0.00, -1.00, 341.7, 351.5)"> </text><text xml:space="preserve" font-family="Monaco,Monaco" font-size="16.5" fill="#000000" transform="matrix(1.00, 0.00, -0.00, -1.00, 351.6, 351.5)">v</text><text xml:space="preserve" font-family="Monaco,Monaco" font-size="16.5" fill="#000000" transform="matrix(1.00, 0.00, -0.00, -1.00, 361.5, 351.5)">e</text><text xml:space="preserve" font-family="Monaco,Monaco" font-size="16.5" fill="#000000" transform="matrix(1.00, 0.00, -0.00, -1.00, 371.4, 351.5)">r</text><text xml:space="preserve" font-family="Monaco,Monaco" font-size="16.5" fill="#000000" transform="matrix(1.00, 0.00, -0.00, -1.00, 381.3, 351.5)">s</text><text xml:space="preserve" font-family="Monaco,Monaco" font-size="16.5" fill="#000000" transform="matrix(1.00, 0.00, -0.00, -1.00, 391.2, 351.5)">i</text><text xml:space="preserve" font-family="Monaco,Monaco" font-size="16.5" fill="#000000" transform="matrix(1.00, 0.00, -0.00, -1.00, 401.1, 351.5)">o</text><text xml:space="preserve" font-family="Monaco,Monaco" font-size="16.5" fill="#000000" transform="matrix(1.00, 0.00, -0.00, -1.00, 411.0, 351.5)">n</text><text xml:space="preserve" font-family="Monaco,Monaco" font-size="16.5" fill="#000000" transform="matrix(1.00, 0.00, -0.00, -1.00, 420.9, 351.5)"> </text><text xml:space="preserve" font-family="Monaco,Monaco" font-size="16.5" fill="#000000" transform="matrix(1.00, 0.00, -0.00, -1.00, 104.0, 329.5)">$</text><text xml:space="preserve" font-family="Monaco,Monaco" font-size="16.5" fill="#000000" transform="matrix(1.00, 0.00, -0.00, -1.00, 113.9, 329.5)"> </text><text xml:space="preserve" font-family="Monaco,Monaco" font-size="16.5" fill="#000000" transform="matrix(1.00, 0.00, -0.00, -1.00, 123.8, 329.5)">r</text><text xml:space="preserve" font-family="Monaco,Monaco" font-size="16.5" fill="#000000" transform="matrix(1.00, 0.00, -0.00, -1.00, 133.7, 329.5)">a</text><text xml:space="preserve" font-family="Monaco,Monaco" font-size="16.5" fill="#000000" transform="matrix(1.00, 0.00, -0.00, -1.00, 143.6, 329.5)">k</text><text xml:space="preserve" font-family="Monaco,Monaco" font-size="16.5" fill="#000000" transform="matrix(1.00, 0.00, -0.00, -1.00, 153.5, 329.5)">e</text><text xml:space="preserve" font-family="Monaco,Monaco" font-size="16.5" fill="#000000" transform="matrix(1.00, 0.00, -0.00, -1.00, 163.4, 329.5)"> </text><text xml:space="preserve" font-family="Monaco,Monaco" font-size="16.5" fill="#000000" transform="matrix(1.00, 0.00, -0.00, -1.00, 173.3, 329.5)">d</text><text xml:space="preserve" font-family="Monaco,Monaco" font-size="16.5" fill="#000000" transform="matrix(1.00, 0.00, -0.00, -1.00, 183.2, 329.5)">b</text><text xml:space="preserve" font-family="Monaco,Monaco" font-size="16.5" fill="#000000" transform="matrix(1.00, 0.00, -0.00, -1.00, 193.1, 329.5)">:</text><text xml:space="preserve" font-family="Monaco,Monaco" font-size="16.5" fill="#000000" transform="matrix(1.00, 0.00, -0.00, -1.00, 203.0, 329.5)">m</text><text xml:space="preserve" font-family="Monaco,Monaco" font-size="16.5" fill="#000000" transform="matrix(1.00, 0.00, -0.00, -1.00, 212.9, 329.5)">i</text><text xml:space="preserve" font-family="Monaco,Monaco" font-size="16.5" fill="#000000" transform="matrix(1.00, 0.00, -0.00, -1.00, 222.8, 329.5)">g</text><text xml:space="preserve" font-family="Monaco,Monaco" font-size="16.5" fill="#000000" transform="matrix(1.00, 0.00, -0.00, -1.00, 232.7, 329.5)">r</text><text xml:space="preserve" font-family="Monaco,Monaco" font-size="16.5" fill="#000000" transform="matrix(1.00, 0.00, -0.00, -1.00, 242.6, 329.5)">a</text><text xml:space="preserve" font-family="Monaco,Monaco" font-size="16.5" fill="#000000" transform="matrix(1.00, 0.00, -0.00, -1.00, 252.5, 329.5)">t</text><text xml:space="preserve" font-family="Monaco,Monaco" font-size="16.5" fill="#000000" transform="matrix(1.00, 0.00, -0.00, -1.00, 262.5, 329.5)">e</text><text xml:space="preserve" font-family="Monaco,Monaco" font-size="16.5" fill="#000000" transform="matrix(1.00, 0.00, -0.00, -1.00, 272.4, 329.5)"> </text><text xml:space="preserve" font-family="Monaco,Monaco" font-size="16.5" fill="#000000" transform="matrix(1.00, 0.00, -0.00, -1.00, 282.3, 329.5)">V</text><text xml:space="preserve" font-family="Monaco,Monaco" font-size="16.5" fill="#000000" transform="matrix(1.00, 0.00, -0.00, -1.00, 292.2, 329.5)">E</text><text xml:space="preserve" font-family="Monaco,Monaco" font-size="16.5" fill="#000000" transform="matrix(1.00, 0.00, -0.00, -1.00, 302.1, 329.5)">R</text><text xml:space="preserve" font-family="Monaco,Monaco" font-size="16.5" fill="#000000" transform="matrix(1.00, 0.00, -0.00, -1.00, 312.0, 329.5)">S</text><text xml:space="preserve" font-family="Monaco,Monaco" font-size="16.5" fill="#000000" transform="matrix(1.00, 0.00, -0.00, -1.00, 321.9, 329.5)">I</text><text xml:space="preserve" font-family="Monaco,Monaco" font-size="16.5" fill="#000000" transform="matrix(1.00, 0.00, -0.00, -1.00, 331.8, 329.5)">O</text><text xml:space="preserve" font-family="Monaco,Monaco" font-size="16.5" fill="#000000" transform="matrix(1.00, 0.00, -0.00, -1.00, 341.7, 329.5)">N</text><text xml:space="preserve" font-family="Monaco,Monaco" font-size="16.5" fill="#000000" transform="matrix(1.00, 0.00, -0.00, -1.00, 351.6, 329.5)">=</text><text xml:space="preserve" font-family="Monaco,Monaco" font-size="16.5" fill="#000000" transform="matrix(1.00, 0.00, -0.00, -1.00, 361.5, 329.5)">Y</text><text xml:space="preserve" font-family="Monaco,Monaco" font-size="16.5" fill="#000000" transform="matrix(1.00, 0.00, -0.00, -1.00, 371.4, 329.5)">Y</text><text xml:space="preserve" font-family="Monaco,Monaco" font-size="16.5" fill="#000000" transform="matrix(1.00, 0.00, -0.00, -1.00, 381.3, 329.5)">Y</text><text xml:space="preserve" font-family="Monaco,Monaco" font-size="16.5" fill="#000000" transform="matrix(1.00, 0.00, -0.00, -1.00, 391.2, 329.5)">Y</text><text xml:space="preserve" font-family="Monaco,Monaco" font-size="16.5" fill="#000000" transform="matrix(1.00, 0.00, -0.00, -1.00, 401.1, 329.5)">M</text><text xml:space="preserve" font-family="Monaco,Monaco" font-size="16.5" fill="#000000" transform="matrix(1.00, 0.00, -0.00, -1.00, 411.0, 329.5)">M</text><text xml:space="preserve" font-family="Monaco,Monaco" font-size="16.5" fill="#000000" transform="matrix(1.00, 0.00, -0.00, -1.00, 420.9, 329.5)">D</text><text xml:space="preserve" font-family="Monaco,Monaco" font-size="16.5" fill="#000000" transform="matrix(1.00, 0.00, -0.00, -1.00, 430.8, 329.5)">D</text><text xml:space="preserve" font-family="Monaco,Monaco" font-size="16.5" fill="#000000" transform="matrix(1.00, 0.00, -0.00, -1.00, 440.7, 329.5)">H</text><text xml:space="preserve" font-family="Monaco,Monaco" font-size="16.5" fill="#000000" transform="matrix(1.00, 0.00, -0.00, -1.00, 450.6, 329.5)">H</text><text xml:space="preserve" font-family="Monaco,Monaco" font-size="16.5" fill="#000000" transform="matrix(1.00, 0.00, -0.00, -1.00, 460.5, 329.5)">M</text><text xml:space="preserve" font-family="Monaco,Monaco" font-size="16.5" fill="#000000" transform="matrix(1.00, 0.00, -0.00, -1.00, 470.4, 329.5)">M</text><text xml:space="preserve" font-family="Monaco,Monaco" font-size="16.5" fill="#000000" transform="matrix(1.00, 0.00, -0.00, -1.00, 480.3, 329.5)">S</text><text xml:space="preserve" font-family="Monaco,Monaco" font-size="16.5" fill="#000000" transform="matrix(1.00, 0.00, -0.00, -1.00, 490.2, 329.5)">S</text><text xml:space="preserve" font-family="Monaco,Monaco" font-size="16.5" fill="#000000" transform="matrix(1.00, 0.00, -0.00, -1.00, 500.1, 329.5)"> </text><text xml:space="preserve" font-family="Monaco,Monaco" font-size="16.5" fill="#000000" transform="matrix(1.00, 0.00, -0.00, -1.00, 104.0, 307.5)"> </text><text xml:space="preserve" font-family="Monaco,Monaco" font-size="16.5" fill="#000000" transform="matrix(1.00, 0.00, -0.00, -1.00, 104.0, 285.5)">#</text><text xml:space="preserve" font-family="Monaco,Monaco" font-size="16.5" fill="#000000" transform="matrix(1.00, 0.00, -0.00, -1.00, 113.9, 285.5)"> </text><text xml:space="preserve" font-family="Monaco,Monaco" font-size="16.5" fill="#000000" transform="matrix(1.00, 0.00, -0.00, -1.00, 123.8, 285.5)">r</text><text xml:space="preserve" font-family="Monaco,Monaco" font-size="16.5" fill="#000000" transform="matrix(1.00, 0.00, -0.00, -1.00, 133.7, 285.5)">o</text><text xml:space="preserve" font-family="Monaco,Monaco" font-size="16.5" fill="#000000" transform="matrix(1.00, 0.00, -0.00, -1.00, 143.6, 285.5)">l</text><text xml:space="preserve" font-family="Monaco,Monaco" font-size="16.5" fill="#000000" transform="matrix(1.00, 0.00, -0.00, -1.00, 153.5, 285.5)">l</text><text xml:space="preserve" font-family="Monaco,Monaco" font-size="16.5" fill="#000000" transform="matrix(1.00, 0.00, -0.00, -1.00, 163.4, 285.5)"> </text><text xml:space="preserve" font-family="Monaco,Monaco" font-size="16.5" fill="#000000" transform="matrix(1.00, 0.00, -0.00, -1.00, 173.3, 285.5)">b</text><text xml:space="preserve" font-family="Monaco,Monaco" font-size="16.5" fill="#000000" transform="matrix(1.00, 0.00, -0.00, -1.00, 183.2, 285.5)">a</text><text xml:space="preserve" font-family="Monaco,Monaco" font-size="16.5" fill="#000000" transform="matrix(1.00, 0.00, -0.00, -1.00, 193.1, 285.5)">c</text><text xml:space="preserve" font-family="Monaco,Monaco" font-size="16.5" fill="#000000" transform="matrix(1.00, 0.00, -0.00, -1.00, 203.0, 285.5)">k</text><text xml:space="preserve" font-family="Monaco,Monaco" font-size="16.5" fill="#000000" transform="matrix(1.00, 0.00, -0.00, -1.00, 212.9, 285.5)"> </text><text xml:space="preserve" font-family="Monaco,Monaco" font-size="16.5" fill="#000000" transform="matrix(1.00, 0.00, -0.00, -1.00, 222.8, 285.5)">X</text><text xml:space="preserve" font-family="Monaco,Monaco" font-size="16.5" fill="#000000" transform="matrix(1.00, 0.00, -0.00, -1.00, 232.7, 285.5)"> </text><text xml:space="preserve" font-family="Monaco,Monaco" font-size="16.5" fill="#000000" transform="matrix(1.00, 0.00, -0.00, -1.00, 242.6, 285.5)">s</text><text xml:space="preserve" font-family="Monaco,Monaco" font-size="16.5" fill="#000000" transform="matrix(1.00, 0.00, -0.00, -1.00, 252.5, 285.5)">t</text><text xml:space="preserve" font-family="Monaco,Monaco" font-size="16.5" fill="#000000" transform="matrix(1.00, 0.00, -0.00, -1.00, 262.5, 285.5)">e</text><text xml:space="preserve" font-family="Monaco,Monaco" font-size="16.5" fill="#000000" transform="matrix(1.00, 0.00, -0.00, -1.00, 272.4, 285.5)">p</text><text xml:space="preserve" font-family="Monaco,Monaco" font-size="16.5" fill="#000000" transform="matrix(1.00, 0.00, -0.00, -1.00, 282.3, 285.5)">s</text><text xml:space="preserve" font-family="Monaco,Monaco" font-size="16.5" fill="#000000" transform="matrix(1.00, 0.00, -0.00, -1.00, 292.2, 285.5)"> </text><text xml:space="preserve" font-family="Monaco,Monaco" font-size="16.5" fill="#000000" transform="matrix(1.00, 0.00, -0.00, -1.00, 104.0, 263.5)">$</text><text xml:space="preserve" font-family="Monaco,Monaco" font-size="16.5" fill="#000000" transform="matrix(1.00, 0.00, -0.00, -1.00, 113.9, 263.5)"> </text><text xml:space="preserve" font-family="Monaco,Monaco" font-size="16.5" fill="#000000" transform="matrix(1.00, 0.00, -0.00, -1.00, 123.8, 263.5)">r</text><text xml:space="preserve" font-family="Monaco,Monaco" font-size="16.5" fill="#000000" transform="matrix(1.00, 0.00, -0.00, -1.00, 133.7, 263.5)">a</text><text xml:space="preserve" font-family="Monaco,Monaco" font-size="16.5" fill="#000000" transform="matrix(1.00, 0.00, -0.00, -1.00, 143.6, 263.5)">k</text><text xml:space="preserve" font-family="Monaco,Monaco" font-size="16.5" fill="#000000" transform="matrix(1.00, 0.00, -0.00, -1.00, 153.5, 263.5)">e</text><text xml:space="preserve" font-family="Monaco,Monaco" font-size="16.5" fill="#000000" transform="matrix(1.00, 0.00, -0.00, -1.00, 163.4, 263.5)"> </text><text xml:space="preserve" font-family="Monaco,Monaco" font-size="16.5" fill="#000000" transform="matrix(1.00, 0.00, -0.00, -1.00, 173.3, 263.5)">d</text><text xml:space="preserve" font-family="Monaco,Monaco" font-size="16.5" fill="#000000" transform="matrix(1.00, 0.00, -0.00, -1.00, 183.2, 263.5)">b</text><text xml:space="preserve" font-family="Monaco,Monaco" font-size="16.5" fill="#000000" transform="matrix(1.00, 0.00, -0.00, -1.00, 193.1, 263.5)">:</text><text xml:space="preserve" font-family="Monaco,Monaco" font-size="16.5" fill="#000000" transform="matrix(1.00, 0.00, -0.00, -1.00, 203.0, 263.5)">r</text><text xml:space="preserve" font-family="Monaco,Monaco" font-size="16.5" fill="#000000" transform="matrix(1.00, 0.00, -0.00, -1.00, 212.9, 263.5)">o</text><text xml:space="preserve" font-family="Monaco,Monaco" font-size="16.5" fill="#000000" transform="matrix(1.00, 0.00, -0.00, -1.00, 222.8, 263.5)">l</text><text xml:space="preserve" font-family="Monaco,Monaco" font-size="16.5" fill="#000000" transform="matrix(1.00, 0.00, -0.00, -1.00, 232.7, 263.5)">l</text><text xml:space="preserve" font-family="Monaco,Monaco" font-size="16.5" fill="#000000" transform="matrix(1.00, 0.00, -0.00, -1.00, 242.6, 263.5)">b</text><text xml:space="preserve" font-family="Monaco,Monaco" font-size="16.5" fill="#000000" transform="matrix(1.00, 0.00, -0.00, -1.00, 252.5, 263.5)">a</text><text xml:space="preserve" font-family="Monaco,Monaco" font-size="16.5" fill="#000000" transform="matrix(1.00, 0.00, -0.00, -1.00, 262.5, 263.5)">c</text><text xml:space="preserve" font-family="Monaco,Monaco" font-size="16.5" fill="#000000" transform="matrix(1.00, 0.00, -0.00, -1.00, 272.4, 263.5)">k</text><text xml:space="preserve" font-family="Monaco,Monaco" font-size="16.5" fill="#000000" transform="matrix(1.00, 0.00, -0.00, -1.00, 282.3, 263.5)"> </text><text xml:space="preserve" font-family="Monaco,Monaco" font-size="16.5" fill="#000000" transform="matrix(1.00, 0.00, -0.00, -1.00, 292.2, 263.5)">S</text><text xml:space="preserve" font-family="Monaco,Monaco" font-size="16.5" fill="#000000" transform="matrix(1.00, 0.00, -0.00, -1.00, 302.1, 263.5)">T</text><text xml:space="preserve" font-family="Monaco,Monaco" font-size="16.5" fill="#000000" transform="matrix(1.00, 0.00, -0.00, -1.00, 312.0, 263.5)">E</text><text xml:space="preserve" font-family="Monaco,Monaco" font-size="16.5" fill="#000000" transform="matrix(1.00, 0.00, -0.00, -1.00, 321.9, 263.5)">P</text><text xml:space="preserve" font-family="Monaco,Monaco" font-size="16.5" fill="#000000" transform="matrix(1.00, 0.00, -0.00, -1.00, 331.8, 263.5)">=</text><text xml:space="preserve" font-family="Monaco,Monaco" font-size="16.5" fill="#000000" transform="matrix(1.00, 0.00, -0.00, -1.00, 341.7, 263.5)">X</text><text xml:space="preserve" font-family="Monaco,Monaco" font-size="16.5" fill="#000000" transform="matrix(1.00, 0.00, -0.00, -1.00, 104.0, 219.5)">#</text><text xml:space="preserve" font-family="Monaco,Monaco" font-size="16.5" fill="#000000" transform="matrix(1.00, 0.00, -0.00, -1.00, 113.9, 219.5)"> </text><text xml:space="preserve" font-family="Monaco,Monaco" font-size="16.5" fill="#000000" transform="matrix(1.00, 0.00, -0.00, -1.00, 123.8, 219.5)">r</text><text xml:space="preserve" font-family="Monaco,Monaco" font-size="16.5" fill="#000000" transform="matrix(1.00, 0.00, -0.00, -1.00, 133.7, 219.5)">e</text><text xml:space="preserve" font-family="Monaco,Monaco" font-size="16.5" fill="#000000" transform="matrix(1.00, 0.00, -0.00, -1.00, 143.6, 219.5)">d</text><text xml:space="preserve" font-family="Monaco,Monaco" font-size="16.5" fill="#000000" transform="matrix(1.00, 0.00, -0.00, -1.00, 153.5, 219.5)">o</text><text xml:space="preserve" font-family="Monaco,Monaco" font-size="16.5" fill="#000000" transform="matrix(1.00, 0.00, -0.00, -1.00, 163.4, 219.5)"> </text><text xml:space="preserve" font-family="Monaco,Monaco" font-size="16.5" fill="#000000" transform="matrix(1.00, 0.00, -0.00, -1.00, 173.3, 219.5)">X</text><text xml:space="preserve" font-family="Monaco,Monaco" font-size="16.5" fill="#000000" transform="matrix(1.00, 0.00, -0.00, -1.00, 183.2, 219.5)"> </text><text xml:space="preserve" font-family="Monaco,Monaco" font-size="16.5" fill="#000000" transform="matrix(1.00, 0.00, -0.00, -1.00, 193.1, 219.5)">m</text><text xml:space="preserve" font-family="Monaco,Monaco" font-size="16.5" fill="#000000" transform="matrix(1.00, 0.00, -0.00, -1.00, 203.0, 219.5)">i</text><text xml:space="preserve" font-family="Monaco,Monaco" font-size="16.5" fill="#000000" transform="matrix(1.00, 0.00, -0.00, -1.00, 212.9, 219.5)">g</text><text xml:space="preserve" font-family="Monaco,Monaco" font-size="16.5" fill="#000000" transform="matrix(1.00, 0.00, -0.00, -1.00, 222.8, 219.5)">r</text><text xml:space="preserve" font-family="Monaco,Monaco" font-size="16.5" fill="#000000" transform="matrix(1.00, 0.00, -0.00, -1.00, 232.7, 219.5)">a</text><text xml:space="preserve" font-family="Monaco,Monaco" font-size="16.5" fill="#000000" transform="matrix(1.00, 0.00, -0.00, -1.00, 242.6, 219.5)">t</text><text xml:space="preserve" font-family="Monaco,Monaco" font-size="16.5" fill="#000000" transform="matrix(1.00, 0.00, -0.00, -1.00, 252.5, 219.5)">i</text><text xml:space="preserve" font-family="Monaco,Monaco" font-size="16.5" fill="#000000" transform="matrix(1.00, 0.00, -0.00, -1.00, 262.5, 219.5)">o</text><text xml:space="preserve" font-family="Monaco,Monaco" font-size="16.5" fill="#000000" transform="matrix(1.00, 0.00, -0.00, -1.00, 272.4, 219.5)">n</text><text xml:space="preserve" font-family="Monaco,Monaco" font-size="16.5" fill="#000000" transform="matrix(1.00, 0.00, -0.00, -1.00, 282.3, 219.5)">s</text><text xml:space="preserve" font-family="Monaco,Monaco" font-size="16.5" fill="#000000" transform="matrix(1.00, 0.00, -0.00, -1.00, 104.0, 197.5)">$</text><text xml:space="preserve" font-family="Monaco,Monaco" font-size="16.5" fill="#000000" transform="matrix(1.00, 0.00, -0.00, -1.00, 113.9, 197.5)"> </text><text xml:space="preserve" font-family="Monaco,Monaco" font-size="16.5" fill="#000000" transform="matrix(1.00, 0.00, -0.00, -1.00, 123.8, 197.5)">r</text><text xml:space="preserve" font-family="Monaco,Monaco" font-size="16.5" fill="#000000" transform="matrix(1.00, 0.00, -0.00, -1.00, 133.7, 197.5)">a</text><text xml:space="preserve" font-family="Monaco,Monaco" font-size="16.5" fill="#000000" transform="matrix(1.00, 0.00, -0.00, -1.00, 143.6, 197.5)">k</text><text xml:space="preserve" font-family="Monaco,Monaco" font-size="16.5" fill="#000000" transform="matrix(1.00, 0.00, -0.00, -1.00, 153.5, 197.5)">e</text><text xml:space="preserve" font-family="Monaco,Monaco" font-size="16.5" fill="#000000" transform="matrix(1.00, 0.00, -0.00, -1.00, 163.4, 197.5)"> </text><text xml:space="preserve" font-family="Monaco,Monaco" font-size="16.5" fill="#000000" transform="matrix(1.00, 0.00, -0.00, -1.00, 173.3, 197.5)">d</text><text xml:space="preserve" font-family="Monaco,Monaco" font-size="16.5" fill="#000000" transform="matrix(1.00, 0.00, -0.00, -1.00, 183.2, 197.5)">b</text><text xml:space="preserve" font-family="Monaco,Monaco" font-size="16.5" fill="#000000" transform="matrix(1.00, 0.00, -0.00, -1.00, 193.1, 197.5)">:</text><text xml:space="preserve" font-family="Monaco,Monaco" font-size="16.5" fill="#000000" transform="matrix(1.00, 0.00, -0.00, -1.00, 203.0, 197.5)">m</text><text xml:space="preserve" font-family="Monaco,Monaco" font-size="16.5" fill="#000000" transform="matrix(1.00, 0.00, -0.00, -1.00, 212.9, 197.5)">i</text><text xml:space="preserve" font-family="Monaco,Monaco" font-size="16.5" fill="#000000" transform="matrix(1.00, 0.00, -0.00, -1.00, 222.8, 197.5)">g</text><text xml:space="preserve" font-family="Monaco,Monaco" font-size="16.5" fill="#000000" transform="matrix(1.00, 0.00, -0.00, -1.00, 232.7, 197.5)">r</text><text xml:space="preserve" font-family="Monaco,Monaco" font-size="16.5" fill="#000000" transform="matrix(1.00, 0.00, -0.00, -1.00, 242.6, 197.5)">a</text><text xml:space="preserve" font-family="Monaco,Monaco" font-size="16.5" fill="#000000" transform="matrix(1.00, 0.00, -0.00, -1.00, 252.5, 197.5)">t</text><text xml:space="preserve" font-family="Monaco,Monaco" font-size="16.5" fill="#000000" transform="matrix(1.00, 0.00, -0.00, -1.00, 262.5, 197.5)">e</text><text xml:space="preserve" font-family="Monaco,Monaco" font-size="16.5" fill="#000000" transform="matrix(1.00, 0.00, -0.00, -1.00, 272.4, 197.5)">:</text><text xml:space="preserve" font-family="Monaco,Monaco" font-size="16.5" fill="#000000" transform="matrix(1.00, 0.00, -0.00, -1.00, 282.3, 197.5)">r</text><text xml:space="preserve" font-family="Monaco,Monaco" font-size="16.5" fill="#000000" transform="matrix(1.00, 0.00, -0.00, -1.00, 292.2, 197.5)">e</text><text xml:space="preserve" font-family="Monaco,Monaco" font-size="16.5" fill="#000000" transform="matrix(1.00, 0.00, -0.00, -1.00, 302.1, 197.5)">d</text><text xml:space="preserve" font-family="Monaco,Monaco" font-size="16.5" fill="#000000" transform="matrix(1.00, 0.00, -0.00, -1.00, 312.0, 197.5)">o</text><text xml:space="preserve" font-family="Monaco,Monaco" font-size="16.5" fill="#000000" transform="matrix(1.00, 0.00, -0.00, -1.00, 321.9, 197.5)"> </text><text xml:space="preserve" font-family="Monaco,Monaco" font-size="16.5" fill="#000000" transform="matrix(1.00, 0.00, -0.00, -1.00, 331.8, 197.5)">S</text><text xml:space="preserve" font-family="Monaco,Monaco" font-size="16.5" fill="#000000" transform="matrix(1.00, 0.00, -0.00, -1.00, 341.7, 197.5)">T</text><text xml:space="preserve" font-family="Monaco,Monaco" font-size="16.5" fill="#000000" transform="matrix(1.00, 0.00, -0.00, -1.00, 351.6, 197.5)">E</text><text xml:space="preserve" font-family="Monaco,Monaco" font-size="16.5" fill="#000000" transform="matrix(1.00, 0.00, -0.00, -1.00, 361.5, 197.5)">P</text><text xml:space="preserve" font-family="Monaco,Monaco" font-size="16.5" fill="#000000" transform="matrix(1.00, 0.00, -0.00, -1.00, 371.4, 197.5)">=</text><text xml:space="preserve" font-family="Monaco,Monaco" font-size="16.5" fill="#000000" transform="matrix(1.00, 0.00, -0.00, -1.00, 381.3, 197.5)">X</text><text xml:space="preserve" font-family="Monaco,Monaco" font-size="16.5" fill="#000000" transform="matrix(1.00, 0.00, -0.00, -1.00, 391.2, 197.5)"> </text><text xml:space="preserve" font-family="Monaco,Monaco" font-size="16.5" fill="#000000" transform="matrix(1.00, 0.00, -0.00, -1.00, 104.0, 175.5)"> </text></g></svg>