<?xml version="1.0" encoding="UTF-8" standalone="no"?><svg xmlns="http://www.w3.org/2000/svg" xmlns:xlink="http://www.w3.org/1999/xlink" clip-rule="evenodd" stroke-miterlimit="10" viewBox="0 0 1024 768"><desc>SVG generated by Keynote</desc><defs></defs><g transform="matrix(1.00, 0.00, -0.00, -1.00, 0.0, 768.0)"><path d="M 0.0 768.0 L 1024.0 768.0 L 1024.0 0.0 L 0.0 0.0 Z M 0.0 768.0 " fill="#FEFFFF"></path><text xml:space="preserve" font-family="GillSans,Gill Sans" font-size="84.0" fill="#000000" transform="matrix(1.00, 0.00, -0.00, -1.00, 218.6, 623.4)">S</text><text xml:space="preserve" font-family="GillSans,Gill Sans" font-size="84.0" fill="#000000" transform="matrix(1.00, 0.00, -0.00, -1.00, 257.1, 623.4)">a</text><text xml:space="preserve" font-family="GillSans,Gill Sans" font-size="84.0" fill="#000000" transform="matrix(1.00, 0.00, -0.00, -1.00, 292.9, 623.4)">m</text><text xml:space="preserve" font-family="GillSans,Gill Sans" font-size="84.0" fill="#000000" transform="matrix(1.00, 0.00, -0.00, -1.00, 357.7, 623.4)">p</text><text xml:space="preserve" font-family="GillSans,Gill Sans" font-size="84.0" fill="#000000" transform="matrix(1.00, 0.00, -0.00, -1.00, 399.7, 623.4)">l</text><text xml:space="preserve" font-family="GillSans,Gill Sans" font-size="84.0" fill="#000000" transform="matrix(1.00, 0.00, -0.00, -1.00, 418.1, 623.4)">e</text><text xml:space="preserve" font-family="GillSans,Gill Sans" font-size="84.0" fill="#000000" transform="matrix(1.00, 0.00, -0.00, -1.00, 458.4, 623.4)"> </text><text xml:space="preserve" font-family="GillSans,Gill Sans" font-size="84.0" fill="#000000" transform="matrix(1.00, 0.00, -0.00, -1.00, 481.7, 623.4)">M</text><text xml:space="preserve" font-family="GillSans,Gill Sans" font-size="84.0" fill="#000000" transform="matrix(1.00, 0.00, -0.00, -1.00, 547.2, 623.4)">i</text><text xml:space="preserve" font-family="GillSans,Gill Sans" font-size="84.0" fill="#000000" transform="matrix(1.00, 0.00, -0.00, -1.00, 565.7, 623.4)">g</text><text xml:space="preserve" font-family="GillSans,Gill Sans" font-size="84.0" fill="#000000" transform="matrix(1.00, 0.00, -0.00, -1.00, 601.5, 623.4)">r</text><text xml:space="preserve" font-family="GillSans,Gill Sans" font-size="84.0" fill="#000000" transform="matrix(1.00, 0.00, -0.00, -1.00, 634.8, 623.4)">a</text><text xml:space="preserve" font-family="GillSans,Gill Sans" font-size="84.0" fill="#000000" transform="matrix(1.00, 0.00, -0.00, -1.00, 670.6, 623.4)">t</text><text xml:space="preserve" font-family="GillSans,Gill Sans" font-size="84.0" fill="#000000" transform="matrix(1.00, 0.00, -0.00, -1.00, 698.6, 623.4)">i</text><text xml:space="preserve" font-family="GillSans,Gill Sans" font-size="84.0" fill="#000000" transform="matrix(1.00, 0.00, -0.00, -1.00, 717.0, 623.4)">o</text><text xml:space="preserve" font-family="GillSans,Gill Sans" font-size="84.0" fill="#000000" transform="matrix(1.00, 0.00, -0.00, -1.00, 763.3, 623.4)">n</text><text xml:space="preserve" font-family="Monaco,Monaco" font-size="16.5" fill="#8C5B48" transform="matrix(1.00, 0.00, -0.00, -1.00, 104.0, 461.5)">c</text><text xml:space="preserve" font-family="Monaco,Monaco" font-size="16.5" fill="#8C5B48" transform="matrix(1.00, 0.00, -0.00, -1.00, 113.9, 461.5)">l</text><text xml:space="preserve" font-family="Monaco,Monaco" font-size="16.5" fill="#8C5B48" transform="matrix(1.00, 0.00, -0.00, -1.00, 123.8, 461.5)">a</text><text xml:space="preserve" font-family="Monaco,Monaco" font-size="16.5" fill="#8C5B48" transform="matrix(1.00, 0.00, -0.00, -1.00, 133.7, 461.5)">s</text><text xml:space="preserve" font-family="Monaco,Monaco" font-size="16.5" fill="#8C5B48" transform="matrix(1.00, 0.00, -0.00, -1.00, 143.6, 461.5)">s</text><text xml:space="preserve" font-family="Monaco,Monaco" font-size="16.5" fill="#000000" transform="matrix(1.00, 0.00, -0.00, -1.00, 153.5, 461.5)"> </text><text xml:space="preserve" font-family="Monaco,Monaco" font-size="16.5" fill="#CC642E" transform="matrix(1.00, 0.00, -0.00, -1.00, 163.4, 461.5)">C</text><text xml:space="preserve" font-family="Monaco,Monaco" font-size="16.5" fill="#CC642E" transform="matrix(1.00, 0.00, -0.00, -1.00, 173.3, 461.5)">r</text><text xml:space="preserve" font-family="Monaco,Monaco" font-size="16.5" fill="#CC642E" transform="matrix(1.00, 0.00, -0.00, -1.00, 183.2, 461.5)">e</text><text xml:space="preserve" font-family="Monaco,Monaco" font-size="16.5" fill="#CC642E" transform="matrix(1.00, 0.00, -0.00, -1.00, 193.1, 461.5)">a</text><text xml:space="preserve" font-family="Monaco,Monaco" font-size="16.5" fill="#CC642E" transform="matrix(1.00, 0.00, -0.00, -1.00, 203.0, 461.5)">t</text><text xml:space="preserve" font-family="Monaco,Monaco" font-size="16.5" fill="#CC642E" transform="matrix(1.00, 0.00, -0.00, -1.00, 212.9, 461.5)">e</text><text xml:space="preserve" font-family="Monaco,Monaco" font-size="16.5" fill="#CC642E" transform="matrix(1.00, 0.00, -0.00, -1.00, 222.8, 461.5)">O</text><text xml:space="preserve" font-family="Monaco,Monaco" font-size="16.5" fill="#CC642E" transform="matrix(1.00, 0.00, -0.00, -1.00, 232.7, 461.5)">r</text><text xml:space="preserve" font-family="Monaco,Monaco" font-size="16.5" fill="#CC642E" transform="matrix(1.00, 0.00, -0.00, -1.00, 242.6, 461.5)">d</text><text xml:space="preserve" font-family="Monaco,Monaco" font-size="16.5" fill="#CC642E" transform="matrix(1.00, 0.00, -0.00, -1.00, 252.5, 461.5)">e</text><text xml:space="preserve" font-family="Monaco,Monaco" font-size="16.5" fill="#CC642E" transform="matrix(1.00, 0.00, -0.00, -1.00, 262.4, 461.5)">r</text><text xml:space="preserve" font-family="Monaco,Monaco" font-size="16.5" fill="#CC642E" transform="matrix(1.00, 0.00, -0.00, -1.00, 272.3, 461.5)">I</text><text xml:space="preserve" font-family="Monaco,Monaco" font-size="16.5" fill="#CC642E" transform="matrix(1.00, 0.00, -0.00, -1.00, 282.2, 461.5)">t</text><text xml:space="preserve" font-family="Monaco,Monaco" font-size="16.5" fill="#CC642E" transform="matrix(1.00, 0.00, -0.00, -1.00, 292.2, 461.5)">e</text><text xml:space="preserve" font-family="Monaco,Monaco" font-size="16.5" fill="#CC642E" transform="matrix(1.00, 0.00, -0.00, -1.00, 302.1, 461.5)">m</text><text xml:space="preserve" font-family="Monaco,Monaco" font-size="16.5" fill="#CC642E" transform="matrix(1.00, 0.00, -0.00, -1.00, 312.0, 461.5)">s</text><text xml:space="preserve" font-family="Monaco,Monaco" font-size="16.5" fill="#000000" transform="matrix(1.00, 0.00, -0.00, -1.00, 321.8, 461.5)"> </text><text xml:space="preserve" font-family="Monaco,Monaco" font-size="16.5" fill="#8C5B48" transform="matrix(1.00, 0.00, -0.00, -1.00, 331.7, 461.5)">&lt;</text><text xml:space="preserve" font-family="Monaco,Monaco" font-size="16.5" fill="#CC642E" transform="matrix(1.00, 0.00, -0.00, -1.00, 341.6, 461.5)"> </text><text xml:space="preserve" font-family="Monaco,Monaco" font-size="16.5" fill="#CC642E" transform="matrix(1.00, 0.00, -0.00, -1.00, 351.5, 461.5)">A</text><text xml:space="preserve" font-family="Monaco,Monaco" font-size="16.5" fill="#CC642E" transform="matrix(1.00, 0.00, -0.00, -1.00, 361.4, 461.5)">c</text><text xml:space="preserve" font-family="Monaco,Monaco" font-size="16.5" fill="#CC642E" transform="matrix(1.00, 0.00, -0.00, -1.00, 371.3, 461.5)">t</text><text xml:space="preserve" font-family="Monaco,Monaco" font-size="16.5" fill="#CC642E" transform="matrix(1.00, 0.00, -0.00, -1.00, 381.3, 461.5)">i</text><text xml:space="preserve" font-family="Monaco,Monaco" font-size="16.5" fill="#CC642E" transform="matrix(1.00, 0.00, -0.00, -1.00, 391.2, 461.5)">v</text><text xml:space="preserve" font-family="Monaco,Monaco" font-size="16.5" fill="#CC642E" transform="matrix(1.00, 0.00, -0.00, -1.00, 401.1, 461.5)">e</text><text xml:space="preserve" font-family="Monaco,Monaco" font-size="16.5" fill="#CC642E" transform="matrix(1.00, 0.00, -0.00, -1.00, 411.0, 461.5)">R</text><text xml:space="preserve" font-family="Monaco,Monaco" font-size="16.5" fill="#CC642E" transform="matrix(1.00, 0.00, -0.00, -1.00, 420.9, 461.5)">e</text><text xml:space="preserve" font-family="Monaco,Monaco" font-size="16.5" fill="#CC642E" transform="matrix(1.00, 0.00, -0.00, -1.00, 430.8, 461.5)">c</text><text xml:space="preserve" font-family="Monaco,Monaco" font-size="16.5" fill="#CC642E" transform="matrix(1.00, 0.00, -0.00, -1.00, 440.7, 461.5)">o</text><text xml:space="preserve" font-family="Monaco,Monaco" font-size="16.5" fill="#CC642E" transform="matrix(1.00, 0.00, -0.00, -1.00, 450.6, 461.5)">r</text><text xml:space="preserve" font-family="Monaco,Monaco" font-size="16.5" fill="#CC642E" transform="matrix(1.00, 0.00, -0.00, -1.00, 460.5, 461.5)">d</text><text xml:space="preserve" font-family="Monaco,Monaco" font-size="16.5" fill="#CC642E" transform="matrix(1.00, 0.00, -0.00, -1.00, 470.4, 461.5)">:</text><text xml:space="preserve" font-family="Monaco,Monaco" font-size="16.5" fill="#CC642E" transform="matrix(1.00, 0.00, -0.00, -1.00, 480.3, 461.5)">:</text><text xml:space="preserve" font-family="Monaco,Monaco" font-size="16.5" fill="#CC642E" transform="matrix(1.00, 0.00, -0.00, -1.00, 490.2, 461.5)">M</text><text xml:space="preserve" font-family="Monaco,Monaco" font-size="16.5" fill="#CC642E" transform="matrix(1.00, 0.00, -0.00, -1.00, 500.1, 461.5)">i</text><text xml:space="preserve" font-family="Monaco,Monaco" font-size="16.5" fill="#CC642E" transform="matrix(1.00, 0.00, -0.00, -1.00, 510.0, 461.5)">g</text><text xml:space="preserve" font-family="Monaco,Monaco" font-size="16.5" fill="#CC642E" transform="matrix(1.00, 0.00, -0.00, -1.00, 519.9, 461.5)">r</text><text xml:space="preserve" font-family="Monaco,Monaco" font-size="16.5" fill="#CC642E" transform="matrix(1.00, 0.00, -0.00, -1.00, 529.8, 461.5)">a</text><text xml:space="preserve" font-family="Monaco,Monaco" font-size="16.5" fill="#CC642E" transform="matrix(1.00, 0.00, -0.00, -1.00, 539.7, 461.5)">t</text><text xml:space="preserve" font-family="Monaco,Monaco" font-size="16.5" fill="#CC642E" transform="matrix(1.00, 0.00, -0.00, -1.00, 549.6, 461.5)">i</text><text xml:space="preserve" font-family="Monaco,Monaco" font-size="16.5" fill="#CC642E" transform="matrix(1.00, 0.00, -0.00, -1.00, 559.5, 461.5)">o</text><text xml:space="preserve" font-family="Monaco,Monaco" font-size="16.5" fill="#CC642E" transform="matrix(1.00, 0.00, -0.00, -1.00, 569.4, 461.5)">n</text><text xml:space="preserve" font-family="Monaco,Monaco" font-size="16.5" fill="#000000" transform="matrix(1.00, 0.00, -0.00, -1.00, 579.3, 461.5)"> </text><text xml:space="preserve" font-family="Monaco,Monaco" font-size="16.5" fill="#000000" transform="matrix(1.00, 0.00, -0.00, -1.00, 104.0, 439.5)"> </text><text xml:space="preserve" font-family="Monaco,Monaco" font-size="16.5" fill="#000000" transform="matrix(1.00, 0.00, -0.00, -1.00, 113.9, 439.5)"> </text><text xml:space="preserve" font-family="Monaco,Monaco" font-size="16.5" fill="#8C5B48" transform="matrix(1.00, 0.00, -0.00, -1.00, 123.8, 439.5)">d</text><text xml:space="preserve" font-family="Monaco,Monaco" font-size="16.5" fill="#8C5B48" transform="matrix(1.00, 0.00, -0.00, -1.00, 133.7, 439.5)">e</text><text xml:space="preserve" font-family="Monaco,Monaco" font-size="16.5" fill="#8C5B48" transform="matrix(1.00, 0.00, -0.00, -1.00, 143.6, 439.5)">f</text><text xml:space="preserve" font-family="Monaco,Monaco" font-size="16.5" fill="#000000" transform="matrix(1.00, 0.00, -0.00, -1.00, 153.5, 439.5)"> </text><text xml:space="preserve" font-family="Monaco,Monaco" font-size="16.5" fill="#CC642E" transform="matrix(1.00, 0.00, -0.00, -1.00, 163.4, 439.5)">s</text><text xml:space="preserve" font-family="Monaco,Monaco" font-size="16.5" fill="#CC642E" transform="matrix(1.00, 0.00, -0.00, -1.00, 173.3, 439.5)">e</text><text xml:space="preserve" font-family="Monaco,Monaco" font-size="16.5" fill="#CC642E" transform="matrix(1.00, 0.00, -0.00, -1.00, 183.2, 439.5)">l</text><text xml:space="preserve" font-family="Monaco,Monaco" font-size="16.5" fill="#CC642E" transform="matrix(1.00, 0.00, -0.00, -1.00, 193.1, 439.5)">f</text><text xml:space="preserve" font-family="Monaco,Monaco" font-size="16.5" fill="#CC642E" transform="matrix(1.00, 0.00, -0.00, -1.00, 203.0, 439.5)">.</text><text xml:space="preserve" font-family="Monaco,Monaco" font-size="16.5" fill="#CC642E" transform="matrix(1.00, 0.00, -0.00, -1.00, 212.9, 439.5)">u</text><text xml:space="preserve" font-family="Monaco,Monaco" font-size="16.5" fill="#CC642E" transform="matrix(1.00, 0.00, -0.00, -1.00, 222.8, 439.5)">p</text><text xml:space="preserve" font-family="Monaco,Monaco" font-size="16.5" fill="#000000" transform="matrix(1.00, 0.00, -0.00, -1.00, 232.7, 439.5)"> </text><text xml:space="preserve" font-family="Monaco,Monaco" font-size="16.5" fill="#000000" transform="matrix(1.00, 0.00, -0.00, -1.00, 104.0, 417.5)"> </text><text xml:space="preserve" font-family="Monaco,Monaco" font-size="16.5" fill="#000000" transform="matrix(1.00, 0.00, -0.00, -1.00, 113.9, 417.5)"> </text><text xml:space="preserve" font-family="Monaco,Monaco" font-size="16.5" fill="#000000" transform="matrix(1.00, 0.00, -0.00, -1.00, 123.8, 417.5)"> </text><text xml:space="preserve" font-family="Monaco,Monaco" font-size="16.5" fill="#000000" transform="matrix(1.00, 0.00, -0.00, -1.00, 133.7, 417.5)"> </text><text xml:space="preserve" font-family="Monaco,Monaco" font-size="16.5" fill="#000000" transform="matrix(1.00, 0.00, -0.00, -1.00, 143.6, 417.5)">c</text><text xml:space="preserve" font-family="Monaco,Monaco" font-size="16.5" fill="#000000" transform="matrix(1.00, 0.00, -0.00, -1.00, 153.5, 417.5)">r</text><text xml:space="preserve" font-family="Monaco,Monaco" font-size="16.5" fill="#000000" transform="matrix(1.00, 0.00, -0.00, -1.00, 163.4, 417.5)">e</text><text xml:space="preserve" font-family="Monaco,Monaco" font-size="16.5" fill="#000000" transform="matrix(1.00, 0.00, -0.00, -1.00, 173.3, 417.5)">a</text><text xml:space="preserve" font-family="Monaco,Monaco" font-size="16.5" fill="#000000" transform="matrix(1.00, 0.00, -0.00, -1.00, 183.2, 417.5)">t</text><text xml:space="preserve" font-family="Monaco,Monaco" font-size="16.5" fill="#000000" transform="matrix(1.00, 0.00, -0.00, -1.00, 193.1, 417.5)">e</text><text xml:space="preserve" font-family="Monaco,Monaco" font-size="16.5" fill="#000000" transform="matrix(1.00, 0.00, -0.00, -1.00, 203.0, 417.5)">_</text><text xml:space="preserve" font-family="Monaco,Monaco" font-size="16.5" fill="#000000" transform="matrix(1.00, 0.00, -0.00, -1.00, 212.9, 417.5)">t</text><text xml:space="preserve" font-family="Monaco,Monaco" font-size="16.5" fill="#000000" transform="matrix(1.00, 0.00, -0.00, -1.00, 222.8, 417.5)">a</text><text xml:space="preserve" font-family="Monaco,Monaco" font-size="16.5" fill="#000000" transform="matrix(1.00, 0.00, -0.00, -1.00, 232.7, 417.5)">b</text><text xml:space="preserve" font-family="Monaco,Monaco" font-size="16.5" fill="#000000" transform="matrix(1.00, 0.00, -0.00, -1.00, 242.6, 417.5)">l</text><text xml:space="preserve" font-family="Monaco,Monaco" font-size="16.5" fill="#000000" transform="matrix(1.00, 0.00, -0.00, -1.00, 252.5, 417.5)">e</text><text xml:space="preserve" font-family="Monaco,Monaco" font-size="16.5" fill="#000000" transform="matrix(1.00, 0.00, -0.00, -1.00, 262.5, 417.5)"> </text><text xml:space="preserve" font-family="Monaco,Monaco" font-size="16.5" fill="#942E2F" transform="matrix(1.00, 0.00, -0.00, -1.00, 272.3, 417.5)">:</text><text xml:space="preserve" font-family="Monaco,Monaco" font-size="16.5" fill="#942E2F" transform="matrix(1.00, 0.00, -0.00, -1.00, 282.2, 417.5)">o</text><text xml:space="preserve" font-family="Monaco,Monaco" font-size="16.5" fill="#942E2F" transform="matrix(1.00, 0.00, -0.00, -1.00, 292.1, 417.5)">r</text><text xml:space="preserve" font-family="Monaco,Monaco" font-size="16.5" fill="#942E2F" transform="matrix(1.00, 0.00, -0.00, -1.00, 302.0, 417.5)">d</text><text xml:space="preserve" font-family="Monaco,Monaco" font-size="16.5" fill="#942E2F" transform="matrix(1.00, 0.00, -0.00, -1.00, 311.9, 417.5)">e</text><text xml:space="preserve" font-family="Monaco,Monaco" font-size="16.5" fill="#942E2F" transform="matrix(1.00, 0.00, -0.00, -1.00, 321.8, 417.5)">r</text><text xml:space="preserve" font-family="Monaco,Monaco" font-size="16.5" fill="#942E2F" transform="matrix(1.00, 0.00, -0.00, -1.00, 331.7, 417.5)">_</text><text xml:space="preserve" font-family="Monaco,Monaco" font-size="16.5" fill="#942E2F" transform="matrix(1.00, 0.00, -0.00, -1.00, 341.7, 417.5)">i</text><text xml:space="preserve" font-family="Monaco,Monaco" font-size="16.5" fill="#942E2F" transform="matrix(1.00, 0.00, -0.00, -1.00, 351.6, 417.5)">t</text><text xml:space="preserve" font-family="Monaco,Monaco" font-size="16.5" fill="#942E2F" transform="matrix(1.00, 0.00, -0.00, -1.00, 361.5, 417.5)">e</text><text xml:space="preserve" font-family="Monaco,Monaco" font-size="16.5" fill="#942E2F" transform="matrix(1.00, 0.00, -0.00, -1.00, 371.4, 417.5)">m</text><text xml:space="preserve" font-family="Monaco,Monaco" font-size="16.5" fill="#942E2F" transform="matrix(1.00, 0.00, -0.00, -1.00, 381.3, 417.5)">s</text><text xml:space="preserve" font-family="Monaco,Monaco" font-size="16.5" fill="#000000" transform="matrix(1.00, 0.00, -0.00, -1.00, 391.1, 417.5)"> </text><text xml:space="preserve" font-family="Monaco,Monaco" font-size="16.5" fill="#8C5B48" transform="matrix(1.00, 0.00, -0.00, -1.00, 401.0, 417.5)">d</text><text xml:space="preserve" font-family="Monaco,Monaco" font-size="16.5" fill="#8C5B48" transform="matrix(1.00, 0.00, -0.00, -1.00, 411.0, 417.5)">o</text><text xml:space="preserve" font-family="Monaco,Monaco" font-size="16.5" fill="#8C5B48" transform="matrix(1.00, 0.00, -0.00, -1.00, 420.9, 417.5)"> </text><text xml:space="preserve" font-family="Monaco,Monaco" font-size="16.5" fill="#8C5B48" transform="matrix(1.00, 0.00, -0.00, -1.00, 430.8, 417.5)">|</text><text xml:space="preserve" font-family="Monaco,Monaco" font-size="16.5" fill="#2D5FA7" transform="matrix(1.00, 0.00, -0.00, -1.00, 440.7, 417.5)">t</text><text xml:space="preserve" font-family="Monaco,Monaco" font-size="16.5" fill="#8C5B48" transform="matrix(1.00, 0.00, -0.00, -1.00, 450.6, 417.5)">|</text><text xml:space="preserve" font-family="Monaco,Monaco" font-size="16.5" fill="#000000" transform="matrix(1.00, 0.00, -0.00, -1.00, 460.5, 417.5)"> </text><text xml:space="preserve" font-family="Monaco,Monaco" font-size="16.5" fill="#000000" transform="matrix(1.00, 0.00, -0.00, -1.00, 104.0, 395.5)"> </text><text xml:space="preserve" font-family="Monaco,Monaco" font-size="16.5" fill="#000000" transform="matrix(1.00, 0.00, -0.00, -1.00, 113.9, 395.5)"> </text><text xml:space="preserve" font-family="Monaco,Monaco" font-size="16.5" fill="#000000" transform="matrix(1.00, 0.00, -0.00, -1.00, 123.8, 395.5)"> </text><text xml:space="preserve" font-family="Monaco,Monaco" font-size="16.5" fill="#000000" transform="matrix(1.00, 0.00, -0.00, -1.00, 133.7, 395.5)"> </text><text xml:space="preserve" font-family="Monaco,Monaco" font-size="16.5" fill="#000000" transform="matrix(1.00, 0.00, -0.00, -1.00, 143.6, 395.5)"> </text><text xml:space="preserve" font-family="Monaco,Monaco" font-size="16.5" fill="#000000" transform="matrix(1.00, 0.00, -0.00, -1.00, 153.5, 395.5)"> </text><text xml:space="preserve" font-family="Monaco,Monaco" font-size="16.5" fill="#000000" transform="matrix(1.00, 0.00, -0.00, -1.00, 163.4, 395.5)">t</text><text xml:space="preserve" font-family="Monaco,Monaco" font-size="16.5" fill="#8C5B48" transform="matrix(1.00, 0.00, -0.00, -1.00, 173.3, 395.5)">.</text><text xml:space="preserve" font-family="Monaco,Monaco" font-size="16.5" fill="#000000" transform="matrix(1.00, 0.00, -0.00, -1.00, 183.2, 395.5)">s</text><text xml:space="preserve" font-family="Monaco,Monaco" font-size="16.5" fill="#000000" transform="matrix(1.00, 0.00, -0.00, -1.00, 193.1, 395.5)">t</text><text xml:space="preserve" font-family="Monaco,Monaco" font-size="16.5" fill="#000000" transform="matrix(1.00, 0.00, -0.00, -1.00, 203.0, 395.5)">r</text><text xml:space="preserve" font-family="Monaco,Monaco" font-size="16.5" fill="#000000" transform="matrix(1.00, 0.00, -0.00, -1.00, 212.9, 395.5)">i</text><text xml:space="preserve" font-family="Monaco,Monaco" font-size="16.5" fill="#000000" transform="matrix(1.00, 0.00, -0.00, -1.00, 222.8, 395.5)">n</text><text xml:space="preserve" font-family="Monaco,Monaco" font-size="16.5" fill="#000000" transform="matrix(1.00, 0.00, -0.00, -1.00, 232.7, 395.5)">g</text><text xml:space="preserve" font-family="Monaco,Monaco" font-size="16.5" fill="#000000" transform="matrix(1.00, 0.00, -0.00, -1.00, 242.6, 395.5)"> </text><text xml:space="preserve" font-family="Monaco,Monaco" font-size="16.5" fill="#000000" transform="matrix(1.00, 0.00, -0.00, -1.00, 252.5, 395.5)"> </text><text xml:space="preserve" font-family="Monaco,Monaco" font-size="16.5" fill="#942E2F" transform="matrix(1.00, 0.00, -0.00, -1.00, 262.4, 395.5)">:</text><text xml:space="preserve" font-family="Monaco,Monaco" font-size="16.5" fill="#942E2F" transform="matrix(1.00, 0.00, -0.00, -1.00, 272.3, 395.5)">n</text><text xml:space="preserve" font-family="Monaco,Monaco" font-size="16.5" fill="#942E2F" transform="matrix(1.00, 0.00, -0.00, -1.00, 282.2, 395.5)">a</text><text xml:space="preserve" font-family="Monaco,Monaco" font-size="16.5" fill="#942E2F" transform="matrix(1.00, 0.00, -0.00, -1.00, 292.1, 395.5)">m</text><text xml:space="preserve" font-family="Monaco,Monaco" font-size="16.5" fill="#942E2F" transform="matrix(1.00, 0.00, -0.00, -1.00, 302.0, 395.5)">e</text><text xml:space="preserve" font-family="Monaco,Monaco" font-size="16.5" fill="#000000" transform="matrix(1.00, 0.00, -0.00, -1.00, 311.9, 395.5)"> </text><text xml:space="preserve" font-family="Monaco,Monaco" font-size="16.5" fill="#000000" transform="matrix(1.00, 0.00, -0.00, -1.00, 104.0, 373.5)"> </text><text xml:space="preserve" font-family="Monaco,Monaco" font-size="16.5" fill="#000000" transform="matrix(1.00, 0.00, -0.00, -1.00, 113.9, 373.5)"> </text><text xml:space="preserve" font-family="Monaco,Monaco" font-size="16.5" fill="#000000" transform="matrix(1.00, 0.00, -0.00, -1.00, 123.8, 373.5)"> </text><text xml:space="preserve" font-family="Monaco,Monaco" font-size="16.5" fill="#000000" transform="matrix(1.00, 0.00, -0.00, -1.00, 133.7, 373.5)"> </text><text xml:space="preserve" font-family="Monaco,Monaco" font-size="16.5" fill="#000000" transform="matrix(1.00, 0.00, -0.00, -1.00, 143.6, 373.5)"> </text><text xml:space="preserve" font-family="Monaco,Monaco" font-size="16.5" fill="#000000" transform="matrix(1.00, 0.00, -0.00, -1.00, 153.5, 373.5)"> </text><text xml:space="preserve" font-family="Monaco,Monaco" font-size="16.5" fill="#000000" transform="matrix(1.00, 0.00, -0.00, -1.00, 163.4, 373.5)">t</text><text xml:space="preserve" font-family="Monaco,Monaco" font-size="16.5" fill="#8C5B48" transform="matrix(1.00, 0.00, -0.00, -1.00, 173.3, 373.5)">.</text><text xml:space="preserve" font-family="Monaco,Monaco" font-size="16.5" fill="#000000" transform="matrix(1.00, 0.00, -0.00, -1.00, 183.2, 373.5)">i</text><text xml:space="preserve" font-family="Monaco,Monaco" font-size="16.5" fill="#000000" transform="matrix(1.00, 0.00, -0.00, -1.00, 193.1, 373.5)">n</text><text xml:space="preserve" font-family="Monaco,Monaco" font-size="16.5" fill="#000000" transform="matrix(1.00, 0.00, -0.00, -1.00, 203.0, 373.5)">t</text><text xml:space="preserve" font-family="Monaco,Monaco" font-size="16.5" fill="#000000" transform="matrix(1.00, 0.00, -0.00, -1.00, 212.9, 373.5)">e</text><text xml:space="preserve" font-family="Monaco,Monaco" font-size="16.5" fill="#000000" transform="matrix(1.00, 0.00, -0.00, -1.00, 222.8, 373.5)">g</text><text xml:space="preserve" font-family="Monaco,Monaco" font-size="16.5" fill="#000000" transform="matrix(1.00, 0.00, -0.00, -1.00, 232.7, 373.5)">e</text><text xml:space="preserve" font-family="Monaco,Monaco" font-size="16.5" fill="#000000" transform="matrix(1.00, 0.00, -0.00, -1.00, 242.6, 373.5)">r</text><text xml:space="preserve" font-family="Monaco,Monaco" font-size="16.5" fill="#000000" transform="matrix(1.00, 0.00, -0.00, -1.00, 252.5, 373.5)"> </text><text xml:space="preserve" font-family="Monaco,Monaco" font-size="16.5" fill="#942E2F" transform="matrix(1.00, 0.00, -0.00, -1.00, 262.4, 373.5)">:</text><text xml:space="preserve" font-family="Monaco,Monaco" font-size="16.5" fill="#942E2F" transform="matrix(1.00, 0.00, -0.00, -1.00, 272.3, 373.5)">o</text><text xml:space="preserve" font-family="Monaco,Monaco" font-size="16.5" fill="#942E2F" transform="matrix(1.00, 0.00, -0.00, -1.00, 282.2, 373.5)">r</text><text xml:space="preserve" font-family="Monaco,Monaco" font-size="16.5" fill="#942E2F" transform="matrix(1.00, 0.00, -0.00, -1.00, 292.1, 373.5)">d</text><text xml:space="preserve" font-family="Monaco,Monaco" font-size="16.5" fill="#942E2F" transform="matrix(1.00, 0.00, -0.00, -1.00, 302.0, 373.5)">e</text><text xml:space="preserve" font-family="Monaco,Monaco" font-size="16.5" fill="#942E2F" transform="matrix(1.00, 0.00, -0.00, -1.00, 311.9, 373.5)">r</text><text xml:space="preserve" font-family="Monaco,Monaco" font-size="16.5" fill="#942E2F" transform="matrix(1.00, 0.00, -0.00, -1.00, 321.8, 373.5)">_</text><text xml:space="preserve" font-family="Monaco,Monaco" font-size="16.5" fill="#942E2F" transform="matrix(1.00, 0.00, -0.00, -1.00, 331.7, 373.5)">i</text><text xml:space="preserve" font-family="Monaco,Monaco" font-size="16.5" fill="#942E2F" transform="matrix(1.00, 0.00, -0.00, -1.00, 341.7, 373.5)">d</text><text xml:space="preserve" font-family="Monaco,Monaco" font-size="16.5" fill="#000000" transform="matrix(1.00, 0.00, -0.00, -1.00, 351.5, 373.5)"> </text><text xml:space="preserve" font-family="Monaco,Monaco" font-size="16.5" fill="#000000" transform="matrix(1.00, 0.00, -0.00, -1.00, 104.0, 351.5)"> </text><text xml:space="preserve" font-family="Monaco,Monaco" font-size="16.5" fill="#000000" transform="matrix(1.00, 0.00, -0.00, -1.00, 113.9, 351.5)"> </text><text xml:space="preserve" font-family="Monaco,Monaco" font-size="16.5" fill="#000000" transform="matrix(1.00, 0.00, -0.00, -1.00, 123.8, 351.5)"> </text><text xml:space="preserve" font-family="Monaco,Monaco" font-size="16.5" fill="#000000" transform="matrix(1.00, 0.00, -0.00, -1.00, 133.7, 351.5)"> </text><text xml:space="preserve" font-family="Monaco,Monaco" font-size="16.5" fill="#000000" transform="matrix(1.00, 0.00, -0.00, -1.00, 143.6, 351.5)"> </text><text xml:space="preserve" font-family="Monaco,Monaco" font-size="16.5" fill="#000000" transform="matrix(1.00, 0.00, -0.00, -1.00, 153.5, 351.5)"> </text><text xml:space="preserve" font-family="Monaco,Monaco" font-size="16.5" fill="#000000" transform="matrix(1.00, 0.00, -0.00, -1.00, 163.4, 351.5)">t</text><text xml:space="preserve" font-family="Monaco,Monaco" font-size="16.5" fill="#8C5B48" transform="matrix(1.00, 0.00, -0.00, -1.00, 173.3, 351.5)">.</text><text xml:space="preserve" font-family="Monaco,Monaco" font-size="16.5" fill="#000000" transform="matrix(1.00, 0.00, -0.00, -1.00, 183.2, 351.5)">d</text><text xml:space="preserve" font-family="Monaco,Monaco" font-size="16.5" fill="#000000" transform="matrix(1.00, 0.00, -0.00, -1.00, 193.1, 351.5)">e</text><text xml:space="preserve" font-family="Monaco,Monaco" font-size="16.5" fill="#000000" transform="matrix(1.00, 0.00, -0.00, -1.00, 203.0, 351.5)">c</text><text xml:space="preserve" font-family="Monaco,Monaco" font-size="16.5" fill="#000000" transform="matrix(1.00, 0.00, -0.00, -1.00, 212.9, 351.5)">i</text><text xml:space="preserve" font-family="Monaco,Monaco" font-size="16.5" fill="#000000" transform="matrix(1.00, 0.00, -0.00, -1.00, 222.8, 351.5)">m</text><text xml:space="preserve" font-family="Monaco,Monaco" font-size="16.5" fill="#000000" transform="matrix(1.00, 0.00, -0.00, -1.00, 232.7, 351.5)">a</text><text xml:space="preserve" font-family="Monaco,Monaco" font-size="16.5" fill="#000000" transform="matrix(1.00, 0.00, -0.00, -1.00, 242.6, 351.5)">l</text><text xml:space="preserve" font-family="Monaco,Monaco" font-size="16.5" fill="#000000" transform="matrix(1.00, 0.00, -0.00, -1.00, 252.5, 351.5)"> </text><text xml:space="preserve" font-family="Monaco,Monaco" font-size="16.5" fill="#942E2F" transform="matrix(1.00, 0.00, -0.00, -1.00, 262.4, 351.5)">:</text><text xml:space="preserve" font-family="Monaco,Monaco" font-size="16.5" fill="#942E2F" transform="matrix(1.00, 0.00, -0.00, -1.00, 272.3, 351.5)">a</text><text xml:space="preserve" font-family="Monaco,Monaco" font-size="16.5" fill="#942E2F" transform="matrix(1.00, 0.00, -0.00, -1.00, 282.2, 351.5)">m</text><text xml:space="preserve" font-family="Monaco,Monaco" font-size="16.5" fill="#942E2F" transform="matrix(1.00, 0.00, -0.00, -1.00, 292.1, 351.5)">o</text><text xml:space="preserve" font-family="Monaco,Monaco" font-size="16.5" fill="#942E2F" transform="matrix(1.00, 0.00, -0.00, -1.00, 302.0, 351.5)">u</text><text xml:space="preserve" font-family="Monaco,Monaco" font-size="16.5" fill="#942E2F" transform="matrix(1.00, 0.00, -0.00, -1.00, 311.9, 351.5)">n</text><text xml:space="preserve" font-family="Monaco,Monaco" font-size="16.5" fill="#942E2F" transform="matrix(1.00, 0.00, -0.00, -1.00, 321.8, 351.5)">t</text><text xml:space="preserve" font-family="Monaco,Monaco" font-size="16.5" fill="#8C5B48" transform="matrix(1.00, 0.00, -0.00, -1.00, 331.7, 351.5)">,</text><text xml:space="preserve" font-family="Monaco,Monaco" font-size="16.5" fill="#000000" transform="matrix(1.00, 0.00, -0.00, -1.00, 341.6, 351.5)"> </text><text xml:space="preserve" font-family="Monaco,Monaco" font-size="16.5" fill="#942E2F" transform="matrix(1.00, 0.00, -0.00, -1.00, 351.5, 351.5)">:</text><text xml:space="preserve" font-family="Monaco,Monaco" font-size="16.5" fill="#942E2F" transform="matrix(1.00, 0.00, -0.00, -1.00, 361.4, 351.5)">d</text><text xml:space="preserve" font-family="Monaco,Monaco" font-size="16.5" fill="#942E2F" transform="matrix(1.00, 0.00, -0.00, -1.00, 371.3, 351.5)">e</text><text xml:space="preserve" font-family="Monaco,Monaco" font-size="16.5" fill="#942E2F" transform="matrix(1.00, 0.00, -0.00, -1.00, 381.3, 351.5)">c</text><text xml:space="preserve" font-family="Monaco,Monaco" font-size="16.5" fill="#942E2F" transform="matrix(1.00, 0.00, -0.00, -1.00, 391.2, 351.5)">i</text><text xml:space="preserve" font-family="Monaco,Monaco" font-size="16.5" fill="#942E2F" transform="matrix(1.00, 0.00, -0.00, -1.00, 401.1, 351.5)">m</text><text xml:space="preserve" font-family="Monaco,Monaco" font-size="16.5" fill="#942E2F" transform="matrix(1.00, 0.00, -0.00, -1.00, 411.0, 351.5)">a</text><text xml:space="preserve" font-family="Monaco,Monaco" font-size="16.5" fill="#942E2F" transform="matrix(1.00, 0.00, -0.00, -1.00, 420.9, 351.5)">l</text><text xml:space="preserve" font-family="Monaco,Monaco" font-size="16.5" fill="#8C5B48" transform="matrix(1.00, 0.00, -0.00, -1.00, 430.8, 351.5)">,</text><text xml:space="preserve" font-family="Monaco,Monaco" font-size="16.5" fill="#000000" transform="matrix(1.00, 0.00, -0.00, -1.00, 440.7, 351.5)"> </text><text xml:space="preserve" font-family="Monaco,Monaco" font-size="16.5" fill="#942E2F" transform="matrix(1.00, 0.00, -0.00, -1.00, 450.6, 351.5)">:</text><text xml:space="preserve" font-family="Monaco,Monaco" font-size="16.5" fill="#942E2F" transform="matrix(1.00, 0.00, -0.00, -1.00, 460.5, 351.5)">p</text><text xml:space="preserve" font-family="Monaco,Monaco" font-size="16.5" fill="#942E2F" transform="matrix(1.00, 0.00, -0.00, -1.00, 470.4, 351.5)">r</text><text xml:space="preserve" font-family="Monaco,Monaco" font-size="16.5" fill="#942E2F" transform="matrix(1.00, 0.00, -0.00, -1.00, 480.3, 351.5)">e</text><text xml:space="preserve" font-family="Monaco,Monaco" font-size="16.5" fill="#942E2F" transform="matrix(1.00, 0.00, -0.00, -1.00, 490.2, 351.5)">c</text><text xml:space="preserve" font-family="Monaco,Monaco" font-size="16.5" fill="#942E2F" transform="matrix(1.00, 0.00, -0.00, -1.00, 500.1, 351.5)">i</text><text xml:space="preserve" font-family="Monaco,Monaco" font-size="16.5" fill="#942E2F" transform="matrix(1.00, 0.00, -0.00, -1.00, 510.0, 351.5)">s</text><text xml:space="preserve" font-family="Monaco,Monaco" font-size="16.5" fill="#942E2F" transform="matrix(1.00, 0.00, -0.00, -1.00, 519.9, 351.5)">i</text><text xml:space="preserve" font-family="Monaco,Monaco" font-size="16.5" fill="#942E2F" transform="matrix(1.00, 0.00, -0.00, -1.00, 529.8, 351.5)">o</text><text xml:space="preserve" font-family="Monaco,Monaco" font-size="16.5" fill="#942E2F" transform="matrix(1.00, 0.00, -0.00, -1.00, 539.7, 351.5)">n</text><text xml:space="preserve" font-family="Monaco,Monaco" font-size="16.5" fill="#000000" transform="matrix(1.00, 0.00, -0.00, -1.00, 549.6, 351.5)"> </text><text xml:space="preserve" font-family="Monaco,Monaco" font-size="16.5" fill="#8C5B48" transform="matrix(1.00, 0.00, -0.00, -1.00, 559.5, 351.5)">=</text><text xml:space="preserve" font-family="Monaco,Monaco" font-size="16.5" fill="#8C5B48" transform="matrix(1.00, 0.00, -0.00, -1.00, 569.4, 351.5)">&gt;</text><text xml:space="preserve" font-family="Monaco,Monaco" font-size="16.5" fill="#000000" transform="matrix(1.00, 0.00, -0.00, -1.00, 579.3, 351.5)"> </text><text xml:space="preserve" font-family="Monaco,Monaco" font-size="16.5" fill="#942E2F" transform="matrix(1.00, 0.00, -0.00, -1.00, 589.2, 351.5)">1</text><text xml:space="preserve" font-family="Monaco,Monaco" font-size="16.5" fill="#942E2F" transform="matrix(1.00, 0.00, -0.00, -1.00, 599.1, 351.5)">0</text><text xml:space="preserve" font-family="Monaco,Monaco" font-size="16.5" fill="#8C5B48" transform="matrix(1.00, 0.00, -0.00, -1.00, 609.0, 351.5)">,</text><text xml:space="preserve" font-family="Monaco,Monaco" font-size="16.5" fill="#000000" transform="matrix(1.00, 0.00, -0.00, -1.00, 618.9, 351.5)"> </text><text xml:space="preserve" font-family="Monaco,Monaco" font-size="16.5" fill="#942E2F" transform="matrix(1.00, 0.00, -0.00, -1.00, 628.8, 351.5)">:</text><text xml:space="preserve" font-family="Monaco,Monaco" font-size="16.5" fill="#942E2F" transform="matrix(1.00, 0.00, -0.00, -1.00, 638.7, 351.5)">s</text><text xml:space="preserve" font-family="Monaco,Monaco" font-size="16.5" fill="#942E2F" transform="matrix(1.00, 0.00, -0.00, -1.00, 648.6, 351.5)">c</text><text xml:space="preserve" font-family="Monaco,Monaco" font-size="16.5" fill="#942E2F" transform="matrix(1.00, 0.00, -0.00, -1.00, 658.5, 351.5)">a</text><text xml:space="preserve" font-family="Monaco,Monaco" font-size="16.5" fill="#942E2F" transform="matrix(1.00, 0.00, -0.00, -1.00, 668.4, 351.5)">l</text><text xml:space="preserve" font-family="Monaco,Monaco" font-size="16.5" fill="#942E2F" transform="matrix(1.00, 0.00, -0.00, -1.00, 678.3, 351.5)">e</text><text xml:space="preserve" font-family="Monaco,Monaco" font-size="16.5" fill="#000000" transform="matrix(1.00, 0.00, -0.00, -1.00, 688.2, 351.5)"> </text><text xml:space="preserve" font-family="Monaco,Monaco" font-size="16.5" fill="#8C5B48" transform="matrix(1.00, 0.00, -0.00, -1.00, 698.1, 351.5)">=</text><text xml:space="preserve" font-family="Monaco,Monaco" font-size="16.5" fill="#8C5B48" transform="matrix(1.00, 0.00, -0.00, -1.00, 708.0, 351.5)">&gt;</text><text xml:space="preserve" font-family="Monaco,Monaco" font-size="16.5" fill="#000000" transform="matrix(1.00, 0.00, -0.00, -1.00, 717.9, 351.5)"> </text><text xml:space="preserve" font-family="Monaco,Monaco" font-size="16.5" fill="#942E2F" transform="matrix(1.00, 0.00, -0.00, -1.00, 727.8, 351.5)">2</text><text xml:space="preserve" font-family="Monaco,Monaco" font-size="16.5" fill="#8C5B48" transform="matrix(1.00, 0.00, -0.00, -1.00, 737.7, 351.5)">,</text><text xml:space="preserve" font-family="Monaco,Monaco" font-size="16.5" fill="#000000" transform="matrix(1.00, 0.00, -0.00, -1.00, 747.6, 351.5)"> </text><text xml:space="preserve" font-family="Monaco,Monaco" font-size="16.5" fill="#942E2F" transform="matrix(1.00, 0.00, -0.00, -1.00, 757.5, 351.5)">:</text><text xml:space="preserve" font-family="Monaco,Monaco" font-size="16.5" fill="#942E2F" transform="matrix(1.00, 0.00, -0.00, -1.00, 767.4, 351.5)">d</text><text xml:space="preserve" font-family="Monaco,Monaco" font-size="16.5" fill="#942E2F" transform="matrix(1.00, 0.00, -0.00, -1.00, 777.3, 351.5)">e</text><text xml:space="preserve" font-family="Monaco,Monaco" font-size="16.5" fill="#942E2F" transform="matrix(1.00, 0.00, -0.00, -1.00, 787.2, 351.5)">f</text><text xml:space="preserve" font-family="Monaco,Monaco" font-size="16.5" fill="#942E2F" transform="matrix(1.00, 0.00, -0.00, -1.00, 797.1, 351.5)">a</text><text xml:space="preserve" font-family="Monaco,Monaco" font-size="16.5" fill="#942E2F" transform="matrix(1.00, 0.00, -0.00, -1.00, 807.0, 351.5)">u</text><text xml:space="preserve" font-family="Monaco,Monaco" font-size="16.5" fill="#942E2F" transform="matrix(1.00, 0.00, -0.00, -1.00, 816.9, 351.5)">l</text><text xml:space="preserve" font-family="Monaco,Monaco" font-size="16.5" fill="#942E2F" transform="matrix(1.00, 0.00, -0.00, -1.00, 826.8, 351.5)">t</text><text xml:space="preserve" font-family="Monaco,Monaco" font-size="16.5" fill="#000000" transform="matrix(1.00, 0.00, -0.00, -1.00, 836.7, 351.5)"> </text><text xml:space="preserve" font-family="Monaco,Monaco" font-size="16.5" fill="#8C5B48" transform="matrix(1.00, 0.00, -0.00, -1.00, 846.6, 351.5)">=</text><text xml:space="preserve" font-family="Monaco,Monaco" font-size="16.5" fill="#8C5B48" transform="matrix(1.00, 0.00, -0.00, -1.00, 856.5, 351.5)">&gt;</text><text xml:space="preserve" font-family="Monaco,Monaco" font-size="16.5" fill="#000000" transform="matrix(1.00, 0.00, -0.00, -1.00, 866.4, 351.5)"> </text><text xml:space="preserve" font-family="Monaco,Monaco" font-size="16.5" fill="#942E2F" transform="matrix(1.00, 0.00, -0.00, -1.00, 876.3, 351.5)">0</text><text xml:space="preserve" font-family="Monaco,Monaco" font-size="16.5" fill="#000000" transform="matrix(1.00, 0.00, -0.00, -1.00, 886.2, 351.5)"> </text><text xml:space="preserve" font-family="Monaco,Monaco" font-size="16.5" fill="#000000" transform="matrix(1.00, 0.00, -0.00, -1.00, 104.0, 329.5)"> </text><text xml:space="preserve" font-family="Monaco,Monaco" font-size="16.5" fill="#000000" transform="matrix(1.00, 0.00, -0.00, -1.00, 113.9, 329.5)"> </text><text xml:space="preserve" font-family="Monaco,Monaco" font-size="16.5" fill="#000000" transform="matrix(1.00, 0.00, -0.00, -1.00, 123.8, 329.5)"> </text><text xml:space="preserve" font-family="Monaco,Monaco" font-size="16.5" fill="#000000" transform="matrix(1.00, 0.00, -0.00, -1.00, 133.7, 329.5)"> </text><text xml:space="preserve" font-family="Monaco,Monaco" font-size="16.5" fill="#8C5B48" transform="matrix(1.00, 0.00, -0.00, -1.00, 143.6, 329.5)">e</text><text xml:space="preserve" font-family="Monaco,Monaco" font-size="16.5" fill="#8C5B48" transform="matrix(1.00, 0.00, -0.00, -1.00, 153.5, 329.5)">n</text><text xml:space="preserve" font-family="Monaco,Monaco" font-size="16.5" fill="#8C5B48" transform="matrix(1.00, 0.00, -0.00, -1.00, 163.4, 329.5)">d</text><text xml:space="preserve" font-family="Monaco,Monaco" font-size="16.5" fill="#000000" transform="matrix(1.00, 0.00, -0.00, -1.00, 173.3, 329.5)"> </text><text xml:space="preserve" font-family="Monaco,Monaco" font-size="16.5" fill="#000000" transform="matrix(1.00, 0.00, -0.00, -1.00, 104.0, 307.5)"> </text><text xml:space="preserve" font-family="Monaco,Monaco" font-size="16.5" fill="#000000" transform="matrix(1.00, 0.00, -0.00, -1.00, 113.9, 307.5)"> </text><text xml:space="preserve" font-family="Monaco,Monaco" font-size="16.5" fill="#8C5B48" transform="matrix(1.00, 0.00, -0.00, -1.00, 123.8, 307.5)">e</text><text xml:space="preserve" font-family="Monaco,Monaco" font-size="16.5" fill="#8C5B48" transform="matrix(1.00, 0.00, -0.00, -1.00, 133.7, 307.5)">n</text><text xml:space="preserve" font-family="Monaco,Monaco" font-size="16.5" fill="#8C5B48" transform="matrix(1.00, 0.00, -0.00, -1.00, 143.6, 307.5)">d</text><text xml:space="preserve" font-family="Monaco,Monaco" font-size="16.5" fill="#000000" transform="matrix(1.00, 0.00, -0.00, -1.00, 153.5, 307.5)"> </text><text xml:space="preserve" font-family="Monaco,Monaco" font-size="16.5" fill="#000000" transform="matrix(1.00, 0.00, -0.00, -1.00, 104.0, 285.5)"> </text><text xml:space="preserve" font-family="Monaco,Monaco" font-size="16.5" fill="#000000" transform="matrix(1.00, 0.00, -0.00, -1.00, 104.0, 263.5)"> </text><text xml:space="preserve" font-family="Monaco,Monaco" font-size="16.5" fill="#000000" transform="matrix(1.00, 0.00, -0.00, -1.00, 113.9, 263.5)"> </text><text xml:space="preserve" font-family="Monaco,Monaco" font-size="16.5" fill="#8C5B48" transform="matrix(1.00, 0.00, -0.00, -1.00, 123.8, 263.5)">d</text><text xml:space="preserve" font-family="Monaco,Monaco" font-size="16.5" fill="#8C5B48" transform="matrix(1.00, 0.00, -0.00, -1.00, 133.7, 263.5)">e</text><text xml:space="preserve" font-family="Monaco,Monaco" font-size="16.5" fill="#8C5B48" transform="matrix(1.00, 0.00, -0.00, -1.00, 143.6, 263.5)">f</text><text xml:space="preserve" font-family="Monaco,Monaco" font-size="16.5" fill="#000000" transform="matrix(1.00, 0.00, -0.00, -1.00, 153.5, 263.5)"> </text><text xml:space="preserve" font-family="Monaco,Monaco" font-size="16.5" fill="#CC642E" transform="matrix(1.00, 0.00, -0.00, -1.00, 163.4, 263.5)">s</text><text xml:space="preserve" font-family="Monaco,Monaco" font-size="16.5" fill="#CC642E" transform="matrix(1.00, 0.00, -0.00, -1.00, 173.3, 263.5)">e</text><text xml:space="preserve" font-family="Monaco,Monaco" font-size="16.5" fill="#CC642E" transform="matrix(1.00, 0.00, -0.00, -1.00, 183.2, 263.5)">l</text><text xml:space="preserve" font-family="Monaco,Monaco" font-size="16.5" fill="#CC642E" transform="matrix(1.00, 0.00, -0.00, -1.00, 193.1, 263.5)">f</text><text xml:space="preserve" font-family="Monaco,Monaco" font-size="16.5" fill="#CC642E" transform="matrix(1.00, 0.00, -0.00, -1.00, 203.0, 263.5)">.</text><text xml:space="preserve" font-family="Monaco,Monaco" font-size="16.5" fill="#CC642E" transform="matrix(1.00, 0.00, -0.00, -1.00, 212.9, 263.5)">d</text><text xml:space="preserve" font-family="Monaco,Monaco" font-size="16.5" fill="#CC642E" transform="matrix(1.00, 0.00, -0.00, -1.00, 222.8, 263.5)">o</text><text xml:space="preserve" font-family="Monaco,Monaco" font-size="16.5" fill="#CC642E" transform="matrix(1.00, 0.00, -0.00, -1.00, 232.7, 263.5)">w</text><text xml:space="preserve" font-family="Monaco,Monaco" font-size="16.5" fill="#CC642E" transform="matrix(1.00, 0.00, -0.00, -1.00, 242.6, 263.5)">n</text><text xml:space="preserve" font-family="Monaco,Monaco" font-size="16.5" fill="#000000" transform="matrix(1.00, 0.00, -0.00, -1.00, 252.5, 263.5)"> </text><text xml:space="preserve" font-family="Monaco,Monaco" font-size="16.5" fill="#000000" transform="matrix(1.00, 0.00, -0.00, -1.00, 104.0, 241.5)"> </text><text xml:space="preserve" font-family="Monaco,Monaco" font-size="16.5" fill="#000000" transform="matrix(1.00, 0.00, -0.00, -1.00, 113.9, 241.5)"> </text><text xml:space="preserve" font-family="Monaco,Monaco" font-size="16.5" fill="#000000" transform="matrix(1.00, 0.00, -0.00, -1.00, 123.8, 241.5)"> </text><text xml:space="preserve" font-family="Monaco,Monaco" font-size="16.5" fill="#000000" transform="matrix(1.00, 0.00, -0.00, -1.00, 133.7, 241.5)"> </text><text xml:space="preserve" font-family="Monaco,Monaco" font-size="16.5" fill="#000000" transform="matrix(1.00, 0.00, -0.00, -1.00, 143.6, 241.5)">d</text><text xml:space="preserve" font-family="Monaco,Monaco" font-size="16.5" fill="#000000" transform="matrix(1.00, 0.00, -0.00, -1.00, 153.5, 241.5)">r</text><text xml:space="preserve" font-family="Monaco,Monaco" font-size="16.5" fill="#000000" transform="matrix(1.00, 0.00, -0.00, -1.00, 163.4, 241.5)">o</text><text xml:space="preserve" font-family="Monaco,Monaco" font-size="16.5" fill="#000000" transform="matrix(1.00, 0.00, -0.00, -1.00, 173.3, 241.5)">p</text><text xml:space="preserve" font-family="Monaco,Monaco" font-size="16.5" fill="#000000" transform="matrix(1.00, 0.00, -0.00, -1.00, 183.2, 241.5)">_</text><text xml:space="preserve" font-family="Monaco,Monaco" font-size="16.5" fill="#000000" transform="matrix(1.00, 0.00, -0.00, -1.00, 193.1, 241.5)">t</text><text xml:space="preserve" font-family="Monaco,Monaco" font-size="16.5" fill="#000000" transform="matrix(1.00, 0.00, -0.00, -1.00, 203.0, 241.5)">a</text><text xml:space="preserve" font-family="Monaco,Monaco" font-size="16.5" fill="#000000" transform="matrix(1.00, 0.00, -0.00, -1.00, 212.9, 241.5)">b</text><text xml:space="preserve" font-family="Monaco,Monaco" font-size="16.5" fill="#000000" transform="matrix(1.00, 0.00, -0.00, -1.00, 222.8, 241.5)">l</text><text xml:space="preserve" font-family="Monaco,Monaco" font-size="16.5" fill="#000000" transform="matrix(1.00, 0.00, -0.00, -1.00, 232.7, 241.5)">e</text><text xml:space="preserve" font-family="Monaco,Monaco" font-size="16.5" fill="#000000" transform="matrix(1.00, 0.00, -0.00, -1.00, 242.6, 241.5)"> </text><text xml:space="preserve" font-family="Monaco,Monaco" font-size="16.5" fill="#942E2F" transform="matrix(1.00, 0.00, -0.00, -1.00, 252.5, 241.5)">:</text><text xml:space="preserve" font-family="Monaco,Monaco" font-size="16.5" fill="#942E2F" transform="matrix(1.00, 0.00, -0.00, -1.00, 262.4, 241.5)">o</text><text xml:space="preserve" font-family="Monaco,Monaco" font-size="16.5" fill="#942E2F" transform="matrix(1.00, 0.00, -0.00, -1.00, 272.3, 241.5)">r</text><text xml:space="preserve" font-family="Monaco,Monaco" font-size="16.5" fill="#942E2F" transform="matrix(1.00, 0.00, -0.00, -1.00, 282.2, 241.5)">d</text><text xml:space="preserve" font-family="Monaco,Monaco" font-size="16.5" fill="#942E2F" transform="matrix(1.00, 0.00, -0.00, -1.00, 292.1, 241.5)">e</text><text xml:space="preserve" font-family="Monaco,Monaco" font-size="16.5" fill="#942E2F" transform="matrix(1.00, 0.00, -0.00, -1.00, 302.0, 241.5)">r</text><text xml:space="preserve" font-family="Monaco,Monaco" font-size="16.5" fill="#942E2F" transform="matrix(1.00, 0.00, -0.00, -1.00, 311.9, 241.5)">_</text><text xml:space="preserve" font-family="Monaco,Monaco" font-size="16.5" fill="#942E2F" transform="matrix(1.00, 0.00, -0.00, -1.00, 321.8, 241.5)">i</text><text xml:space="preserve" font-family="Monaco,Monaco" font-size="16.5" fill="#942E2F" transform="matrix(1.00, 0.00, -0.00, -1.00, 331.8, 241.5)">t</text><text xml:space="preserve" font-family="Monaco,Monaco" font-size="16.5" fill="#942E2F" transform="matrix(1.00, 0.00, -0.00, -1.00, 341.7, 241.5)">e</text><text xml:space="preserve" font-family="Monaco,Monaco" font-size="16.5" fill="#942E2F" transform="matrix(1.00, 0.00, -0.00, -1.00, 351.6, 241.5)">m</text><text xml:space="preserve" font-family="Monaco,Monaco" font-size="16.5" fill="#942E2F" transform="matrix(1.00, 0.00, -0.00, -1.00, 361.5, 241.5)">s</text><text xml:space="preserve" font-family="Monaco,Monaco" font-size="16.5" fill="#000000" transform="matrix(1.00, 0.00, -0.00, -1.00, 371.3, 241.5)"> </text><text xml:space="preserve" font-family="Monaco,Monaco" font-size="16.5" fill="#000000" transform="matrix(1.00, 0.00, -0.00, -1.00, 104.0, 219.5)"> </text><text xml:space="preserve" font-family="Monaco,Monaco" font-size="16.5" fill="#000000" transform="matrix(1.00, 0.00, -0.00, -1.00, 113.9, 219.5)"> </text><text xml:space="preserve" font-family="Monaco,Monaco" font-size="16.5" fill="#8C5B48" transform="matrix(1.00, 0.00, -0.00, -1.00, 123.8, 219.5)">e</text><text xml:space="preserve" font-family="Monaco,Monaco" font-size="16.5" fill="#8C5B48" transform="matrix(1.00, 0.00, -0.00, -1.00, 133.7, 219.5)">n</text><text xml:space="preserve" font-family="Monaco,Monaco" font-size="16.5" fill="#8C5B48" transform="matrix(1.00, 0.00, -0.00, -1.00, 143.6, 219.5)">d</text><text xml:space="preserve" font-family="Monaco,Monaco" font-size="16.5" fill="#000000" transform="matrix(1.00, 0.00, -0.00, -1.00, 153.5, 219.5)"> </text><text xml:space="preserve" font-family="Monaco,Monaco" font-size="16.5" fill="#8C5B48" transform="matrix(1.00, 0.00, -0.00, -1.00, 104.0, 197.5)">e</text><text xml:space="preserve" font-family="Monaco,Monaco" font-size="16.5" fill="#8C5B48" transform="matrix(1.00, 0.00, -0.00, -1.00, 113.9, 197.5)">n</text><text xml:space="preserve" font-family="Monaco,Monaco" font-size="16.5" fill="#8C5B48" transform="matrix(1.00, 0.00, -0.00, -1.00, 123.8, 197.5)">d</text><text xml:space="preserve" font-family="Monaco,Monaco" font-size="16.5" fill="#000000" transform="matrix(1.00, 0.00, -0.00, -1.00, 133.7, 197.5)"> </text></g></svg>