<?xml version="1.0" encoding="UTF-8" standalone="no"?><svg xmlns="http://www.w3.org/2000/svg" xmlns:xlink="http://www.w3.org/1999/xlink" clip-rule="evenodd" stroke-miterlimit="10" viewBox="0 0 1024 768"><desc>SVG generated by Keynote</desc><defs></defs><g transform="matrix(1.00, 0.00, -0.00, -1.00, 0.0, 768.0)"><path d="M 0.0 768.0 L 1024.0 768.0 L 1024.0 0.0 L 0.0 0.0 Z M 0.0 768.0 " fill="#FEFFFF"></path><text xml:space="preserve" font-family="GillSans,Gill Sans" font-size="84.0" fill="#000000" transform="matrix(1.00, 0.00, -0.00, -1.00, 135.1, 623.4)">a</text><text xml:space="preserve" font-family="GillSans,Gill Sans" font-size="84.0" fill="#000000" transform="matrix(1.00, 0.00, -0.00, -1.00, 170.9, 623.4)">d</text><text xml:space="preserve" font-family="GillSans,Gill Sans" font-size="84.0" fill="#000000" transform="matrix(1.00, 0.00, -0.00, -1.00, 212.9, 623.4)">d</text><text xml:space="preserve" font-family="GillSans,Gill Sans" font-size="84.0" fill="#000000" transform="matrix(1.00, 0.00, -0.00, -1.00, 255.7, 623.4)">_</text><text xml:space="preserve" font-family="GillSans,Gill Sans" font-size="84.0" fill="#000000" transform="matrix(1.00, 0.00, -0.00, -1.00, 302.0, 623.4)">[</text><text xml:space="preserve" font-family="GillSans,Gill Sans" font-size="84.0" fill="#000000" transform="matrix(1.00, 0.00, -0.00, -1.00, 330.0, 623.4)">ﬁ</text><text xml:space="preserve" font-family="GillSans,Gill Sans" font-size="84.0" fill="#000000" transform="matrix(1.00, 0.00, -0.00, -1.00, 372.0, 623.4)">e</text><text xml:space="preserve" font-family="GillSans,Gill Sans" font-size="84.0" fill="#000000" transform="matrix(1.00, 0.00, -0.00, -1.00, 412.2, 623.4)">l</text><text xml:space="preserve" font-family="GillSans,Gill Sans" font-size="84.0" fill="#000000" transform="matrix(1.00, 0.00, -0.00, -1.00, 430.7, 623.4)">d</text><text xml:space="preserve" font-family="GillSans,Gill Sans" font-size="84.0" fill="#000000" transform="matrix(1.00, 0.00, -0.00, -1.00, 473.5, 623.4)">]</text><text xml:space="preserve" font-family="GillSans,Gill Sans" font-size="84.0" fill="#000000" transform="matrix(1.00, 0.00, -0.00, -1.00, 501.4, 623.4)">_</text><text xml:space="preserve" font-family="GillSans,Gill Sans" font-size="84.0" fill="#000000" transform="matrix(1.00, 0.00, -0.00, -1.00, 547.8, 623.4)">t</text><text xml:space="preserve" font-family="GillSans,Gill Sans" font-size="84.0" fill="#000000" transform="matrix(1.00, 0.00, -0.00, -1.00, 575.7, 623.4)">o</text><text xml:space="preserve" font-family="GillSans,Gill Sans" font-size="84.0" fill="#000000" transform="matrix(1.00, 0.00, -0.00, -1.00, 622.1, 623.4)">_</text><text xml:space="preserve" font-family="GillSans,Gill Sans" font-size="84.0" fill="#000000" transform="matrix(1.00, 0.00, -0.00, -1.00, 668.4, 623.4)">[</text><text xml:space="preserve" font-family="GillSans,Gill Sans" font-size="84.0" fill="#000000" transform="matrix(1.00, 0.00, -0.00, -1.00, 696.4, 623.4)">t</text><text xml:space="preserve" font-family="GillSans,Gill Sans" font-size="84.0" fill="#000000" transform="matrix(1.00, 0.00, -0.00, -1.00, 724.3, 623.4)">a</text><text xml:space="preserve" font-family="GillSans,Gill Sans" font-size="84.0" fill="#000000" transform="matrix(1.00, 0.00, -0.00, -1.00, 760.2, 623.4)">b</text><text xml:space="preserve" font-family="GillSans,Gill Sans" font-size="84.0" fill="#000000" transform="matrix(1.00, 0.00, -0.00, -1.00, 802.2, 623.4)">l</text><text xml:space="preserve" font-family="GillSans,Gill Sans" font-size="84.0" fill="#000000" transform="matrix(1.00, 0.00, -0.00, -1.00, 820.6, 623.4)">e</text><text xml:space="preserve" font-family="GillSans,Gill Sans" font-size="84.0" fill="#000000" transform="matrix(1.00, 0.00, -0.00, -1.00, 860.8, 623.4)">]</text><text xml:space="preserve" font-family="Monaco,Monaco" font-size="16.5" fill="#000000" transform="matrix(1.00, 0.00, -0.00, -1.00, 104.0, 483.5)">$</text><text xml:space="preserve" font-family="Monaco,Monaco" font-size="16.5" fill="#000000" transform="matrix(1.00, 0.00, -0.00, -1.00, 113.9, 483.5)">r</text><text xml:space="preserve" font-family="Monaco,Monaco" font-size="16.5" fill="#000000" transform="matrix(1.00, 0.00, -0.00, -1.00, 123.8, 483.5)">a</text><text xml:space="preserve" font-family="Monaco,Monaco" font-size="16.5" fill="#000000" transform="matrix(1.00, 0.00, -0.00, -1.00, 133.7, 483.5)">i</text><text xml:space="preserve" font-family="Monaco,Monaco" font-size="16.5" fill="#000000" transform="matrix(1.00, 0.00, -0.00, -1.00, 143.6, 483.5)">l</text><text xml:space="preserve" font-family="Monaco,Monaco" font-size="16.5" fill="#000000" transform="matrix(1.00, 0.00, -0.00, -1.00, 153.5, 483.5)">s</text><text xml:space="preserve" font-family="Monaco,Monaco" font-size="16.5" fill="#000000" transform="matrix(1.00, 0.00, -0.00, -1.00, 163.4, 483.5)"> </text><text xml:space="preserve" font-family="Monaco,Monaco" font-size="16.5" fill="#000000" transform="matrix(1.00, 0.00, -0.00, -1.00, 173.3, 483.5)">g</text><text xml:space="preserve" font-family="Monaco,Monaco" font-size="16.5" fill="#000000" transform="matrix(1.00, 0.00, -0.00, -1.00, 183.2, 483.5)"> </text><text xml:space="preserve" font-family="Monaco,Monaco" font-size="16.5" fill="#000000" transform="matrix(1.00, 0.00, -0.00, -1.00, 193.1, 483.5)">m</text><text xml:space="preserve" font-family="Monaco,Monaco" font-size="16.5" fill="#000000" transform="matrix(1.00, 0.00, -0.00, -1.00, 203.0, 483.5)">i</text><text xml:space="preserve" font-family="Monaco,Monaco" font-size="16.5" fill="#000000" transform="matrix(1.00, 0.00, -0.00, -1.00, 212.9, 483.5)">g</text><text xml:space="preserve" font-family="Monaco,Monaco" font-size="16.5" fill="#000000" transform="matrix(1.00, 0.00, -0.00, -1.00, 222.8, 483.5)">r</text><text xml:space="preserve" font-family="Monaco,Monaco" font-size="16.5" fill="#000000" transform="matrix(1.00, 0.00, -0.00, -1.00, 232.7, 483.5)">a</text><text xml:space="preserve" font-family="Monaco,Monaco" font-size="16.5" fill="#000000" transform="matrix(1.00, 0.00, -0.00, -1.00, 242.6, 483.5)">t</text><text xml:space="preserve" font-family="Monaco,Monaco" font-size="16.5" fill="#000000" transform="matrix(1.00, 0.00, -0.00, -1.00, 252.5, 483.5)">i</text><text xml:space="preserve" font-family="Monaco,Monaco" font-size="16.5" fill="#000000" transform="matrix(1.00, 0.00, -0.00, -1.00, 262.5, 483.5)">o</text><text xml:space="preserve" font-family="Monaco,Monaco" font-size="16.5" fill="#000000" transform="matrix(1.00, 0.00, -0.00, -1.00, 272.4, 483.5)">n</text><text xml:space="preserve" font-family="Monaco,Monaco" font-size="16.5" fill="#000000" transform="matrix(1.00, 0.00, -0.00, -1.00, 282.3, 483.5)"> </text><text xml:space="preserve" font-family="Monaco,Monaco" font-size="16.5" fill="#000000" transform="matrix(1.00, 0.00, -0.00, -1.00, 292.2, 483.5)">a</text><text xml:space="preserve" font-family="Monaco,Monaco" font-size="16.5" fill="#000000" transform="matrix(1.00, 0.00, -0.00, -1.00, 302.1, 483.5)">d</text><text xml:space="preserve" font-family="Monaco,Monaco" font-size="16.5" fill="#000000" transform="matrix(1.00, 0.00, -0.00, -1.00, 312.0, 483.5)">d</text><text xml:space="preserve" font-family="Monaco,Monaco" font-size="16.5" fill="#000000" transform="matrix(1.00, 0.00, -0.00, -1.00, 321.9, 483.5)">_</text><text xml:space="preserve" font-family="Monaco,Monaco" font-size="16.5" fill="#000000" transform="matrix(1.00, 0.00, -0.00, -1.00, 331.8, 483.5)">e</text><text xml:space="preserve" font-family="Monaco,Monaco" font-size="16.5" fill="#000000" transform="matrix(1.00, 0.00, -0.00, -1.00, 341.7, 483.5)">m</text><text xml:space="preserve" font-family="Monaco,Monaco" font-size="16.5" fill="#000000" transform="matrix(1.00, 0.00, -0.00, -1.00, 351.6, 483.5)">a</text><text xml:space="preserve" font-family="Monaco,Monaco" font-size="16.5" fill="#000000" transform="matrix(1.00, 0.00, -0.00, -1.00, 361.5, 483.5)">i</text><text xml:space="preserve" font-family="Monaco,Monaco" font-size="16.5" fill="#000000" transform="matrix(1.00, 0.00, -0.00, -1.00, 371.4, 483.5)">l</text><text xml:space="preserve" font-family="Monaco,Monaco" font-size="16.5" fill="#000000" transform="matrix(1.00, 0.00, -0.00, -1.00, 381.3, 483.5)">_</text><text xml:space="preserve" font-family="Monaco,Monaco" font-size="16.5" fill="#000000" transform="matrix(1.00, 0.00, -0.00, -1.00, 391.2, 483.5)">t</text><text xml:space="preserve" font-family="Monaco,Monaco" font-size="16.5" fill="#000000" transform="matrix(1.00, 0.00, -0.00, -1.00, 401.1, 483.5)">o</text><text xml:space="preserve" font-family="Monaco,Monaco" font-size="16.5" fill="#000000" transform="matrix(1.00, 0.00, -0.00, -1.00, 411.0, 483.5)">_</text><text xml:space="preserve" font-family="Monaco,Monaco" font-size="16.5" fill="#000000" transform="matrix(1.00, 0.00, -0.00, -1.00, 420.9, 483.5)">c</text><text xml:space="preserve" font-family="Monaco,Monaco" font-size="16.5" fill="#000000" transform="matrix(1.00, 0.00, -0.00, -1.00, 430.8, 483.5)">o</text><text xml:space="preserve" font-family="Monaco,Monaco" font-size="16.5" fill="#000000" transform="matrix(1.00, 0.00, -0.00, -1.00, 440.7, 483.5)">n</text><text xml:space="preserve" font-family="Monaco,Monaco" font-size="16.5" fill="#000000" transform="matrix(1.00, 0.00, -0.00, -1.00, 450.6, 483.5)">t</text><text xml:space="preserve" font-family="Monaco,Monaco" font-size="16.5" fill="#000000" transform="matrix(1.00, 0.00, -0.00, -1.00, 460.5, 483.5)">a</text><text xml:space="preserve" font-family="Monaco,Monaco" font-size="16.5" fill="#000000" transform="matrix(1.00, 0.00, -0.00, -1.00, 470.4, 483.5)">c</text><text xml:space="preserve" font-family="Monaco,Monaco" font-size="16.5" fill="#000000" transform="matrix(1.00, 0.00, -0.00, -1.00, 480.3, 483.5)">t</text><text xml:space="preserve" font-family="Monaco,Monaco" font-size="16.5" fill="#000000" transform="matrix(1.00, 0.00, -0.00, -1.00, 490.2, 483.5)">s</text><text xml:space="preserve" font-family="Monaco,Monaco" font-size="16.5" fill="#000000" transform="matrix(1.00, 0.00, -0.00, -1.00, 500.1, 483.5)"> </text><text xml:space="preserve" font-family="Monaco,Monaco" font-size="16.5" fill="#000000" transform="matrix(1.00, 0.00, -0.00, -1.00, 510.0, 483.5)">e</text><text xml:space="preserve" font-family="Monaco,Monaco" font-size="16.5" fill="#000000" transform="matrix(1.00, 0.00, -0.00, -1.00, 519.9, 483.5)">m</text><text xml:space="preserve" font-family="Monaco,Monaco" font-size="16.5" fill="#000000" transform="matrix(1.00, 0.00, -0.00, -1.00, 529.8, 483.5)">a</text><text xml:space="preserve" font-family="Monaco,Monaco" font-size="16.5" fill="#000000" transform="matrix(1.00, 0.00, -0.00, -1.00, 539.7, 483.5)">i</text><text xml:space="preserve" font-family="Monaco,Monaco" font-size="16.5" fill="#000000" transform="matrix(1.00, 0.00, -0.00, -1.00, 549.6, 483.5)">l</text><text xml:space="preserve" font-family="Monaco,Monaco" font-size="16.5" fill="#000000" transform="matrix(1.00, 0.00, -0.00, -1.00, 559.6, 483.5)">:</text><text xml:space="preserve" font-family="Monaco,Monaco" font-size="16.5" fill="#000000" transform="matrix(1.00, 0.00, -0.00, -1.00, 569.5, 483.5)">s</text><text xml:space="preserve" font-family="Monaco,Monaco" font-size="16.5" fill="#000000" transform="matrix(1.00, 0.00, -0.00, -1.00, 579.4, 483.5)">t</text><text xml:space="preserve" font-family="Monaco,Monaco" font-size="16.5" fill="#000000" transform="matrix(1.00, 0.00, -0.00, -1.00, 589.3, 483.5)">r</text><text xml:space="preserve" font-family="Monaco,Monaco" font-size="16.5" fill="#000000" transform="matrix(1.00, 0.00, -0.00, -1.00, 599.2, 483.5)">i</text><text xml:space="preserve" font-family="Monaco,Monaco" font-size="16.5" fill="#000000" transform="matrix(1.00, 0.00, -0.00, -1.00, 609.1, 483.5)">n</text><text xml:space="preserve" font-family="Monaco,Monaco" font-size="16.5" fill="#000000" transform="matrix(1.00, 0.00, -0.00, -1.00, 619.0, 483.5)">g</text><text xml:space="preserve" font-family="Monaco,Monaco" font-size="16.5" fill="#6D6572" transform="matrix(1.00, 0.00, -0.00, -1.00, 104.0, 395.5)">#</text><text xml:space="preserve" font-family="Monaco,Monaco" font-size="16.5" fill="#6D6572" transform="matrix(1.00, 0.00, -0.00, -1.00, 113.9, 395.5)"> </text><text xml:space="preserve" font-family="Monaco,Monaco" font-size="16.5" fill="#6D6572" transform="matrix(1.00, 0.00, -0.00, -1.00, 123.8, 395.5)">2</text><text xml:space="preserve" font-family="Monaco,Monaco" font-size="16.5" fill="#6D6572" transform="matrix(1.00, 0.00, -0.00, -1.00, 133.7, 395.5)">0</text><text xml:space="preserve" font-family="Monaco,Monaco" font-size="16.5" fill="#6D6572" transform="matrix(1.00, 0.00, -0.00, -1.00, 143.6, 395.5)">1</text><text xml:space="preserve" font-family="Monaco,Monaco" font-size="16.5" fill="#6D6572" transform="matrix(1.00, 0.00, -0.00, -1.00, 153.5, 395.5)">2</text><text xml:space="preserve" font-family="Monaco,Monaco" font-size="16.5" fill="#6D6572" transform="matrix(1.00, 0.00, -0.00, -1.00, 163.4, 395.5)">0</text><text xml:space="preserve" font-family="Monaco,Monaco" font-size="16.5" fill="#6D6572" transform="matrix(1.00, 0.00, -0.00, -1.00, 173.3, 395.5)">4</text><text xml:space="preserve" font-family="Monaco,Monaco" font-size="16.5" fill="#6D6572" transform="matrix(1.00, 0.00, -0.00, -1.00, 183.2, 395.5)">0</text><text xml:space="preserve" font-family="Monaco,Monaco" font-size="16.5" fill="#6D6572" transform="matrix(1.00, 0.00, -0.00, -1.00, 193.1, 395.5)">4</text><text xml:space="preserve" font-family="Monaco,Monaco" font-size="16.5" fill="#6D6572" transform="matrix(1.00, 0.00, -0.00, -1.00, 203.0, 395.5)">2</text><text xml:space="preserve" font-family="Monaco,Monaco" font-size="16.5" fill="#6D6572" transform="matrix(1.00, 0.00, -0.00, -1.00, 212.9, 395.5)">3</text><text xml:space="preserve" font-family="Monaco,Monaco" font-size="16.5" fill="#6D6572" transform="matrix(1.00, 0.00, -0.00, -1.00, 222.8, 395.5)">1</text><text xml:space="preserve" font-family="Monaco,Monaco" font-size="16.5" fill="#6D6572" transform="matrix(1.00, 0.00, -0.00, -1.00, 232.7, 395.5)">2</text><text xml:space="preserve" font-family="Monaco,Monaco" font-size="16.5" fill="#6D6572" transform="matrix(1.00, 0.00, -0.00, -1.00, 242.6, 395.5)">3</text><text xml:space="preserve" font-family="Monaco,Monaco" font-size="16.5" fill="#6D6572" transform="matrix(1.00, 0.00, -0.00, -1.00, 252.5, 395.5)">4</text><text xml:space="preserve" font-family="Monaco,Monaco" font-size="16.5" fill="#6D6572" transform="matrix(1.00, 0.00, -0.00, -1.00, 262.5, 395.5)">_</text><text xml:space="preserve" font-family="Monaco,Monaco" font-size="16.5" fill="#6D6572" transform="matrix(1.00, 0.00, -0.00, -1.00, 272.4, 395.5)">a</text><text xml:space="preserve" font-family="Monaco,Monaco" font-size="16.5" fill="#6D6572" transform="matrix(1.00, 0.00, -0.00, -1.00, 282.3, 395.5)">d</text><text xml:space="preserve" font-family="Monaco,Monaco" font-size="16.5" fill="#6D6572" transform="matrix(1.00, 0.00, -0.00, -1.00, 292.2, 395.5)">d</text><text xml:space="preserve" font-family="Monaco,Monaco" font-size="16.5" fill="#6D6572" transform="matrix(1.00, 0.00, -0.00, -1.00, 302.1, 395.5)">_</text><text xml:space="preserve" font-family="Monaco,Monaco" font-size="16.5" fill="#6D6572" transform="matrix(1.00, 0.00, -0.00, -1.00, 312.0, 395.5)">e</text><text xml:space="preserve" font-family="Monaco,Monaco" font-size="16.5" fill="#6D6572" transform="matrix(1.00, 0.00, -0.00, -1.00, 321.9, 395.5)">m</text><text xml:space="preserve" font-family="Monaco,Monaco" font-size="16.5" fill="#6D6572" transform="matrix(1.00, 0.00, -0.00, -1.00, 331.8, 395.5)">a</text><text xml:space="preserve" font-family="Monaco,Monaco" font-size="16.5" fill="#6D6572" transform="matrix(1.00, 0.00, -0.00, -1.00, 341.7, 395.5)">i</text><text xml:space="preserve" font-family="Monaco,Monaco" font-size="16.5" fill="#6D6572" transform="matrix(1.00, 0.00, -0.00, -1.00, 351.6, 395.5)">l</text><text xml:space="preserve" font-family="Monaco,Monaco" font-size="16.5" fill="#6D6572" transform="matrix(1.00, 0.00, -0.00, -1.00, 361.5, 395.5)">_</text><text xml:space="preserve" font-family="Monaco,Monaco" font-size="16.5" fill="#6D6572" transform="matrix(1.00, 0.00, -0.00, -1.00, 371.4, 395.5)">t</text><text xml:space="preserve" font-family="Monaco,Monaco" font-size="16.5" fill="#6D6572" transform="matrix(1.00, 0.00, -0.00, -1.00, 381.3, 395.5)">o</text><text xml:space="preserve" font-family="Monaco,Monaco" font-size="16.5" fill="#6D6572" transform="matrix(1.00, 0.00, -0.00, -1.00, 391.2, 395.5)">_</text><text xml:space="preserve" font-family="Monaco,Monaco" font-size="16.5" fill="#6D6572" transform="matrix(1.00, 0.00, -0.00, -1.00, 401.1, 395.5)">c</text><text xml:space="preserve" font-family="Monaco,Monaco" font-size="16.5" fill="#6D6572" transform="matrix(1.00, 0.00, -0.00, -1.00, 411.0, 395.5)">o</text><text xml:space="preserve" font-family="Monaco,Monaco" font-size="16.5" fill="#6D6572" transform="matrix(1.00, 0.00, -0.00, -1.00, 420.9, 395.5)">n</text><text xml:space="preserve" font-family="Monaco,Monaco" font-size="16.5" fill="#6D6572" transform="matrix(1.00, 0.00, -0.00, -1.00, 430.8, 395.5)">t</text><text xml:space="preserve" font-family="Monaco,Monaco" font-size="16.5" fill="#6D6572" transform="matrix(1.00, 0.00, -0.00, -1.00, 440.7, 395.5)">a</text><text xml:space="preserve" font-family="Monaco,Monaco" font-size="16.5" fill="#6D6572" transform="matrix(1.00, 0.00, -0.00, -1.00, 450.6, 395.5)">c</text><text xml:space="preserve" font-family="Monaco,Monaco" font-size="16.5" fill="#6D6572" transform="matrix(1.00, 0.00, -0.00, -1.00, 460.5, 395.5)">t</text><text xml:space="preserve" font-family="Monaco,Monaco" font-size="16.5" fill="#6D6572" transform="matrix(1.00, 0.00, -0.00, -1.00, 470.4, 395.5)">s</text><text xml:space="preserve" font-family="Monaco,Monaco" font-size="16.5" fill="#6D6572" transform="matrix(1.00, 0.00, -0.00, -1.00, 480.3, 395.5)">.</text><text xml:space="preserve" font-family="Monaco,Monaco" font-size="16.5" fill="#6D6572" transform="matrix(1.00, 0.00, -0.00, -1.00, 490.2, 395.5)">r</text><text xml:space="preserve" font-family="Monaco,Monaco" font-size="16.5" fill="#6D6572" transform="matrix(1.00, 0.00, -0.00, -1.00, 500.1, 395.5)">b</text><text xml:space="preserve" font-family="Monaco,Monaco" font-size="16.5" fill="#8C5B48" transform="matrix(1.00, 0.00, -0.00, -1.00, 104.0, 351.5)">c</text><text xml:space="preserve" font-family="Monaco,Monaco" font-size="16.5" fill="#8C5B48" transform="matrix(1.00, 0.00, -0.00, -1.00, 113.9, 351.5)">l</text><text xml:space="preserve" font-family="Monaco,Monaco" font-size="16.5" fill="#8C5B48" transform="matrix(1.00, 0.00, -0.00, -1.00, 123.8, 351.5)">a</text><text xml:space="preserve" font-family="Monaco,Monaco" font-size="16.5" fill="#8C5B48" transform="matrix(1.00, 0.00, -0.00, -1.00, 133.7, 351.5)">s</text><text xml:space="preserve" font-family="Monaco,Monaco" font-size="16.5" fill="#8C5B48" transform="matrix(1.00, 0.00, -0.00, -1.00, 143.6, 351.5)">s</text><text xml:space="preserve" font-family="Monaco,Monaco" font-size="16.5" fill="#000000" transform="matrix(1.00, 0.00, -0.00, -1.00, 153.5, 351.5)"> </text><text xml:space="preserve" font-family="Monaco,Monaco" font-size="16.5" fill="#CC642E" transform="matrix(1.00, 0.00, -0.00, -1.00, 163.4, 351.5)">A</text><text xml:space="preserve" font-family="Monaco,Monaco" font-size="16.5" fill="#CC642E" transform="matrix(1.00, 0.00, -0.00, -1.00, 173.3, 351.5)">d</text><text xml:space="preserve" font-family="Monaco,Monaco" font-size="16.5" fill="#CC642E" transform="matrix(1.00, 0.00, -0.00, -1.00, 183.2, 351.5)">d</text><text xml:space="preserve" font-family="Monaco,Monaco" font-size="16.5" fill="#CC642E" transform="matrix(1.00, 0.00, -0.00, -1.00, 193.1, 351.5)">E</text><text xml:space="preserve" font-family="Monaco,Monaco" font-size="16.5" fill="#CC642E" transform="matrix(1.00, 0.00, -0.00, -1.00, 203.0, 351.5)">m</text><text xml:space="preserve" font-family="Monaco,Monaco" font-size="16.5" fill="#CC642E" transform="matrix(1.00, 0.00, -0.00, -1.00, 212.9, 351.5)">a</text><text xml:space="preserve" font-family="Monaco,Monaco" font-size="16.5" fill="#CC642E" transform="matrix(1.00, 0.00, -0.00, -1.00, 222.8, 351.5)">i</text><text xml:space="preserve" font-family="Monaco,Monaco" font-size="16.5" fill="#CC642E" transform="matrix(1.00, 0.00, -0.00, -1.00, 232.7, 351.5)">l</text><text xml:space="preserve" font-family="Monaco,Monaco" font-size="16.5" fill="#CC642E" transform="matrix(1.00, 0.00, -0.00, -1.00, 242.6, 351.5)">T</text><text xml:space="preserve" font-family="Monaco,Monaco" font-size="16.5" fill="#CC642E" transform="matrix(1.00, 0.00, -0.00, -1.00, 252.5, 351.5)">o</text><text xml:space="preserve" font-family="Monaco,Monaco" font-size="16.5" fill="#CC642E" transform="matrix(1.00, 0.00, -0.00, -1.00, 262.4, 351.5)">C</text><text xml:space="preserve" font-family="Monaco,Monaco" font-size="16.5" fill="#CC642E" transform="matrix(1.00, 0.00, -0.00, -1.00, 272.3, 351.5)">o</text><text xml:space="preserve" font-family="Monaco,Monaco" font-size="16.5" fill="#CC642E" transform="matrix(1.00, 0.00, -0.00, -1.00, 282.2, 351.5)">n</text><text xml:space="preserve" font-family="Monaco,Monaco" font-size="16.5" fill="#CC642E" transform="matrix(1.00, 0.00, -0.00, -1.00, 292.2, 351.5)">t</text><text xml:space="preserve" font-family="Monaco,Monaco" font-size="16.5" fill="#CC642E" transform="matrix(1.00, 0.00, -0.00, -1.00, 302.1, 351.5)">a</text><text xml:space="preserve" font-family="Monaco,Monaco" font-size="16.5" fill="#CC642E" transform="matrix(1.00, 0.00, -0.00, -1.00, 312.0, 351.5)">c</text><text xml:space="preserve" font-family="Monaco,Monaco" font-size="16.5" fill="#CC642E" transform="matrix(1.00, 0.00, -0.00, -1.00, 321.9, 351.5)">t</text><text xml:space="preserve" font-family="Monaco,Monaco" font-size="16.5" fill="#CC642E" transform="matrix(1.00, 0.00, -0.00, -1.00, 331.8, 351.5)">s</text><text xml:space="preserve" font-family="Monaco,Monaco" font-size="16.5" fill="#000000" transform="matrix(1.00, 0.00, -0.00, -1.00, 341.6, 351.5)"> </text><text xml:space="preserve" font-family="Monaco,Monaco" font-size="16.5" fill="#8C5B48" transform="matrix(1.00, 0.00, -0.00, -1.00, 351.5, 351.5)">&lt;</text><text xml:space="preserve" font-family="Monaco,Monaco" font-size="16.5" fill="#CC642E" transform="matrix(1.00, 0.00, -0.00, -1.00, 361.4, 351.5)"> </text><text xml:space="preserve" font-family="Monaco,Monaco" font-size="16.5" fill="#CC642E" transform="matrix(1.00, 0.00, -0.00, -1.00, 371.3, 351.5)">A</text><text xml:space="preserve" font-family="Monaco,Monaco" font-size="16.5" fill="#CC642E" transform="matrix(1.00, 0.00, -0.00, -1.00, 381.2, 351.5)">c</text><text xml:space="preserve" font-family="Monaco,Monaco" font-size="16.5" fill="#CC642E" transform="matrix(1.00, 0.00, -0.00, -1.00, 391.2, 351.5)">t</text><text xml:space="preserve" font-family="Monaco,Monaco" font-size="16.5" fill="#CC642E" transform="matrix(1.00, 0.00, -0.00, -1.00, 401.1, 351.5)">i</text><text xml:space="preserve" font-family="Monaco,Monaco" font-size="16.5" fill="#CC642E" transform="matrix(1.00, 0.00, -0.00, -1.00, 411.0, 351.5)">v</text><text xml:space="preserve" font-family="Monaco,Monaco" font-size="16.5" fill="#CC642E" transform="matrix(1.00, 0.00, -0.00, -1.00, 420.9, 351.5)">e</text><text xml:space="preserve" font-family="Monaco,Monaco" font-size="16.5" fill="#CC642E" transform="matrix(1.00, 0.00, -0.00, -1.00, 430.8, 351.5)">R</text><text xml:space="preserve" font-family="Monaco,Monaco" font-size="16.5" fill="#CC642E" transform="matrix(1.00, 0.00, -0.00, -1.00, 440.7, 351.5)">e</text><text xml:space="preserve" font-family="Monaco,Monaco" font-size="16.5" fill="#CC642E" transform="matrix(1.00, 0.00, -0.00, -1.00, 450.6, 351.5)">c</text><text xml:space="preserve" font-family="Monaco,Monaco" font-size="16.5" fill="#CC642E" transform="matrix(1.00, 0.00, -0.00, -1.00, 460.5, 351.5)">o</text><text xml:space="preserve" font-family="Monaco,Monaco" font-size="16.5" fill="#CC642E" transform="matrix(1.00, 0.00, -0.00, -1.00, 470.4, 351.5)">r</text><text xml:space="preserve" font-family="Monaco,Monaco" font-size="16.5" fill="#CC642E" transform="matrix(1.00, 0.00, -0.00, -1.00, 480.3, 351.5)">d</text><text xml:space="preserve" font-family="Monaco,Monaco" font-size="16.5" fill="#CC642E" transform="matrix(1.00, 0.00, -0.00, -1.00, 490.2, 351.5)">:</text><text xml:space="preserve" font-family="Monaco,Monaco" font-size="16.5" fill="#CC642E" transform="matrix(1.00, 0.00, -0.00, -1.00, 500.1, 351.5)">:</text><text xml:space="preserve" font-family="Monaco,Monaco" font-size="16.5" fill="#CC642E" transform="matrix(1.00, 0.00, -0.00, -1.00, 510.0, 351.5)">M</text><text xml:space="preserve" font-family="Monaco,Monaco" font-size="16.5" fill="#CC642E" transform="matrix(1.00, 0.00, -0.00, -1.00, 519.9, 351.5)">i</text><text xml:space="preserve" font-family="Monaco,Monaco" font-size="16.5" fill="#CC642E" transform="matrix(1.00, 0.00, -0.00, -1.00, 529.8, 351.5)">g</text><text xml:space="preserve" font-family="Monaco,Monaco" font-size="16.5" fill="#CC642E" transform="matrix(1.00, 0.00, -0.00, -1.00, 539.7, 351.5)">r</text><text xml:space="preserve" font-family="Monaco,Monaco" font-size="16.5" fill="#CC642E" transform="matrix(1.00, 0.00, -0.00, -1.00, 549.6, 351.5)">a</text><text xml:space="preserve" font-family="Monaco,Monaco" font-size="16.5" fill="#CC642E" transform="matrix(1.00, 0.00, -0.00, -1.00, 559.5, 351.5)">t</text><text xml:space="preserve" font-family="Monaco,Monaco" font-size="16.5" fill="#CC642E" transform="matrix(1.00, 0.00, -0.00, -1.00, 569.4, 351.5)">i</text><text xml:space="preserve" font-family="Monaco,Monaco" font-size="16.5" fill="#CC642E" transform="matrix(1.00, 0.00, -0.00, -1.00, 579.3, 351.5)">o</text><text xml:space="preserve" font-family="Monaco,Monaco" font-size="16.5" fill="#CC642E" transform="matrix(1.00, 0.00, -0.00, -1.00, 589.2, 351.5)">n</text><text xml:space="preserve" font-family="Monaco,Monaco" font-size="16.5" fill="#000000" transform="matrix(1.00, 0.00, -0.00, -1.00, 599.1, 351.5)"> </text><text xml:space="preserve" font-family="Monaco,Monaco" font-size="16.5" fill="#000000" transform="matrix(1.00, 0.00, -0.00, -1.00, 104.0, 329.5)"> </text><text xml:space="preserve" font-family="Monaco,Monaco" font-size="16.5" fill="#000000" transform="matrix(1.00, 0.00, -0.00, -1.00, 113.9, 329.5)"> </text><text xml:space="preserve" font-family="Monaco,Monaco" font-size="16.5" fill="#8C5B48" transform="matrix(1.00, 0.00, -0.00, -1.00, 123.8, 329.5)">d</text><text xml:space="preserve" font-family="Monaco,Monaco" font-size="16.5" fill="#8C5B48" transform="matrix(1.00, 0.00, -0.00, -1.00, 133.7, 329.5)">e</text><text xml:space="preserve" font-family="Monaco,Monaco" font-size="16.5" fill="#8C5B48" transform="matrix(1.00, 0.00, -0.00, -1.00, 143.6, 329.5)">f</text><text xml:space="preserve" font-family="Monaco,Monaco" font-size="16.5" fill="#000000" transform="matrix(1.00, 0.00, -0.00, -1.00, 153.5, 329.5)"> </text><text xml:space="preserve" font-family="Monaco,Monaco" font-size="16.5" fill="#CC642E" transform="matrix(1.00, 0.00, -0.00, -1.00, 163.4, 329.5)">s</text><text xml:space="preserve" font-family="Monaco,Monaco" font-size="16.5" fill="#CC642E" transform="matrix(1.00, 0.00, -0.00, -1.00, 173.3, 329.5)">e</text><text xml:space="preserve" font-family="Monaco,Monaco" font-size="16.5" fill="#CC642E" transform="matrix(1.00, 0.00, -0.00, -1.00, 183.2, 329.5)">l</text><text xml:space="preserve" font-family="Monaco,Monaco" font-size="16.5" fill="#CC642E" transform="matrix(1.00, 0.00, -0.00, -1.00, 193.1, 329.5)">f</text><text xml:space="preserve" font-family="Monaco,Monaco" font-size="16.5" fill="#CC642E" transform="matrix(1.00, 0.00, -0.00, -1.00, 203.0, 329.5)">.</text><text xml:space="preserve" font-family="Monaco,Monaco" font-size="16.5" fill="#CC642E" transform="matrix(1.00, 0.00, -0.00, -1.00, 212.9, 329.5)">u</text><text xml:space="preserve" font-family="Monaco,Monaco" font-size="16.5" fill="#CC642E" transform="matrix(1.00, 0.00, -0.00, -1.00, 222.8, 329.5)">p</text><text xml:space="preserve" font-family="Monaco,Monaco" font-size="16.5" fill="#000000" transform="matrix(1.00, 0.00, -0.00, -1.00, 232.7, 329.5)"> </text><text xml:space="preserve" font-family="Monaco,Monaco" font-size="16.5" fill="#000000" transform="matrix(1.00, 0.00, -0.00, -1.00, 104.0, 307.5)"> </text><text xml:space="preserve" font-family="Monaco,Monaco" font-size="16.5" fill="#000000" transform="matrix(1.00, 0.00, -0.00, -1.00, 113.9, 307.5)"> </text><text xml:space="preserve" font-family="Monaco,Monaco" font-size="16.5" fill="#000000" transform="matrix(1.00, 0.00, -0.00, -1.00, 123.8, 307.5)"> </text><text xml:space="preserve" font-family="Monaco,Monaco" font-size="16.5" fill="#000000" transform="matrix(1.00, 0.00, -0.00, -1.00, 133.7, 307.5)"> </text><text xml:space="preserve" font-family="Monaco,Monaco" font-size="16.5" fill="#000000" transform="matrix(1.00, 0.00, -0.00, -1.00, 143.6, 307.5)">a</text><text xml:space="preserve" font-family="Monaco,Monaco" font-size="16.5" fill="#000000" transform="matrix(1.00, 0.00, -0.00, -1.00, 153.5, 307.5)">d</text><text xml:space="preserve" font-family="Monaco,Monaco" font-size="16.5" fill="#000000" transform="matrix(1.00, 0.00, -0.00, -1.00, 163.4, 307.5)">d</text><text xml:space="preserve" font-family="Monaco,Monaco" font-size="16.5" fill="#000000" transform="matrix(1.00, 0.00, -0.00, -1.00, 173.3, 307.5)">_</text><text xml:space="preserve" font-family="Monaco,Monaco" font-size="16.5" fill="#000000" transform="matrix(1.00, 0.00, -0.00, -1.00, 183.2, 307.5)">c</text><text xml:space="preserve" font-family="Monaco,Monaco" font-size="16.5" fill="#000000" transform="matrix(1.00, 0.00, -0.00, -1.00, 193.1, 307.5)">o</text><text xml:space="preserve" font-family="Monaco,Monaco" font-size="16.5" fill="#000000" transform="matrix(1.00, 0.00, -0.00, -1.00, 203.0, 307.5)">l</text><text xml:space="preserve" font-family="Monaco,Monaco" font-size="16.5" fill="#000000" transform="matrix(1.00, 0.00, -0.00, -1.00, 212.9, 307.5)">u</text><text xml:space="preserve" font-family="Monaco,Monaco" font-size="16.5" fill="#000000" transform="matrix(1.00, 0.00, -0.00, -1.00, 222.8, 307.5)">m</text><text xml:space="preserve" font-family="Monaco,Monaco" font-size="16.5" fill="#000000" transform="matrix(1.00, 0.00, -0.00, -1.00, 232.7, 307.5)">n</text><text xml:space="preserve" font-family="Monaco,Monaco" font-size="16.5" fill="#000000" transform="matrix(1.00, 0.00, -0.00, -1.00, 242.6, 307.5)"> </text><text xml:space="preserve" font-family="Monaco,Monaco" font-size="16.5" fill="#942E2F" transform="matrix(1.00, 0.00, -0.00, -1.00, 252.5, 307.5)">:</text><text xml:space="preserve" font-family="Monaco,Monaco" font-size="16.5" fill="#942E2F" transform="matrix(1.00, 0.00, -0.00, -1.00, 262.4, 307.5)">c</text><text xml:space="preserve" font-family="Monaco,Monaco" font-size="16.5" fill="#942E2F" transform="matrix(1.00, 0.00, -0.00, -1.00, 272.3, 307.5)">o</text><text xml:space="preserve" font-family="Monaco,Monaco" font-size="16.5" fill="#942E2F" transform="matrix(1.00, 0.00, -0.00, -1.00, 282.2, 307.5)">n</text><text xml:space="preserve" font-family="Monaco,Monaco" font-size="16.5" fill="#942E2F" transform="matrix(1.00, 0.00, -0.00, -1.00, 292.1, 307.5)">t</text><text xml:space="preserve" font-family="Monaco,Monaco" font-size="16.5" fill="#942E2F" transform="matrix(1.00, 0.00, -0.00, -1.00, 302.0, 307.5)">a</text><text xml:space="preserve" font-family="Monaco,Monaco" font-size="16.5" fill="#942E2F" transform="matrix(1.00, 0.00, -0.00, -1.00, 311.9, 307.5)">c</text><text xml:space="preserve" font-family="Monaco,Monaco" font-size="16.5" fill="#942E2F" transform="matrix(1.00, 0.00, -0.00, -1.00, 321.8, 307.5)">t</text><text xml:space="preserve" font-family="Monaco,Monaco" font-size="16.5" fill="#942E2F" transform="matrix(1.00, 0.00, -0.00, -1.00, 331.8, 307.5)">s</text><text xml:space="preserve" font-family="Monaco,Monaco" font-size="16.5" fill="#8C5B48" transform="matrix(1.00, 0.00, -0.00, -1.00, 341.6, 307.5)">,</text><text xml:space="preserve" font-family="Monaco,Monaco" font-size="16.5" fill="#000000" transform="matrix(1.00, 0.00, -0.00, -1.00, 351.5, 307.5)"> </text><text xml:space="preserve" font-family="Monaco,Monaco" font-size="16.5" fill="#942E2F" transform="matrix(1.00, 0.00, -0.00, -1.00, 361.4, 307.5)">:</text><text xml:space="preserve" font-family="Monaco,Monaco" font-size="16.5" fill="#942E2F" transform="matrix(1.00, 0.00, -0.00, -1.00, 371.3, 307.5)">e</text><text xml:space="preserve" font-family="Monaco,Monaco" font-size="16.5" fill="#942E2F" transform="matrix(1.00, 0.00, -0.00, -1.00, 381.2, 307.5)">m</text><text xml:space="preserve" font-family="Monaco,Monaco" font-size="16.5" fill="#942E2F" transform="matrix(1.00, 0.00, -0.00, -1.00, 391.2, 307.5)">a</text><text xml:space="preserve" font-family="Monaco,Monaco" font-size="16.5" fill="#942E2F" transform="matrix(1.00, 0.00, -0.00, -1.00, 401.1, 307.5)">i</text><text xml:space="preserve" font-family="Monaco,Monaco" font-size="16.5" fill="#942E2F" transform="matrix(1.00, 0.00, -0.00, -1.00, 411.0, 307.5)">l</text><text xml:space="preserve" font-family="Monaco,Monaco" font-size="16.5" fill="#8C5B48" transform="matrix(1.00, 0.00, -0.00, -1.00, 420.9, 307.5)">,</text><text xml:space="preserve" font-family="Monaco,Monaco" font-size="16.5" fill="#000000" transform="matrix(1.00, 0.00, -0.00, -1.00, 430.8, 307.5)"> </text><text xml:space="preserve" font-family="Monaco,Monaco" font-size="16.5" fill="#942E2F" transform="matrix(1.00, 0.00, -0.00, -1.00, 440.7, 307.5)">:</text><text xml:space="preserve" font-family="Monaco,Monaco" font-size="16.5" fill="#942E2F" transform="matrix(1.00, 0.00, -0.00, -1.00, 450.6, 307.5)">s</text><text xml:space="preserve" font-family="Monaco,Monaco" font-size="16.5" fill="#942E2F" transform="matrix(1.00, 0.00, -0.00, -1.00, 460.5, 307.5)">t</text><text xml:space="preserve" font-family="Monaco,Monaco" font-size="16.5" fill="#942E2F" transform="matrix(1.00, 0.00, -0.00, -1.00, 470.4, 307.5)">r</text><text xml:space="preserve" font-family="Monaco,Monaco" font-size="16.5" fill="#942E2F" transform="matrix(1.00, 0.00, -0.00, -1.00, 480.3, 307.5)">i</text><text xml:space="preserve" font-family="Monaco,Monaco" font-size="16.5" fill="#942E2F" transform="matrix(1.00, 0.00, -0.00, -1.00, 490.2, 307.5)">n</text><text xml:space="preserve" font-family="Monaco,Monaco" font-size="16.5" fill="#942E2F" transform="matrix(1.00, 0.00, -0.00, -1.00, 500.1, 307.5)">g</text><text xml:space="preserve" font-family="Monaco,Monaco" font-size="16.5" fill="#000000" transform="matrix(1.00, 0.00, -0.00, -1.00, 510.0, 307.5)"> </text><text xml:space="preserve" font-family="Monaco,Monaco" font-size="16.5" fill="#000000" transform="matrix(1.00, 0.00, -0.00, -1.00, 104.0, 285.5)"> </text><text xml:space="preserve" font-family="Monaco,Monaco" font-size="16.5" fill="#000000" transform="matrix(1.00, 0.00, -0.00, -1.00, 113.9, 285.5)"> </text><text xml:space="preserve" font-family="Monaco,Monaco" font-size="16.5" fill="#8C5B48" transform="matrix(1.00, 0.00, -0.00, -1.00, 123.8, 285.5)">e</text><text xml:space="preserve" font-family="Monaco,Monaco" font-size="16.5" fill="#8C5B48" transform="matrix(1.00, 0.00, -0.00, -1.00, 133.7, 285.5)">n</text><text xml:space="preserve" font-family="Monaco,Monaco" font-size="16.5" fill="#8C5B48" transform="matrix(1.00, 0.00, -0.00, -1.00, 143.6, 285.5)">d</text><text xml:space="preserve" font-family="Monaco,Monaco" font-size="16.5" fill="#000000" transform="matrix(1.00, 0.00, -0.00, -1.00, 153.5, 285.5)"> </text><text xml:space="preserve" font-family="Monaco,Monaco" font-size="16.5" fill="#000000" transform="matrix(1.00, 0.00, -0.00, -1.00, 104.0, 263.5)"> </text><text xml:space="preserve" font-family="Monaco,Monaco" font-size="16.5" fill="#000000" transform="matrix(1.00, 0.00, -0.00, -1.00, 104.0, 241.5)"> </text><text xml:space="preserve" font-family="Monaco,Monaco" font-size="16.5" fill="#000000" transform="matrix(1.00, 0.00, -0.00, -1.00, 113.9, 241.5)"> </text><text xml:space="preserve" font-family="Monaco,Monaco" font-size="16.5" fill="#8C5B48" transform="matrix(1.00, 0.00, -0.00, -1.00, 123.8, 241.5)">d</text><text xml:space="preserve" font-family="Monaco,Monaco" font-size="16.5" fill="#8C5B48" transform="matrix(1.00, 0.00, -0.00, -1.00, 133.7, 241.5)">e</text><text xml:space="preserve" font-family="Monaco,Monaco" font-size="16.5" fill="#8C5B48" transform="matrix(1.00, 0.00, -0.00, -1.00, 143.6, 241.5)">f</text><text xml:space="preserve" font-family="Monaco,Monaco" font-size="16.5" fill="#000000" transform="matrix(1.00, 0.00, -0.00, -1.00, 153.5, 241.5)"> </text><text xml:space="preserve" font-family="Monaco,Monaco" font-size="16.5" fill="#CC642E" transform="matrix(1.00, 0.00, -0.00, -1.00, 163.4, 241.5)">s</text><text xml:space="preserve" font-family="Monaco,Monaco" font-size="16.5" fill="#CC642E" transform="matrix(1.00, 0.00, -0.00, -1.00, 173.3, 241.5)">e</text><text xml:space="preserve" font-family="Monaco,Monaco" font-size="16.5" fill="#CC642E" transform="matrix(1.00, 0.00, -0.00, -1.00, 183.2, 241.5)">l</text><text xml:space="preserve" font-family="Monaco,Monaco" font-size="16.5" fill="#CC642E" transform="matrix(1.00, 0.00, -0.00, -1.00, 193.1, 241.5)">f</text><text xml:space="preserve" font-family="Monaco,Monaco" font-size="16.5" fill="#CC642E" transform="matrix(1.00, 0.00, -0.00, -1.00, 203.0, 241.5)">.</text><text xml:space="preserve" font-family="Monaco,Monaco" font-size="16.5" fill="#CC642E" transform="matrix(1.00, 0.00, -0.00, -1.00, 212.9, 241.5)">d</text><text xml:space="preserve" font-family="Monaco,Monaco" font-size="16.5" fill="#CC642E" transform="matrix(1.00, 0.00, -0.00, -1.00, 222.8, 241.5)">o</text><text xml:space="preserve" font-family="Monaco,Monaco" font-size="16.5" fill="#CC642E" transform="matrix(1.00, 0.00, -0.00, -1.00, 232.7, 241.5)">w</text><text xml:space="preserve" font-family="Monaco,Monaco" font-size="16.5" fill="#CC642E" transform="matrix(1.00, 0.00, -0.00, -1.00, 242.6, 241.5)">n</text><text xml:space="preserve" font-family="Monaco,Monaco" font-size="16.5" fill="#000000" transform="matrix(1.00, 0.00, -0.00, -1.00, 252.5, 241.5)"> </text><text xml:space="preserve" font-family="Monaco,Monaco" font-size="16.5" fill="#000000" transform="matrix(1.00, 0.00, -0.00, -1.00, 104.0, 219.5)"> </text><text xml:space="preserve" font-family="Monaco,Monaco" font-size="16.5" fill="#000000" transform="matrix(1.00, 0.00, -0.00, -1.00, 113.9, 219.5)"> </text><text xml:space="preserve" font-family="Monaco,Monaco" font-size="16.5" fill="#000000" transform="matrix(1.00, 0.00, -0.00, -1.00, 123.8, 219.5)"> </text><text xml:space="preserve" font-family="Monaco,Monaco" font-size="16.5" fill="#000000" transform="matrix(1.00, 0.00, -0.00, -1.00, 133.7, 219.5)"> </text><text xml:space="preserve" font-family="Monaco,Monaco" font-size="16.5" fill="#000000" transform="matrix(1.00, 0.00, -0.00, -1.00, 143.6, 219.5)">r</text><text xml:space="preserve" font-family="Monaco,Monaco" font-size="16.5" fill="#000000" transform="matrix(1.00, 0.00, -0.00, -1.00, 153.5, 219.5)">e</text><text xml:space="preserve" font-family="Monaco,Monaco" font-size="16.5" fill="#000000" transform="matrix(1.00, 0.00, -0.00, -1.00, 163.4, 219.5)">m</text><text xml:space="preserve" font-family="Monaco,Monaco" font-size="16.5" fill="#000000" transform="matrix(1.00, 0.00, -0.00, -1.00, 173.3, 219.5)">o</text><text xml:space="preserve" font-family="Monaco,Monaco" font-size="16.5" fill="#000000" transform="matrix(1.00, 0.00, -0.00, -1.00, 183.2, 219.5)">v</text><text xml:space="preserve" font-family="Monaco,Monaco" font-size="16.5" fill="#000000" transform="matrix(1.00, 0.00, -0.00, -1.00, 193.1, 219.5)">e</text><text xml:space="preserve" font-family="Monaco,Monaco" font-size="16.5" fill="#000000" transform="matrix(1.00, 0.00, -0.00, -1.00, 203.0, 219.5)">_</text><text xml:space="preserve" font-family="Monaco,Monaco" font-size="16.5" fill="#000000" transform="matrix(1.00, 0.00, -0.00, -1.00, 212.9, 219.5)">c</text><text xml:space="preserve" font-family="Monaco,Monaco" font-size="16.5" fill="#000000" transform="matrix(1.00, 0.00, -0.00, -1.00, 222.8, 219.5)">o</text><text xml:space="preserve" font-family="Monaco,Monaco" font-size="16.5" fill="#000000" transform="matrix(1.00, 0.00, -0.00, -1.00, 232.7, 219.5)">l</text><text xml:space="preserve" font-family="Monaco,Monaco" font-size="16.5" fill="#000000" transform="matrix(1.00, 0.00, -0.00, -1.00, 242.6, 219.5)">u</text><text xml:space="preserve" font-family="Monaco,Monaco" font-size="16.5" fill="#000000" transform="matrix(1.00, 0.00, -0.00, -1.00, 252.5, 219.5)">m</text><text xml:space="preserve" font-family="Monaco,Monaco" font-size="16.5" fill="#000000" transform="matrix(1.00, 0.00, -0.00, -1.00, 262.5, 219.5)">n</text><text xml:space="preserve" font-family="Monaco,Monaco" font-size="16.5" fill="#000000" transform="matrix(1.00, 0.00, -0.00, -1.00, 272.4, 219.5)"> </text><text xml:space="preserve" font-family="Monaco,Monaco" font-size="16.5" fill="#942E2F" transform="matrix(1.00, 0.00, -0.00, -1.00, 282.2, 219.5)">:</text><text xml:space="preserve" font-family="Monaco,Monaco" font-size="16.5" fill="#942E2F" transform="matrix(1.00, 0.00, -0.00, -1.00, 292.1, 219.5)">c</text><text xml:space="preserve" font-family="Monaco,Monaco" font-size="16.5" fill="#942E2F" transform="matrix(1.00, 0.00, -0.00, -1.00, 302.0, 219.5)">o</text><text xml:space="preserve" font-family="Monaco,Monaco" font-size="16.5" fill="#942E2F" transform="matrix(1.00, 0.00, -0.00, -1.00, 311.9, 219.5)">n</text><text xml:space="preserve" font-family="Monaco,Monaco" font-size="16.5" fill="#942E2F" transform="matrix(1.00, 0.00, -0.00, -1.00, 321.8, 219.5)">t</text><text xml:space="preserve" font-family="Monaco,Monaco" font-size="16.5" fill="#942E2F" transform="matrix(1.00, 0.00, -0.00, -1.00, 331.7, 219.5)">a</text><text xml:space="preserve" font-family="Monaco,Monaco" font-size="16.5" fill="#942E2F" transform="matrix(1.00, 0.00, -0.00, -1.00, 341.6, 219.5)">c</text><text xml:space="preserve" font-family="Monaco,Monaco" font-size="16.5" fill="#942E2F" transform="matrix(1.00, 0.00, -0.00, -1.00, 351.6, 219.5)">t</text><text xml:space="preserve" font-family="Monaco,Monaco" font-size="16.5" fill="#942E2F" transform="matrix(1.00, 0.00, -0.00, -1.00, 361.5, 219.5)">s</text><text xml:space="preserve" font-family="Monaco,Monaco" font-size="16.5" fill="#8C5B48" transform="matrix(1.00, 0.00, -0.00, -1.00, 371.3, 219.5)">,</text><text xml:space="preserve" font-family="Monaco,Monaco" font-size="16.5" fill="#000000" transform="matrix(1.00, 0.00, -0.00, -1.00, 381.2, 219.5)"> </text><text xml:space="preserve" font-family="Monaco,Monaco" font-size="16.5" fill="#942E2F" transform="matrix(1.00, 0.00, -0.00, -1.00, 391.1, 219.5)">:</text><text xml:space="preserve" font-family="Monaco,Monaco" font-size="16.5" fill="#942E2F" transform="matrix(1.00, 0.00, -0.00, -1.00, 401.0, 219.5)">e</text><text xml:space="preserve" font-family="Monaco,Monaco" font-size="16.5" fill="#942E2F" transform="matrix(1.00, 0.00, -0.00, -1.00, 411.0, 219.5)">m</text><text xml:space="preserve" font-family="Monaco,Monaco" font-size="16.5" fill="#942E2F" transform="matrix(1.00, 0.00, -0.00, -1.00, 420.9, 219.5)">a</text><text xml:space="preserve" font-family="Monaco,Monaco" font-size="16.5" fill="#942E2F" transform="matrix(1.00, 0.00, -0.00, -1.00, 430.8, 219.5)">i</text><text xml:space="preserve" font-family="Monaco,Monaco" font-size="16.5" fill="#942E2F" transform="matrix(1.00, 0.00, -0.00, -1.00, 440.7, 219.5)">l</text><text xml:space="preserve" font-family="Monaco,Monaco" font-size="16.5" fill="#000000" transform="matrix(1.00, 0.00, -0.00, -1.00, 450.6, 219.5)"> </text><text xml:space="preserve" font-family="Monaco,Monaco" font-size="16.5" fill="#000000" transform="matrix(1.00, 0.00, -0.00, -1.00, 104.0, 197.5)"> </text><text xml:space="preserve" font-family="Monaco,Monaco" font-size="16.5" fill="#000000" transform="matrix(1.00, 0.00, -0.00, -1.00, 113.9, 197.5)"> </text><text xml:space="preserve" font-family="Monaco,Monaco" font-size="16.5" fill="#8C5B48" transform="matrix(1.00, 0.00, -0.00, -1.00, 123.8, 197.5)">e</text><text xml:space="preserve" font-family="Monaco,Monaco" font-size="16.5" fill="#8C5B48" transform="matrix(1.00, 0.00, -0.00, -1.00, 133.7, 197.5)">n</text><text xml:space="preserve" font-family="Monaco,Monaco" font-size="16.5" fill="#8C5B48" transform="matrix(1.00, 0.00, -0.00, -1.00, 143.6, 197.5)">d</text><text xml:space="preserve" font-family="Monaco,Monaco" font-size="16.5" fill="#000000" transform="matrix(1.00, 0.00, -0.00, -1.00, 153.5, 197.5)"> </text><text xml:space="preserve" font-family="Monaco,Monaco" font-size="16.5" fill="#8C5B48" transform="matrix(1.00, 0.00, -0.00, -1.00, 104.0, 175.5)">e</text><text xml:space="preserve" font-family="Monaco,Monaco" font-size="16.5" fill="#8C5B48" transform="matrix(1.00, 0.00, -0.00, -1.00, 113.9, 175.5)">n</text><text xml:space="preserve" font-family="Monaco,Monaco" font-size="16.5" fill="#8C5B48" transform="matrix(1.00, 0.00, -0.00, -1.00, 123.8, 175.5)">d</text><text xml:space="preserve" font-family="Monaco,Monaco" font-size="16.5" fill="#000000" transform="matrix(1.00, 0.00, -0.00, -1.00, 133.7, 175.5)"> </text></g></svg>